<?xml version="1.0" encoding="UTF-8" standalone="no"?>
<!-- Created with Inkscape (http://www.inkscape.org/) -->

<svg
   xmlns:dc="http://purl.org/dc/elements/1.1/"
   xmlns:cc="http://creativecommons.org/ns#"
   xmlns:rdf="http://www.w3.org/1999/02/22-rdf-syntax-ns#"
   xmlns:svg="http://www.w3.org/2000/svg"
   xmlns="http://www.w3.org/2000/svg"
   xmlns:sodipodi="http://sodipodi.sourceforge.net/DTD/sodipodi-0.dtd"
   xmlns:inkscape="http://www.inkscape.org/namespaces/inkscape"
   id="svg2"
   version="1.1"
   inkscape:version="0.91 r13725"
   xml:space="preserve"
   width="1225"
   height="1225"
   viewBox="0 0 1225 1225"
   sodipodi:docname="logo_1.svg"><metadata
     id="metadata8"><rdf:RDF><cc:Work
         rdf:about=""><dc:format>image/svg+xml</dc:format><dc:type
           rdf:resource="http://purl.org/dc/dcmitype/StillImage" /><dc:title></dc:title></cc:Work></rdf:RDF></metadata><defs
     id="defs6" /><sodipodi:namedview
     pagecolor="#ffffff"
     bordercolor="#666666"
     borderopacity="1"
     objecttolerance="10"
     gridtolerance="10"
     guidetolerance="10"
     inkscape:pageopacity="0"
     inkscape:pageshadow="2"
     inkscape:window-width="1315"
     inkscape:window-height="744"
     id="namedview4"
     showgrid="false"
     inkscape:zoom="0.19265306"
     inkscape:cx="-267.31992"
     inkscape:cy="612.5"
     inkscape:window-x="51"
     inkscape:window-y="24"
     inkscape:window-maximized="1"
     inkscape:current-layer="g10" /><g
     id="g10"
     inkscape:groupmode="layer"
     inkscape:label="ink_ext_XXXXXX"
     transform="matrix(1.25,0,0,-1.25,0,1225)"><g
       id="g12"
       transform="scale(0.1,0.1)"><path
         d="M 7309.7,6724.15 5274.91,7898.94 c -115.98,66.96 -245.48,100.46 -374.91,100.45 -129.43,0.01 -258.94,-33.49 -374.91,-100.45 L 2490.3,6724.15 C 2258.31,6590.2 2115.39,6342.67 2115.39,6074.78 l 0,-2349.57 c 0,-267.88 142.92,-515.42 374.91,-649.36 L 4525.09,1901.06 c 115.98,-66.96 245.48,-100.46 374.91,-100.45 129.43,-0.01 258.93,33.49 374.91,100.45 L 7309.7,3075.85 c 231.99,133.94 374.91,381.48 374.91,649.36 l 0,2349.57 c 0,267.89 -142.92,515.42 -374.91,649.37"
         style="fill:#393536;fill-opacity:1;fill-rule:nonzero;stroke:none"
         id="path14"
         inkscape:connector-curvature="0" /><path
         d="m 6912.94,6390.91 -1728.24,997.8 c -88.1,50.87 -186.38,76.29 -284.7,76.29 -98.32,0 -196.6,-25.42 -284.7,-76.29 l -12.5,21.65 12.5,-21.65 -1728.24,-997.8 c -176.17,-101.71 -284.7,-289.68 -284.7,-493.11 l 0,-1995.61 c 0,-203.42 108.53,-391.39 284.7,-493.1 L 4615.3,2411.28 c 88.1,-50.86 186.38,-76.28 284.7,-76.28 98.32,0 196.6,25.42 284.7,76.28 l 1728.24,997.81 c 176.18,101.71 284.7,289.68 284.7,493.1 l 0,1995.61 c 0,203.43 -108.52,391.4 -284.7,493.11"
         style="fill:#ffffff;fill-opacity:1;fill-rule:nonzero;stroke:none"
         id="path16"
         inkscape:connector-curvature="0" /><path
         d="m 7197.64,3902.19 c 0,-203.42 -108.52,-391.39 -284.7,-493.1 L 5184.7,2411.28 C 5096.6,2360.42 4998.32,2335 4900,2335 c -98.32,0 -196.6,25.42 -284.7,76.28 l -1728.24,997.81 c -176.17,101.71 -284.7,289.68 -284.7,493.1 l 0,1995.61 c 0,203.43 108.53,391.4 284.7,493.11 l 1728.24,997.8 -12.5,21.65 12.5,-21.65 c 88.1,50.87 186.38,76.29 284.7,76.29 98.32,0 196.6,-25.42 284.7,-76.29 l 1728.24,-997.8 c 176.18,-101.71 284.7,-289.68 284.7,-493.11 l 0,-1995.61 z m -259.7,2532.02 -1728.24,997.81 c -95.81,55.31 -202.77,82.98 -309.7,82.98 -106.93,0 -213.89,-27.67 -309.7,-82.98 L 2862.06,6434.21 c -191.64,-110.64 -309.7,-315.12 -309.7,-536.41 l 0,-1995.61 c 0,-221.28 118.06,-425.76 309.7,-536.41 l 1728.24,-997.8 c 95.81,-55.31 202.77,-82.98 309.7,-82.98 106.93,0 213.89,27.67 309.7,82.98 l 1728.24,997.8 c 191.64,110.65 309.7,315.13 309.7,536.41 l 0,1995.61 c 0,221.29 -118.06,425.77 -309.7,536.41"
         style="fill:#393536;fill-opacity:1;fill-rule:nonzero;stroke:none"
         id="path18"
         inkscape:connector-curvature="0" /><path
         d="m 5028.64,4917.47 c 40.87,5.91 90.53,12.88 147.3,21.81 56.83,8.66 120.94,18.48 190.69,30.12 34.9,5.7 71.25,11.64 108.87,17.78 37.57,6.45 76.4,13.13 116.33,19.99 79.82,13.82 164.03,28.22 250.94,44.18 86.93,15.84 176.73,32.36 267.83,49.89 91.15,17.21 183.6,35.53 276.07,53.7 92.38,18.61 184.79,37.12 275.6,56.09 90.89,18.57 180.04,38.36 266.48,56.69 86.46,18.17 169.74,37.27 248.79,54.98 15.26,3.37 30.19,6.74 45.1,10.11 l 0,58.11 c -18.66,-3.2 -37.55,-6.47 -56.71,-9.87 -79.81,-13.89 -164.05,-28.12 -250.9,-44.42 -86.87,-16.14 -176.8,-31.97 -267.88,-49.6 -91.15,-17.22 -183.61,-35.48 -276.08,-53.65 -92.39,-18.59 -184.81,-37.05 -275.62,-56.03 -90.87,-18.67 -180.15,-37.77 -266.52,-56.41 -86.41,-18.5 -169.72,-37.43 -248.75,-55.2 -39.52,-8.94 -77.95,-17.64 -115.12,-26.05 -37.11,-8.72 -72.97,-17.15 -107.39,-25.24 -68.9,-15.94 -131.88,-31.4 -187.7,-45.15 -55.87,-13.47 -104.42,-26.04 -144.43,-36.22 -40.04,-10.05 -71.36,-18.66 -92.77,-24.22 -21.37,-5.78 -32.77,-8.86 -32.77,-8.86 0,0 11.71,1.51 33.67,4.35 21.91,3.05 54.14,7.08 94.97,13.12 z m -146.12,111.17 c -5.91,40.86 -12.88,90.53 -21.8,147.3 -8.66,56.83 -18.48,120.94 -30.12,190.69 -5.7,34.9 -11.64,71.25 -17.78,108.87 -6.46,37.57 -13.13,76.4 -19.99,116.32 -13.83,79.83 -28.22,164.04 -44.19,250.95 -15.83,86.93 -32.36,176.72 -49.88,267.82 -17.22,91.17 -35.53,183.61 -53.71,276.08 -18.6,92.39 -37.11,184.79 -56.09,275.6 -18.56,90.89 -38.35,180.04 -56.68,266.47 -18.17,86.47 -37.27,169.75 -54.98,248.8 -10.86,49.16 -21.72,96.33 -32.31,141.71 l -47.54,-27.45 c 6.73,-40.6 13.82,-82.55 21.5,-125.87 13.88,-79.81 28.12,-164.06 44.41,-250.89 16.15,-86.88 31.98,-176.81 49.61,-267.89 17.22,-91.16 35.48,-183.61 53.65,-276.08 18.59,-92.39 37.05,-184.81 56.03,-275.62 18.67,-90.87 37.77,-180.15 56.4,-266.52 18.51,-86.41 37.44,-169.72 55.21,-248.76 8.94,-39.51 17.64,-77.94 26.05,-115.11 8.72,-37.11 17.15,-72.97 25.24,-107.39 15.94,-68.9 31.4,-131.88 45.14,-187.7 13.48,-55.87 26.05,-104.42 36.22,-144.43 10.05,-40.04 18.67,-71.36 24.23,-92.77 5.78,-21.37 8.86,-32.77 8.86,-32.77 0,0 -1.51,11.71 -4.35,33.67 -3.06,21.91 -7.09,54.14 -13.13,94.97 z m 74.45,-11.91 c 17.79,37.28 39.6,82.47 63.73,134.67 24.38,52.09 51.84,110.88 80.94,175.37 14.65,32.21 29.92,65.75 45.72,100.47 15.52,34.83 31.55,70.85 48.04,107.87 32.86,74.1 67.7,152.16 102.72,233.33 35.15,81.12 71.32,165.01 107.38,250.54 36.35,85.41 72.5,172.5 108.78,259.53 35.88,87.2 71.84,174.36 106.54,260.45 35.07,85.94 68.17,171.1 100.96,253.2 32.95,82.03 63.36,161.92 92.57,237.53 2.62,6.73 5.11,13.25 7.69,19.92 l -50.91,29.39 c -3.92,-8.85 -7.8,-17.55 -11.75,-26.54 -32.81,-74.12 -67.8,-152.11 -102.51,-233.42 -34.86,-81.24 -71.67,-164.86 -107.64,-250.43 -36.35,-85.41 -72.55,-172.47 -108.84,-259.5 -35.88,-87.19 -71.9,-174.33 -106.59,-260.43 -34.98,-85.98 -68.72,-170.87 -101.23,-253.08 -32.63,-82.17 -63.2,-162 -92.35,-237.63 -14.53,-37.84 -28.65,-74.64 -42.32,-110.25 -13.37,-35.72 -26.29,-70.23 -38.7,-103.37 -25.03,-66.17 -47.19,-127.16 -66.78,-181.24 -19.85,-53.97 -36.38,-101.34 -50.15,-140.29 -13.91,-38.89 -24.15,-69.73 -31.43,-90.63 -7.07,-21 -10.84,-32.19 -10.84,-32.19 0,0 5.25,10.58 15.09,30.42 9.64,19.93 24.2,48.98 41.88,86.31 z m -23.08,-119.03 c 22.1,-1.28 54.51,-3.62 95.76,-5.66 41.25,-2.17 91.35,-5.03 148.8,-7.35 57.46,-2.59 122.29,-5.46 193.01,-7.66 35.35,-1.22 72.19,-2.49 110.31,-3.8 38.12,-1 77.53,-2.03 118.04,-3.09 81.03,-2.01 166.48,-4.32 254.88,-5.62 88.4,-1.43 179.74,-2.74 272.56,-3.32 92.82,-0.9 187.11,-0.97 281.4,-1.19 94.29,0.23 188.58,0.35 281.4,1.24 92.82,0.49 184.16,2.5 272.56,3.62 88.4,0.95 173.85,3.43 254.88,5.38 1.74,0.04 3.41,0.08 5.15,0.12 l 0,59.25 c -1.74,0.04 -3.41,0.09 -5.15,0.13 -81.03,1.95 -166.48,4.42 -254.88,5.38 -88.4,1.12 -179.74,3.13 -272.56,3.61 -92.82,0.9 -187.11,1.02 -281.4,1.25 -94.29,-0.22 -188.58,-0.29 -281.4,-1.19 -92.82,-0.58 -184.16,-1.9 -272.56,-3.33 -88.4,-1.29 -173.85,-3.6 -254.88,-5.61 -40.51,-1.06 -79.92,-2.09 -118.04,-3.09 -38.12,-1.32 -74.96,-2.59 -110.31,-3.8 -70.72,-2.2 -135.55,-5.07 -193.01,-7.66 -57.45,-2.33 -107.55,-5.18 -148.8,-7.35 -41.25,-2.05 -73.66,-4.38 -95.76,-5.66 -22.1,-1.5 -33.89,-2.3 -33.89,-2.3 0,0 11.79,-0.8 33.89,-2.3 z m -33.89,2.3 0,0 z m 122.83,42.26 c 38.94,13.78 86.31,30.31 140.29,50.15 54.07,19.6 115.06,41.75 181.24,66.79 33.13,12.4 67.64,25.32 103.36,38.7 35.61,13.66 72.41,27.79 110.25,42.32 75.63,29.15 155.46,59.71 237.63,92.35 82.21,32.5 167.11,66.25 253.08,101.23 86.1,34.69 173.24,70.71 260.44,106.59 87.02,36.29 174.09,72.49 259.5,108.84 85.56,35.96 169.18,72.78 250.43,107.64 81.3,34.71 159.29,69.7 233.42,102.51 59.83,26.27 116.6,51.97 170.17,76.36 l 0,51.9 c -60.53,-22.62 -125.12,-46.86 -192.94,-73.29 -75.61,-29.21 -155.51,-59.62 -237.54,-92.57 -82.1,-32.8 -167.26,-65.89 -253.2,-100.97 -86.09,-34.69 -173.25,-70.66 -260.45,-106.53 -87.03,-36.29 -174.12,-72.43 -259.53,-108.78 -85.52,-36.07 -169.41,-72.23 -250.53,-107.38 -81.18,-35.02 -159.24,-69.86 -233.33,-102.73 -37.03,-16.48 -73.04,-32.52 -107.88,-48.03 -34.72,-15.8 -68.26,-31.07 -100.46,-45.73 -64.49,-29.09 -123.29,-56.55 -175.38,-80.93 -52.2,-24.14 -97.38,-45.94 -134.66,-63.73 -37.34,-17.68 -66.38,-32.24 -86.31,-41.88 C 4910.59,4905.25 4900,4900 4900,4900 c 0,0 11.2,3.77 32.19,10.84 20.91,7.28 51.74,17.52 90.64,31.42 z m -10.67,23.11 c 35.49,21.1 78.7,46.54 127.74,76.52 49.19,29.75 104.66,63.35 164.65,100.8 30.06,18.62 61.37,38.01 93.78,58.09 32.24,20.34 65.56,41.36 99.82,62.98 68.46,43.32 140.75,88.84 214.93,136.86 74.26,47.89 150.89,97.52 228.35,148.57 77.64,50.8 156.03,103.1 234.51,155.27 78.23,52.54 156.52,105.01 233.16,157.29 76.86,51.94 151.65,104.33 224.49,154.35 72.93,49.87 142.57,99.38 208.82,146 66.39,46.41 128.57,91.19 185.95,132.53 8.65,6.16 16.93,12.14 25.33,18.18 -10.47,10.74 -21.32,21.14 -32.63,31.1 -6,-3.72 -12.01,-7.46 -18.11,-11.26 -60.14,-37.2 -125.3,-77.51 -193.59,-121.08 -68.42,-43.37 -140.81,-88.76 -214.8,-137.05 -74.08,-48.16 -151.11,-97.21 -228.51,-148.34 -77.63,-50.8 -156.06,-103.05 -234.54,-155.22 -78.24,-52.54 -156.56,-104.95 -233.19,-157.24 -76.81,-52.03 -151.99,-103.84 -224.66,-154.11 -72.74,-50.16 -142.46,-99.53 -208.69,-146.2 -33.08,-23.38 -65.25,-46.12 -96.38,-68.12 -30.95,-22.26 -60.86,-43.76 -89.56,-64.41 -57.55,-41.09 -109.83,-79.48 -156.13,-113.54 -46.46,-33.83 -86.5,-64.02 -119.58,-88.73 -33.14,-24.61 -58.78,-44.55 -76.44,-57.88 -17.5,-13.5 -26.85,-20.71 -26.88,-20.73 0.03,0.02 8.93,7.79 25.59,22.33 16.53,14.73 41.1,35.99 71.71,63.72 30.71,27.63 68.15,61.03 110.42,100.02 42.46,38.8 90.33,82.6 141.89,131.06 25.86,24.14 52.81,49.28 80.69,75.31 27.66,26.25 56.26,53.39 85.66,81.29 58.72,55.87 120.77,114.66 184.2,176.25 63.51,61.5 129.03,125.16 195.07,190.38 66.27,64.99 133,131.62 199.82,198.14 66.52,66.83 133.1,133.59 198.1,199.86 65.29,65.97 128.46,131.98 190.18,195.28 61.83,63.18 120.5,125.36 176.42,184.03 22.34,23.3 43.9,46.08 65.01,68.49 l -49.33,28.48 c -18.97,-17.92 -38.16,-36.11 -57.75,-54.89 -58.68,-55.92 -120.85,-114.59 -184.04,-176.42 -63.29,-61.72 -129.31,-124.89 -195.28,-190.18 -66.27,-65 -133.02,-131.59 -199.86,-198.1 -66.52,-66.82 -133.14,-133.55 -198.14,-199.82 -65.22,-66.04 -128.88,-131.56 -190.37,-195.08 -61.6,-63.42 -120.39,-125.47 -176.26,-184.2 -27.9,-29.39 -55.04,-57.99 -81.29,-85.65 -26.02,-27.89 -51.17,-54.83 -75.31,-80.69 -48.45,-51.56 -92.26,-99.43 -131.06,-141.89 -38.99,-42.27 -72.39,-79.71 -100.02,-110.42 -27.72,-30.61 -48.99,-55.18 -63.72,-71.71 -14.55,-16.68 -22.32,-25.58 -22.33,-25.59 0.01,0 10.25,5.88 29.44,16.9 19.08,11.21 47.31,27.27 82.72,48.47 z m -33.55,37.95 c 24.71,33.07 54.9,73.12 88.73,119.58 34.07,46.3 72.45,98.58 113.54,156.13 20.65,28.7 42.16,58.61 64.42,89.56 21.99,31.12 44.73,63.3 68.12,96.38 46.66,66.22 96.03,135.95 146.19,208.69 50.28,72.67 102.08,147.85 154.11,224.66 52.29,76.63 104.7,154.95 157.24,233.19 52.17,78.48 104.42,156.91 155.22,234.53 51.13,77.41 100.18,154.43 148.34,228.52 48.29,73.98 93.68,146.38 137.05,214.8 2.42,3.79 4.73,7.47 7.13,11.24 l -51.16,29.54 c -1.83,-2.61 -3.61,-5.11 -5.44,-7.73 -46.61,-66.26 -96.12,-135.89 -146,-208.82 -50.02,-72.84 -102.41,-147.63 -154.35,-224.5 -52.28,-76.63 -104.74,-154.92 -157.29,-233.15 -52.17,-78.48 -104.47,-156.88 -155.27,-234.51 -51.05,-77.46 -100.68,-154.1 -148.57,-228.35 -48.01,-74.18 -93.54,-146.48 -136.86,-214.93 -21.62,-34.26 -42.64,-67.58 -62.98,-99.82 -20.07,-32.41 -39.47,-63.72 -58.09,-93.78 -37.44,-59.99 -71.05,-115.46 -100.8,-164.65 -29.98,-49.04 -55.42,-92.25 -76.51,-127.74 -21.21,-35.42 -37.26,-63.65 -48.48,-82.72 -11,-19.17 -16.88,-29.41 -16.9,-29.44 0.02,0.03 7.23,9.37 20.73,26.88 13.33,17.66 33.27,43.29 57.88,76.44 z m -181.93,-24.71 c -33.08,24.71 -73.12,54.9 -119.58,88.73 -46.3,34.06 -98.58,72.45 -156.13,113.54 -28.7,20.65 -58.61,42.15 -89.56,64.41 -31.13,22 -63.3,44.74 -96.38,68.12 -66.23,46.67 -135.95,96.04 -208.69,146.2 -72.67,50.27 -147.85,102.08 -224.66,154.11 -76.63,52.29 -154.95,104.7 -233.19,157.24 -78.48,52.17 -156.91,104.42 -234.54,155.22 -77.4,51.13 -154.43,100.18 -228.51,148.34 -73.99,48.29 -146.38,93.68 -214.8,137.05 -68.29,43.57 -133.45,83.88 -193.6,121.08 -6.09,3.8 -12.1,7.54 -18.1,11.26 -11.31,-9.96 -22.16,-20.36 -32.63,-31.1 8.4,-6.04 16.68,-12.02 25.33,-18.18 57.38,-41.34 119.56,-86.12 185.95,-132.53 66.25,-46.62 135.89,-96.13 208.82,-146 72.84,-50.02 147.63,-102.41 224.49,-154.35 76.64,-52.28 154.93,-104.75 233.16,-157.29 78.48,-52.17 156.87,-104.47 234.51,-155.27 77.46,-51.05 154.09,-100.68 228.35,-148.57 74.18,-48.02 146.47,-93.54 214.93,-136.86 34.26,-21.62 67.58,-42.64 99.82,-62.98 32.41,-20.08 63.72,-39.47 93.78,-58.09 59.99,-37.45 115.45,-71.05 164.64,-100.8 49.05,-29.98 92.26,-55.42 127.75,-76.52 35.41,-21.2 63.64,-37.26 82.72,-48.47 19.2,-11.02 29.44,-16.9 29.44,-16.9 0,0 -9.35,7.21 -26.88,20.73 -17.66,13.33 -43.3,33.27 -76.44,57.88 z m 67.85,876.08 c 1.29,-88.4 3.6,-173.85 5.61,-254.88 1.06,-40.51 2.09,-79.92 3.09,-118.04 1.32,-38.12 2.59,-74.96 3.8,-110.32 2.2,-70.72 5.07,-135.54 7.66,-193 2.33,-57.46 5.18,-107.55 7.35,-148.8 2.05,-41.25 4.38,-73.66 5.66,-95.76 1.5,-22.1 2.3,-33.89 2.3,-33.89 0,0 0.8,11.79 2.3,33.89 1.28,22.1 3.61,54.51 5.66,95.76 2.17,41.25 5.02,91.34 7.35,148.8 2.59,57.46 5.46,122.28 7.66,193 1.21,35.36 2.48,72.2 3.8,110.32 1,38.12 2.03,77.53 3.09,118.04 2.01,81.03 4.32,166.48 5.62,254.88 1.43,88.4 2.74,179.74 3.32,272.56 0.9,92.82 0.97,187.11 1.19,281.4 -0.23,94.29 -0.35,188.58 -1.24,281.4 -0.49,92.81 -2.5,184.16 -3.62,272.55 -0.96,88.4 -3.43,173.86 -5.38,254.89 -1.71,81.03 -4.4,157.64 -6.88,228.35 -0.46,14.87 -0.96,29.41 -1.47,43.74 -14.26,0.52 -28.54,0.52 -42.8,0 -0.51,-14.33 -1.01,-28.87 -1.46,-43.74 -2.49,-70.71 -5.18,-147.32 -6.89,-228.35 -1.95,-81.03 -4.42,-166.49 -5.38,-254.89 -1.12,-88.39 -3.13,-179.74 -3.61,-272.55 -0.9,-92.82 -1.02,-187.11 -1.25,-281.4 0.22,-94.29 0.29,-188.58 1.19,-281.4 0.58,-92.82 1.9,-184.16 3.33,-272.56 z m 68.56,-829.15 c 10.17,40.01 22.74,88.56 36.22,144.43 13.74,55.82 29.2,118.8 45.14,187.7 8.09,34.42 16.52,70.28 25.24,107.39 8.42,37.17 17.11,75.6 26.05,115.11 17.77,79.04 36.7,162.35 55.21,248.76 18.63,86.37 37.73,175.65 56.4,266.52 18.98,90.81 37.44,183.23 56.03,275.62 18.17,92.47 36.43,184.92 53.65,276.08 17.63,91.08 33.46,181.01 49.61,267.89 16.29,86.83 30.53,171.08 44.41,250.89 7.68,43.32 14.77,85.27 21.5,125.87 l -47.54,27.45 c -10.59,-45.38 -21.45,-92.55 -32.31,-141.71 -17.71,-79.05 -36.81,-162.33 -54.98,-248.8 -18.33,-86.43 -38.12,-175.58 -56.68,-266.47 -18.98,-90.81 -37.49,-183.21 -56.09,-275.6 -18.18,-92.47 -36.49,-184.91 -53.71,-276.08 -17.52,-91.1 -34.05,-180.89 -49.88,-267.82 -15.97,-86.91 -30.36,-171.12 -44.19,-250.95 -6.86,-39.92 -13.53,-78.75 -19.99,-116.32 -6.14,-37.62 -12.08,-73.97 -17.78,-108.87 -11.64,-69.75 -21.46,-133.86 -30.12,-190.69 -8.92,-56.77 -15.89,-106.44 -21.8,-147.3 -6.04,-40.83 -10.07,-73.06 -13.13,-94.97 -2.84,-21.96 -4.35,-33.67 -4.35,-33.67 0,0 3.08,11.4 8.86,32.77 5.56,21.41 14.18,52.73 24.23,92.77 z m -75.39,-2.73 c -13.8,38.93 -30.33,86.31 -50.19,140.27 -19.63,54.07 -41.75,115.07 -66.8,181.24 -24.77,66.28 -51.6,138.09 -81.03,213.61 -29.21,75.61 -59.62,155.5 -92.57,237.54 -32.79,82.09 -65.89,167.25 -100.96,253.19 -34.7,86.09 -70.67,173.25 -106.54,260.45 -36.28,87.03 -72.43,174.12 -108.78,259.53 -36.06,85.53 -72.23,169.41 -107.38,250.54 -35.02,81.17 -69.86,159.23 -102.73,233.32 -3.99,8.97 -7.87,17.68 -11.8,26.53 l -51.02,-29.45 c 2.56,-6.67 5.06,-13.19 7.65,-19.93 29.15,-75.63 59.71,-155.46 92.35,-237.63 32.51,-82.21 66.25,-167.1 101.23,-253.08 34.69,-86.1 70.71,-173.24 106.59,-260.43 36.29,-87.03 72.49,-174.09 108.84,-259.5 35.96,-85.57 72.78,-169.19 107.64,-250.43 34.71,-81.31 69.7,-159.31 102.51,-233.42 32.58,-74.21 64.39,-143.96 93.75,-208.34 29.07,-64.51 56.56,-123.28 80.91,-175.39 24.12,-52.2 45.93,-97.39 63.71,-134.68 17.66,-37.33 32.21,-66.39 41.84,-86.32 9.84,-19.84 15.08,-30.43 15.08,-30.43 0,0 -3.77,11.19 -10.85,32.18 -7.29,20.9 -17.54,51.74 -31.45,90.63 z m -23.08,-10.65 c -21.09,35.49 -46.53,78.7 -76.51,127.74 -29.75,49.19 -63.36,104.66 -100.8,164.65 -18.62,30.06 -38.02,61.37 -58.09,93.78 -20.34,32.24 -41.36,65.56 -62.98,99.82 -43.32,68.45 -88.85,140.75 -136.86,214.93 -47.89,74.25 -97.52,150.89 -148.57,228.35 -50.8,77.63 -103.1,156.03 -155.27,234.51 -52.55,78.23 -105.01,156.52 -157.29,233.15 -51.94,76.87 -104.33,151.66 -154.35,224.5 -49.88,72.93 -99.38,142.56 -146,208.82 -1.83,2.62 -3.61,5.12 -5.44,7.73 l -51.16,-29.54 c 2.4,-3.77 4.71,-7.45 7.13,-11.24 43.37,-68.42 88.76,-140.82 137.05,-214.8 48.16,-74.09 97.21,-151.11 148.34,-228.52 50.8,-77.62 103.05,-156.05 155.22,-234.53 52.54,-78.24 104.95,-156.56 157.24,-233.19 52.03,-76.81 103.83,-151.99 154.11,-224.66 50.16,-72.74 99.53,-142.47 146.2,-208.69 23.38,-33.08 46.12,-65.26 68.11,-96.38 22.26,-30.95 43.77,-60.86 64.42,-89.56 41.09,-57.55 79.47,-109.83 113.54,-156.13 33.83,-46.46 64.02,-86.51 88.73,-119.58 24.61,-33.15 44.55,-58.78 57.88,-76.44 13.52,-17.53 20.73,-26.88 20.73,-26.88 0,0 -5.88,10.24 -16.9,29.44 -11.21,19.07 -27.27,47.3 -48.48,82.72 z m -20.7,-14.89 c -27.65,30.69 -61.05,68.13 -100.05,110.39 -38.82,42.44 -82.61,90.33 -131.07,141.87 -48.25,51.77 -100.51,107.84 -156.61,166.35 -55.92,58.67 -114.59,120.85 -176.42,184.03 -61.71,63.3 -124.88,129.31 -190.18,195.28 -64.99,66.27 -131.58,133.03 -198.09,199.86 -66.83,66.52 -133.55,133.15 -199.82,198.14 -66.05,65.22 -131.56,128.88 -195.08,190.38 -63.42,61.59 -125.48,120.38 -184.2,176.25 -19.69,18.69 -38.86,36.88 -57.79,54.85 l -49.45,-28.56 c 21.19,-22.34 42.78,-45.09 65.02,-68.51 55.87,-58.72 114.66,-120.78 176.25,-184.2 61.49,-63.52 125.16,-129.04 190.38,-195.08 64.99,-66.27 131.62,-132.99 198.14,-199.82 66.83,-66.52 133.59,-133.1 199.85,-198.1 65.98,-65.29 131.99,-128.46 195.29,-190.17 63.18,-61.83 125.35,-120.51 184.03,-176.42 58.51,-56.1 114.58,-108.37 166.34,-156.61 51.55,-48.47 99.44,-92.25 141.87,-131.07 42.26,-39.01 79.71,-72.4 110.4,-100.05 30.6,-27.74 55.17,-49 71.69,-63.74 16.68,-14.57 25.58,-22.34 25.58,-22.34 0,0 -7.77,8.9 -22.34,25.58 -14.74,16.52 -36,41.09 -63.74,71.69 z M 4900,4900 c 0,0 -10.59,5.24 -30.43,15.08 -19.94,9.62 -48.99,24.18 -86.32,41.84 -37.29,17.77 -82.48,39.59 -134.68,63.71 -52.11,24.35 -110.88,51.84 -175.39,80.91 -64.38,29.36 -134.13,61.17 -208.34,93.75 -74.12,32.81 -152.12,67.8 -233.42,102.51 -81.24,34.86 -164.86,71.68 -250.43,107.64 -85.4,36.35 -172.47,72.55 -259.5,108.84 -87.19,35.88 -174.34,71.9 -260.43,106.59 -85.98,34.98 -170.87,68.72 -253.09,101.23 -82.16,32.63 -161.99,63.2 -237.62,92.35 -37.84,14.52 -74.65,28.65 -110.25,42.32 -28.45,10.65 -55.9,20.93 -82.74,30.98 l 0,-52.11 c 20.34,-9.26 40.99,-18.66 62.25,-28.34 34.84,-15.51 70.86,-31.54 107.89,-48.03 74.09,-32.86 152.15,-67.7 233.32,-102.72 81.12,-35.15 165.01,-71.32 250.54,-107.38 85.41,-36.35 172.5,-72.5 259.52,-108.78 87.21,-35.88 174.36,-71.85 260.46,-106.54 85.94,-35.07 171.1,-68.17 253.2,-100.96 82.03,-32.95 161.92,-63.36 237.53,-92.57 75.52,-29.43 147.33,-56.26 213.61,-81.03 66.17,-25.05 127.17,-47.18 181.23,-66.8 53.97,-19.86 101.35,-36.39 140.28,-50.19 38.89,-13.91 69.73,-24.16 90.63,-31.45 20.97,-7.07 32.16,-10.85 32.18,-10.85 -0.03,0 -11.43,3.09 -32.77,8.86 -21.41,5.56 -52.73,14.17 -92.77,24.22 -40.01,10.18 -88.56,22.75 -144.43,36.22 -55.82,13.75 -118.8,29.21 -187.7,45.15 -34.42,8.09 -70.27,16.52 -107.39,25.24 -37.17,8.41 -75.6,17.11 -115.11,26.05 -79.04,17.77 -162.35,36.7 -248.76,55.2 -86.37,18.64 -175.65,37.74 -266.52,56.41 -90.81,18.98 -183.23,37.44 -275.61,56.03 -92.48,18.17 -184.93,36.43 -276.09,53.65 -91.08,17.63 -181.01,33.46 -267.88,49.6 -86.84,16.3 -171.09,30.53 -250.9,44.42 -19.16,3.4 -38.05,6.67 -56.71,9.87 l 0,-58.11 c 14.91,-3.37 29.84,-6.74 45.1,-10.11 79.05,-17.71 162.33,-36.81 248.79,-54.98 86.44,-18.33 175.59,-38.12 266.48,-56.69 90.81,-18.97 183.22,-37.48 275.6,-56.09 92.47,-18.17 184.92,-36.49 276.07,-53.7 91.1,-17.53 180.9,-34.05 267.83,-49.89 86.91,-15.96 171.12,-30.36 250.94,-44.18 39.93,-6.86 78.76,-13.54 116.33,-19.99 37.62,-6.14 73.98,-12.08 108.87,-17.78 69.76,-11.64 133.86,-21.46 190.69,-30.12 56.77,-8.93 106.43,-15.9 147.3,-21.81 40.83,-6.04 73.06,-10.07 94.97,-13.12 21.93,-2.84 33.63,-4.35 33.67,-4.35 -0.04,0 -11.82,0.79 -33.89,2.29 -22.1,1.26 -54.51,3.59 -95.76,5.62 -41.25,2.15 -91.35,5.01 -148.8,7.32 -57.46,2.55 -122.29,5.46 -193.01,7.63 -70.71,2.49 -147.32,5.18 -228.35,6.89 -81.03,1.95 -166.48,4.42 -254.88,5.38 -88.4,1.12 -179.74,3.13 -272.56,3.61 -92.82,0.9 -187.11,1.02 -281.4,1.25 -94.29,-0.22 -188.58,-0.29 -281.4,-1.19 -92.82,-0.58 -184.16,-1.9 -272.56,-3.33 -88.4,-1.29 -173.85,-3.6 -254.88,-5.61 -1.74,-0.05 -3.41,-0.09 -5.15,-0.14 l 0,-59.45 c 1.74,-0.04 3.41,-0.09 5.15,-0.13 81.03,-2.01 166.48,-4.32 254.88,-5.62 88.4,-1.43 179.74,-2.74 272.56,-3.32 92.82,-0.9 187.11,-0.97 281.4,-1.19 94.29,0.23 188.58,0.35 281.4,1.24 92.82,0.49 184.16,2.5 272.56,3.62 88.4,0.95 173.85,3.43 254.88,5.38 81.03,1.71 157.64,4.4 228.35,6.88 70.72,2.18 135.55,5.08 193.01,7.64 57.45,2.3 107.55,5.17 148.8,7.31 41.25,2.03 73.66,4.37 95.76,5.63 22.1,1.49 33.89,2.29 33.89,2.29"
         style="fill:#393536;fill-opacity:1;fill-rule:nonzero;stroke:none"
         id="path20"
         inkscape:connector-curvature="0" /><path
         d="m 3448.79,3594.97 63.31,0 0,-334.82 59.53,0 0,334.82 63,0 0,59.84 -185.84,0 0,-59.84"
         style="fill:#393536;fill-opacity:1;fill-rule:nonzero;stroke:none"
         id="path22"
         inkscape:connector-curvature="0" /><path
         d="m 3846.53,3350.55 c 0,-9.45 -3.3,-17.48 -9.92,-24.1 -6.61,-6.61 -14.64,-9.92 -24.09,-9.92 -9.45,0 -17.53,3.31 -24.25,9.92 -6.73,6.62 -10.08,14.65 -10.08,24.1 l 0,216.07 c 0,9.45 3.35,17.48 10.08,24.1 6.72,6.61 14.8,9.92 24.25,9.92 9.45,0 17.48,-3.31 24.09,-9.92 6.62,-6.62 9.92,-14.65 9.92,-24.1 l 0,-216.07 z m -32.44,309.3 c -25.82,0 -47.98,-9.19 -66.46,-27.56 -18.47,-18.38 -27.71,-40.68 -27.71,-66.93 l 0,-215.44 c 0,-26.04 9.13,-48.3 27.4,-66.78 18.27,-18.47 40.52,-27.71 66.77,-27.71 26.04,0 48.3,9.19 66.78,27.56 18.47,18.37 27.71,40.68 27.71,66.93 l 0,215.44 c 0,26.03 -9.19,48.3 -27.55,66.78 -18.38,18.47 -40.69,27.71 -66.94,27.71"
         style="fill:#393536;fill-opacity:1;fill-rule:nonzero;stroke:none"
         id="path24"
         inkscape:connector-curvature="0" /><path
         d="m 4131.51,3350.23 c 0,-9.44 -3.3,-17.48 -9.92,-24.09 -6.61,-6.61 -14.64,-9.92 -24.09,-9.92 -9.45,0 -17.53,3.31 -24.25,9.92 -6.73,6.61 -10.08,14.65 -10.08,24.09 l 0,304.58 -58.27,0 0,-305.2 c 0,-26.05 9.13,-48.2 27.4,-66.47 18.27,-18.26 40.52,-27.4 66.77,-27.4 26.04,0 48.3,9.03 66.78,27.09 18.47,18.06 27.71,40.32 27.71,66.78 l 0,305.2 -62.05,0 0,-304.58"
         style="fill:#393536;fill-opacity:1;fill-rule:nonzero;stroke:none"
         id="path26"
         inkscape:connector-curvature="0" /><path
         d="m 4420.27,3502.05 c 0,-9.45 -3.3,-17.53 -9.92,-24.25 -6.61,-6.72 -14.64,-10.08 -24.1,-10.08 l -35.9,0 0,126.3 35.9,0 c 22.69,0 34.02,-11.44 34.02,-34.33 l 0,-57.64 z m 57.96,1.26 0,57.32 c 0,28.56 -6.83,50.82 -20.48,66.78 -15.54,18.27 -39.89,27.4 -73.07,27.4 l -93.86,0 0,-394.66 59.53,0 0,148.67 34.33,0 c 1.89,0 3.67,0 5.35,0 l 36.1,-148.67 64.38,0 -44.09,172.29 c 21.2,19.32 31.81,42.94 31.81,70.87"
         style="fill:#393536;fill-opacity:1;fill-rule:nonzero;stroke:none"
         id="path28"
         inkscape:connector-curvature="0" /><path
         d="m 4731.71,3389.69 -79,265.43 -66.83,0 0,-394.97 59.53,0 0,252.92 81.89,-252.92 63.94,0 0,394.97 -59.53,0 0,-265.43"
         style="fill:#393536;fill-opacity:1;fill-rule:nonzero;stroke:none"
         id="path30"
         inkscape:connector-curvature="0" /><path
         d="m 4971.03,3408.82 22.05,155.6 22.05,-155.6 -44.1,0 z m -18.58,245.99 -67.1,-394.66 61.99,0 14.47,90.72 62.15,0 13.93,-90.72 62.59,0 -66.14,394.66 -81.89,0"
         style="fill:#393536;fill-opacity:1;fill-rule:nonzero;stroke:none"
         id="path32"
         inkscape:connector-curvature="0" /><path
         d="m 5335.8,3371.39 -55.48,283.73 -85.43,0 0,-394.97 59.53,0 0,247.57 57.65,-247.57 47.88,0 51.65,248.2 0,-248.2 59.52,0 0,394.97 -82.07,0 -53.25,-283.73"
         style="fill:#393536;fill-opacity:1;fill-rule:nonzero;stroke:none"
         id="path34"
         inkscape:connector-curvature="0" /><path
         d="m 5568.7,3260.15 169.46,0 0,59.85 -109.93,0 0,107.72 80.32,0 0,59.85 -80.32,0 0,107.71 109.93,0 0,59.84 -169.46,0 0,-394.97"
         style="fill:#393536;fill-opacity:1;fill-rule:nonzero;stroke:none"
         id="path36"
         inkscape:connector-curvature="0" /><path
         d="m 5969.29,3389.69 -79.01,265.43 -66.83,0 0,-394.97 59.53,0 0,252.92 81.89,-252.92 63.95,0 0,394.97 -59.53,0 0,-265.43"
         style="fill:#393536;fill-opacity:1;fill-rule:nonzero;stroke:none"
         id="path38"
         inkscape:connector-curvature="0" /><path
         d="m 6121.03,3654.81 0,-59.84 63.31,0 0,-334.82 59.53,0 0,334.82 63,0 0,59.84 -185.84,0"
         style="fill:#393536;fill-opacity:1;fill-rule:nonzero;stroke:none"
         id="path40"
         inkscape:connector-curvature="0" /><path
         d="m 8541.29,4254.92 c -2.74,7.93 -4.1,16.2 -4.1,24.47 0,8.27 1.36,16.54 4.1,24.46 l 242.61,704.12 c 1.72,5 2.5,9.95 2.5,14.78 0.01,11.87 -4.83,23.19 -12.94,31.49 -8.13,8.29 -19.19,13.49 -32.2,13.52 l -899.47,0 0,-1266.87 c 0.03,-29.3 -12.01,-56.28 -31.24,-75.43 -19.14,-19.22 -46.13,-31.27 -75.42,-31.24 l 0,50 0,-50 -20.45,0 0,-158.1 c 0.01,-12.5 5.03,-23.68 13.21,-31.89 8.21,-8.18 19.39,-13.2 31.89,-13.21 l 981.48,0 c 13.01,0.02 24.07,5.23 32.2,13.52 8.11,8.3 12.95,19.62 12.94,31.5 0,4.82 -0.78,9.77 -2.5,14.77 l -242.61,704.11 z m -6688.47,-460.7 5882.31,0 c 2,0.03 3.35,0.67 4.71,1.95 1.29,1.37 1.93,2.72 1.95,4.72 l 0,1493.39 c -0.02,2 -0.66,3.35 -1.95,4.72 -1.36,1.28 -2.72,1.93 -4.71,1.95 l -5882.31,0 c -2,-0.02 -3.35,-0.67 -4.72,-1.95 -1.28,-1.37 -1.93,-2.72 -1.95,-4.72 l 0,-1493.39 c 0.02,-2 0.67,-3.35 1.95,-4.72 1.37,-1.28 2.72,-1.92 4.72,-1.95 z m -75.43,-68.76 c -19.23,19.15 -31.27,46.13 -31.24,75.43 l 0,1266.87 -687.41,0 c -13.01,-0.03 -24.07,-5.23 -32.21,-13.52 -8.1,-8.3 -12.95,-19.62 -12.94,-31.5 0.01,-4.82 0.79,-9.76 2.51,-14.77 l 242.61,-704.12 c 2.74,-7.92 4.1,-16.19 4.1,-24.46 0,-8.27 -1.36,-16.54 -4.1,-24.46 L 1016.1,3550.81 c -1.72,-5 -2.5,-9.95 -2.51,-14.77 -0.01,-11.88 4.84,-23.2 12.95,-31.5 8.13,-8.29 19.19,-13.5 32.2,-13.52 l 981.48,0 c 12.5,0.01 23.68,5.03 31.89,13.21 8.18,8.21 13.2,19.39 13.21,31.89 l 0,158.1 -232.5,0 c -29.3,-0.03 -56.28,12.02 -75.43,31.24"
         style="fill:#393536;fill-opacity:1;fill-rule:nonzero;stroke:none"
         id="path42"
         inkscape:connector-curvature="0" /><path
         d="m 8773.46,3504.54 c -8.13,-8.29 -19.19,-13.5 -32.2,-13.52 l -981.48,0 c -12.5,0.01 -23.68,5.03 -31.89,13.21 -8.18,8.21 -13.2,19.39 -13.21,31.89 l 0,158.1 20.45,0 0,50 0,-50 c 29.29,-0.03 56.28,12.02 75.42,31.24 19.23,19.15 31.27,46.13 31.24,75.43 l 0,1266.87 899.47,0 c 13.01,-0.03 24.07,-5.23 32.2,-13.52 8.11,-8.3 12.95,-19.62 12.94,-31.49 0,-4.83 -0.78,-9.78 -2.5,-14.78 l -242.61,-704.12 c -2.74,-7.92 -4.1,-16.19 -4.1,-24.46 0,-8.27 1.36,-16.54 4.1,-24.47 l 242.61,-704.11 c 1.72,-5 2.5,-9.95 2.5,-14.77 0.01,-11.88 -4.83,-23.2 -12.94,-31.5 z m -6920.64,289.68 c -2,0.03 -3.35,0.67 -4.72,1.95 -1.28,1.37 -1.93,2.72 -1.95,4.72 l 0,1493.39 c 0.02,2 0.67,3.35 1.95,4.72 1.37,1.28 2.72,1.93 4.72,1.95 l 5882.31,0 c 1.99,-0.02 3.35,-0.67 4.71,-1.95 1.29,-1.37 1.93,-2.72 1.95,-4.72 l 0,-1493.39 c -0.02,-2 -0.66,-3.35 -1.95,-4.72 -1.36,-1.28 -2.71,-1.92 -4.71,-1.95 l -5882.31,0 z m 232.5,-258.1 c -0.01,-12.5 -5.03,-23.68 -13.21,-31.89 -8.21,-8.18 -19.39,-13.2 -31.89,-13.21 l -981.48,0 c -13.01,0.02 -24.07,5.23 -32.2,13.52 -8.11,8.3 -12.96,19.62 -12.95,31.5 0.01,4.82 0.79,9.77 2.51,14.77 l 242.61,704.12 c 2.74,7.92 4.1,16.19 4.1,24.46 0,8.27 -1.36,16.54 -4.1,24.46 l -242.61,704.12 c -1.72,5.01 -2.5,9.95 -2.51,14.77 -0.01,11.88 4.84,23.2 12.94,31.5 8.14,8.29 19.2,13.49 32.21,13.52 l 687.41,0 0,-1266.87 c -0.03,-29.3 12.01,-56.28 31.24,-75.43 19.15,-19.22 46.13,-31.27 75.43,-31.24 l 232.5,0 0,-158.1 z m 6484.33,728.58 -14.18,-4.89 14.18,4.89 c -1.64,4.76 -2.46,9.73 -2.46,14.69 0,4.97 0.82,9.93 2.46,14.68 l 242.61,704.13 c 2.81,8.14 4.15,16.44 4.14,24.55 -0.01,20.03 -8.07,38.72 -21.46,52.44 -13.36,13.74 -32.37,22.59 -53.68,22.56 l -899.47,0 0,196.53 c 0.03,29.3 -12.01,56.29 -31.24,75.43 -19.14,19.23 -46.13,31.27 -75.42,31.24 l -5882.31,0 c -29.3,0.03 -56.29,-12.01 -75.43,-31.24 -19.23,-19.14 -31.27,-46.13 -31.24,-75.43 l 0,-196.53 -687.41,0 c -21.31,0.03 -40.32,-8.82 -53.68,-22.56 -13.384,-13.73 -21.451,-32.41 -21.466,-52.45 0,-8.1 1.34,-16.4 4.144,-24.54 l 242.612,-704.12 c 1.64,-4.76 2.46,-9.72 2.46,-14.69 0,-4.97 -0.82,-9.93 -2.46,-14.69 L 987.738,3560.58 c -2.804,-8.14 -4.144,-16.44 -4.144,-24.54 0.015,-20.03 8.082,-38.73 21.466,-52.45 13.36,-13.74 32.37,-22.59 53.68,-22.57 l 981.48,0 c 41.48,0.01 75.09,33.62 75.1,75.1 l 0,158.1 5569.36,0 0,-158.1 c 0.01,-41.48 33.62,-75.09 75.1,-75.1 l 981.48,0 c 21.31,-0.02 40.32,8.83 53.68,22.57 13.39,13.72 21.45,32.42 21.46,52.45 0.01,8.1 -1.33,16.4 -4.14,24.54 l -242.61,704.12"
         style="fill:#ffffff;fill-opacity:1;fill-rule:nonzero;stroke:none"
         id="path44"
         inkscape:connector-curvature="0" /><path
         d="m 3083.23,4628.53 c 0,-20.09 -7.03,-37.26 -21.09,-51.54 -14.05,-14.29 -31.12,-21.43 -51.2,-21.43 l -76.31,0 0,268.42 76.31,0 c 21.86,0 39.38,-6.69 52.55,-20.08 13.15,-13.38 19.74,-31.01 19.74,-52.88 l 0,-122.49 z m -75.64,324.64 -199.47,0 0,-838.72 126.51,0 0,315.95 72.96,0 c 54.89,0 101.63,19.63 140.24,58.9 38.59,39.26 57.9,86.57 57.9,141.91 l 0,121.82 c 0,57.57 -16.97,104.87 -50.88,141.91 -36.59,38.83 -85.68,58.23 -147.26,58.23"
         style="fill:#ffffff;fill-opacity:1;fill-rule:nonzero;stroke:none"
         id="path46"
         inkscape:connector-curvature="0" /><path
         d="m 3401.03,4114.45 126.508,0 0,838.723 -126.508,0 0,-838.723 z"
         style="fill:#ffffff;fill-opacity:1;fill-rule:nonzero;stroke:none"
         id="path48"
         inkscape:connector-curvature="0" /><path
         d="m 4150.93,4953.85 -134.88,0 -154.63,-299.21 0,299.21 -126.51,0 0,-839.4 126.51,0 0,266.07 37.86,74.72 132.83,-340.79 148.72,0 -203.07,497.02 173.17,342.38"
         style="fill:#ffffff;fill-opacity:1;fill-rule:nonzero;stroke:none"
         id="path50"
         inkscape:connector-curvature="0" /><path
         d="m 4378.04,4114.45 360.12,0 0,127.18 -233.61,0 0,228.92 170.69,0 0,127.19 -170.69,0 0,228.93 233.61,0 0,127.18 -360.12,0 0,-839.4"
         style="fill:#ffffff;fill-opacity:1;fill-rule:nonzero;stroke:none"
         id="path52"
         inkscape:connector-curvature="0" /><path
         d="m 5100.67,4114.45 126.52,0 0,356.1 170.69,0 0,127.19 -170.69,0 0,228.93 233.61,0 0,127.18 -360.13,0 0,-839.4"
         style="fill:#ffffff;fill-opacity:1;fill-rule:nonzero;stroke:none"
         id="path54"
         inkscape:connector-curvature="0" /><path
         d="m 5642.06,4114.45 126.512,0 0,838.723 -126.512,0 0,-838.723 z"
         style="fill:#ffffff;fill-opacity:1;fill-rule:nonzero;stroke:none"
         id="path56"
         inkscape:connector-curvature="0" /><path
         d="m 6348.78,4443.11 c -16.96,30.34 -41.06,61.14 -72.29,92.38 -9.37,9.81 -28.78,26.99 -58.24,51.54 -24.99,20.52 -43.74,38.37 -56.22,53.54 -33.04,39.72 -49.54,78.76 -49.54,117.15 0,24.53 4.91,45.07 14.73,61.58 12.05,20.52 29.67,30.8 52.88,30.8 21.86,0 38.59,-6.93 50.2,-20.76 16.07,-19.19 25.88,-45.96 29.46,-80.32 l 121.15,22.09 c -3.13,36.58 -12.38,68.95 -27.78,97.05 -15.4,28.12 -35.59,49.98 -60.57,65.61 -32.14,20.08 -70.74,30.11 -115.81,30.11 -46.86,0 -86.12,-11.83 -117.8,-35.5 -51.33,-39.31 -76.99,-97.15 -76.99,-173.53 0,-42.43 9.38,-81.74 28.12,-117.91 17.4,-32.17 47.08,-68.57 89.02,-109.22 49.98,-47.34 87.46,-82.85 112.46,-106.52 31.68,-34.39 47.52,-69.01 47.52,-103.85 0,-24.11 -4.24,-42.65 -12.71,-55.59 -16.52,-26.36 -38.61,-39.99 -66.27,-40.88 -19.64,-0.9 -37.04,6.96 -52.21,23.55 -20.54,21.98 -33.47,57.41 -38.83,106.31 l -120.49,-8.7 c 2.69,-44.63 11.94,-84.24 27.79,-118.82 15.83,-34.58 37.37,-61.91 64.59,-81.99 32.57,-24.55 73.63,-36.82 123.16,-36.82 26.78,0 50.21,3.13 70.29,9.37 37.48,11.6 66.49,31.46 87.02,59.58 31.23,41.5 46.4,91.47 45.51,149.94 -0.45,23.64 -6.69,50.42 -18.74,80.32 -4.91,12.05 -11.37,25.21 -19.41,39.49"
         style="fill:#ffffff;fill-opacity:1;fill-rule:nonzero;stroke:none"
         id="path58"
         inkscape:connector-curvature="0" /><path
         d="m 6865.38,4953.17 0,-356.1 -152.62,0 0,356.1 -126.51,0 0,-838.72 126.51,0 0,355.44 152.62,0 0,-355.44 126.51,0 0,838.72 -126.51,0"
         style="fill:#ffffff;fill-opacity:1;fill-rule:nonzero;stroke:none"
         id="path60"
         inkscape:connector-curvature="0" /><path
         d="m 2024.87,6538.25 9.87,9.34 -5.57,85.01 -6.04,-5.5 1.74,-88.85 z M 5849.86,4660.46 c -49.62,0 -98.77,26.09 -138.26,47.05 -7.74,4.11 -15.04,7.99 -21.72,11.29 -74.1,36.57 -145.92,77.71 -207.41,113.4 -18.92,10.98 -38.61,24.72 -57.67,38.01 -33.54,23.4 -68.24,47.59 -97.22,56.4 -11.17,3.4 -26.73,5.12 -46.27,5.12 -24.07,0 -51.05,-2.54 -77.14,-5 -25.92,-2.45 -50.4,-4.75 -73.04,-4.83 l -20.47,-0.04 c -88.54,0 -193.22,2.05 -298.27,17.23 -361.04,52.14 -721.45,143.27 -1069.99,231.4 l -25.33,6.4 c -3.91,-33.66 -16.91,-58.24 -29.92,-75.03 -29.19,-37.66 -77.17,-59.27 -131.63,-59.27 -41.87,0 -84.2,12.21 -122.4,35.33 -45.17,27.32 -89.88,64.09 -136.23,112.08 -9.39,0.9 -18.49,2.35 -26.88,3.7 l -7.08,1.12 c -91.59,13.98 -178.76,67.4 -233.16,142.9 -36.58,50.78 -55.69,106.67 -74.17,160.72 -7.53,22.02 -14.69,42.96 -22.86,63.17 l -14.11,13.33 c -26.02,24.64 -52.94,50.12 -79.89,74.09 -7.01,6.24 -13.74,12.87 -20.26,19.3 -11.39,11.22 -23.16,22.83 -33.04,28.73 -11.86,7.08 -20.28,8.76 -37.05,12.11 -8.89,1.77 -18.97,3.79 -30.92,6.99 -42.19,11.3 -69.55,32.69 -93.7,51.58 -11.37,8.89 -22.11,17.3 -33.95,24.28 -13.78,8.11 -33.48,14.15 -54.33,20.53 -19.24,5.89 -39.13,11.98 -58.21,20.81 -72.16,33.39 -128.29,82.49 -182.57,129.97 -44.3,38.74 -86.15,75.34 -134.88,102.36 -51.88,28.77 -109.9,43.82 -171.33,59.75 -68.06,17.65 -138.43,35.91 -203.71,74.45 -95.43,56.36 -182.29,139.14 -238.31,227.12 l -2.67,4.17 c -16.74,26.05 -44.77,69.65 -8.16,126.59 21.88,34.04 54.6,52.79 92.14,52.79 50.18,0 96.42,-32.35 133.57,-58.35 9.44,-6.6 18.35,-12.83 24.94,-16.73 32.22,-19.12 68.49,-30.62 110.41,-34.99 15.06,12.76 28.81,26.27 41.03,40.3 l 60.12,69.03 -12.3,63.25 -31.1,-38.13 -33.91,143.5 c -32.74,21.82 -63.4,48.56 -68.21,86.38 -3.06,24.01 5.41,47.82 23.84,67.08 24.62,25.71 59.31,38.74 103.12,38.74 47.72,0 99.65,-15.69 137.56,-27.15 12.39,-3.75 23.1,-6.98 31.32,-8.99 32.93,-8.09 66.29,-16.89 98.55,-25.4 84.86,-22.4 172.61,-45.56 258.66,-57.05 30.21,-4.03 61.03,-4.43 93.66,-4.84 36.06,-0.45 73.35,-0.92 111.86,-6.51 106.54,-15.44 220.33,-43.73 347.87,-86.48 145.02,-48.61 284.48,-114.03 419.35,-177.29 89.91,-42.17 182.85,-85.76 275.76,-123.5 l 412.42,-144.16 1.42,-0.58 c 29.37,-12.34 60.61,-24.9 95.47,-38.4 383.42,-122.2 698.92,-179.11 992.82,-179.1 79.34,0 157.65,4.4 232.76,13.08 187.91,21.7 332.9,52.43 455.57,96.58 27.4,19.19 51.94,41.65 80.07,68.43 27.35,50.68 49.12,104.99 72.12,162.34 17.54,43.76 35.69,88.99 56.5,132.3 10.18,21.19 20.47,45.38 31.35,71 30.22,71.09 64.48,151.66 113.86,207.1 21.41,24.01 49.71,36.7 81.86,36.7 28.02,0 54.82,-9.48 78.45,-17.84 6.47,-2.29 12.95,-4.59 19.42,-6.65 141.04,-45 367.83,-172.24 414.45,-338.34 9.23,-32.9 13.68,-76.36 -1.05,-125.02 211.87,48.37 279.43,132.33 311.81,194.67 63.21,121.67 83.99,267.64 104.09,408.8 6.89,48.46 14.03,98.57 22.77,146.78 36.19,199.44 115.28,322.42 241.82,375.96 l 4.07,1.75 c 23.7,10.24 51.08,21.17 76.15,21.17 7.94,0 15.49,-1.1 22.43,-3.23 63.58,-19.68 69.36,-91.1 72.8,-133.77 0.82,-10.11 1.6,-19.65 2.76,-25.68 13.87,-71.95 39.06,-137.96 65.74,-207.84 37.45,-98.13 76.18,-199.62 80.17,-317.12 2.5,-73.62 -1.44,-152.02 -12.03,-239.67 l -0.34,-2.72 c -2.1,-17.41 -4.27,-35.39 -3.63,-41.54 3.57,-4.88 16.79,-16.35 29.58,-27.48 l 3.78,-3.28 c 53.28,-46.36 120.81,-109.47 170.54,-186.54 27.16,-42.08 45.08,-86.44 62.42,-129.34 17.37,-43 33.79,-83.63 58.38,-119.9 3.1,-4.59 10.42,-12.82 17.5,-20.78 30.37,-34.18 86.91,-97.79 45.63,-158.4 -21.46,-31.51 -63.86,-40.62 -105.44,-47.25 l -6.17,-1.01 c -26.07,-4.5 -53.4,-6.79 -81.21,-6.79 l -0.05,0 c -113.65,0 -223.82,37.02 -330.36,72.82 -60.76,20.42 -118.16,39.69 -174.41,51.76 -44.78,9.6 -88.72,14.48 -130.63,14.48 -97.33,0 -182.56,-25.54 -253.96,-76.02 100.6,-28.33 170.01,-96.43 192.33,-193.1 21.74,-94.1 8.52,-222.25 -33.67,-326.48 -23.36,-57.69 -62.12,-69.8 -90.53,-69.8 -19.52,0 -37.51,5.39 -56.55,11.1 -6,1.8 -12.33,3.7 -19,5.48 l -235.1,62.73 c -15.61,4.16 -33.4,10.74 -52.24,17.71 -30.84,11.39 -69.23,25.57 -91.17,25.57 l -1.12,-0.02 c -6.54,-3.46 -19.52,-14.06 -26.75,-19.98 -8.53,-6.95 -16.58,-13.53 -24.57,-18.75 -55.74,-36.34 -114.84,-68.59 -175.68,-95.82 -68.64,-30.71 -140.23,-54.72 -209.46,-77.94 -54.71,-18.35 -111.28,-37.32 -164.73,-59.16 -82.32,-33.63 -169.42,-71.66 -264.69,-115.59 29.76,-48.57 33.42,-107.82 36.56,-158.59 l 1.31,-20.21 c 4.14,-60.05 15.12,-219.55 -102.25,-236.12 -5.95,-0.84 -12.15,-1.27 -18.42,-1.27"
         style="fill:#ffffff;fill-opacity:1;fill-rule:nonzero;stroke:none"
         id="path62"
         inkscape:connector-curvature="0" /><path
         d="m 2792.81,6499.22 c -92.13,-136.49 -210.18,23.02 -284.11,83.64 -114.05,93.51 -251.59,160.12 -391.41,205.34 31.02,-22.6 62.82,-44.02 94.93,-64.98 70.49,-81.92 113.01,-222.54 228.97,-236.31 -40.43,38.62 -71.24,103.51 -108.81,158.92 53.34,-34.71 105.91,-70.56 155.49,-110.81 51.27,-41.61 102.68,-107.36 171.33,-117.48 55.64,-8.2 118.37,25.75 133.61,81.68"
         style="fill:#393536;fill-opacity:1;fill-rule:nonzero;stroke:none"
         id="path64"
         inkscape:connector-curvature="0" /><path
         d="m 3129.7,6502.18 c -34.09,45.72 -87.47,76.14 -154.71,73.16 99.55,-28.39 166.67,-123.49 146.7,-223.41 -12.45,18.91 -28.12,34.75 -39.43,41.07 -37.13,20.74 -79.35,18.56 -120.79,19.78 28.01,37.96 31.95,91.69 -6.29,128.99 11.68,-37.62 5.44,-72.56 -19.6,-99.73 -30.5,-8.14 -74.42,-12.43 -85.41,-39.44 -36.31,-10.45 -74.82,-14.58 -117.76,-12.79 43.12,-52.22 121.24,-52.74 176.27,-19.5 2.87,-0.98 5.93,-1.94 9.37,-2.91 44.11,-12.37 95.82,3.12 137.98,-11.98 18.87,-5.12 46.15,-18.69 52.36,-36.43 0.75,-1.5 1.28,-3.1 1.89,-4.66 -53.52,-130.26 -219.45,-134.31 -330.68,-71.07 51.41,-57.8 127.07,-83.73 198.52,-77.23 -37.67,-21.38 -77.25,-39.16 -119.04,-51.71 -73.43,-22.04 -150.92,-28.33 -226.49,-14.47 -76.58,14.05 -148.66,49.06 -227.42,51.32 42.89,-15.07 82.42,-32.47 120.87,-48.77 -72.36,7.3 -142.46,18.37 -214.45,35.62 29.5,-52.97 92.97,-81.95 154.81,-81.7 15.71,-44.19 135.12,-51.93 164.49,-40 -32.21,19.48 -68.73,31.79 -106.17,35.78 l -26.58,7.03 c 24.08,4.2 46.91,13.21 66.22,27.41 16.1,-6.44 32.14,-12.46 48.29,-17.82 29.74,-53.17 105.57,-66.54 151.2,-23.31 8.29,0.39 16.68,1.03 25.24,2.04 72.4,-29.26 132.16,-88 210.04,-104.79 82.59,-17.82 175.01,22.55 218.06,95.26 -76.59,-36.23 -168.6,-28.92 -238.78,17.93 -21.41,14.29 -32.34,27.94 -42.84,36.91 24.41,12.29 47.75,26.67 69.83,42.84 79.12,-24.74 170.54,-9.72 236.75,40.3 -92,43.14 83.83,120.81 54.13,24.01 68.19,131.56 -57.66,250.46 -166.58,302.27"
         style="fill:#393536;fill-opacity:1;fill-rule:nonzero;stroke:none"
         id="path66"
         inkscape:connector-curvature="0" /><path
         d="m 3562.68,5576.55 c 8.1,-65.87 66.25,-118.26 134.03,-117.14 -6.61,18.79 -15.94,36.75 -27.28,53.37 100.68,-48.26 213.34,-72.16 319.3,-62.95 -196.57,66.59 -373.95,147.29 -552.9,252.44 34.42,-47.39 77.76,-89.75 126.85,-125.72"
         style="fill:#393536;fill-opacity:1;fill-rule:nonzero;stroke:none"
         id="path68"
         inkscape:connector-curvature="0" /><path
         d="m 2978.36,5947.14 c -2.41,0.52 -4.13,0.89 -5.21,1.12 1.17,-0.25 3,-0.65 5.21,-1.12"
         style="fill:#393536;fill-opacity:1;fill-rule:nonzero;stroke:none"
         id="path70"
         inkscape:connector-curvature="0" /><path
         d="m 2981.7,5946.42 c -1.2,0.25 -2.3,0.49 -3.34,0.72 1,-0.22 2.08,-0.45 3.34,-0.72"
         style="fill:#393536;fill-opacity:1;fill-rule:nonzero;stroke:none"
         id="path72"
         inkscape:connector-curvature="0" /><path
         d="m 2988.94,5944.86 c -2.58,0.55 -5.03,1.08 -7.24,1.56 2.05,-0.45 4.46,-0.96 7.24,-1.56"
         style="fill:#393536;fill-opacity:1;fill-rule:nonzero;stroke:none"
         id="path74"
         inkscape:connector-curvature="0" /><path
         d="m 3000.85,5942.28 -1.72,0.38 c -2.74,0.59 -5.22,1.12 -7.49,1.61 3.04,-0.65 6.15,-1.32 9.21,-1.99"
         style="fill:#393536;fill-opacity:1;fill-rule:nonzero;stroke:none"
         id="path76"
         inkscape:connector-curvature="0" /><path
         d="m 3000.85,5942.28 c 2.16,-0.46 4.18,-0.9 5.98,-1.28 -1.91,0.41 -3.94,0.85 -5.98,1.28"
         style="fill:#393536;fill-opacity:1;fill-rule:nonzero;stroke:none"
         id="path78"
         inkscape:connector-curvature="0" /><path
         d="m 3021.67,5937.8 c -0.57,0.12 -1.72,0.37 -3.51,0.75 1.66,-0.36 2.89,-0.62 3.51,-0.75"
         style="fill:#393536;fill-opacity:1;fill-rule:nonzero;stroke:none"
         id="path80"
         inkscape:connector-curvature="0" /><path
         d="m 2636.01,5986.31 c 7.3,-24.56 34.22,-33.77 57.05,-35.18 10.64,-3.14 20.17,-1.96 28.58,3.55 11.16,30.94 -73.65,35.75 -85.63,31.63"
         style="fill:#393536;fill-opacity:1;fill-rule:nonzero;stroke:none"
         id="path82"
         inkscape:connector-curvature="0" /><path
         d="m 2487.52,6006.81 c 11.4,-20.35 33.13,-34.54 56.34,-36.79 -7.26,23.19 -32.18,39.46 -56.34,36.79"
         style="fill:#393536;fill-opacity:1;fill-rule:nonzero;stroke:none"
         id="path84"
         inkscape:connector-curvature="0" /><path
         d="m 2851.86,5887.65 c -14.08,34.25 -54.02,55.67 -90.34,48.45 13.19,-34.87 53.99,-56.75 90.34,-48.45"
         style="fill:#393536;fill-opacity:1;fill-rule:nonzero;stroke:none"
         id="path86"
         inkscape:connector-curvature="0" /><path
         d="m 2776.93,6276.34 c 94.64,-81.08 244.47,-63.28 316.77,39.48 -39.35,27.5 -91.02,37.87 -137.93,27.71 l -42.74,7.96 c -24.04,-20.25 -51.16,-37 -80,-49.81 -45.34,10.62 -89.25,27.53 -129.82,50.25 l -47.68,28.34 c 36.76,-44.83 76.41,-85.52 121.4,-103.93"
         style="fill:#393536;fill-opacity:1;fill-rule:nonzero;stroke:none"
         id="path88"
         inkscape:connector-curvature="0" /><path
         d="m 2553.37,6151.13 c 9.71,-4.8 19.88,-8.37 30.26,-10.69 77.84,-42.55 174.82,-47.85 257.63,-16.36 0.04,-3.42 14.94,1.6 55.52,28.22 -56.09,-6.38 -107.21,44.48 -147.63,39.03 -12.42,-1.68 -24.23,-4.47 -35.75,-7.82 15.35,21.89 21.46,50.86 11.92,85.77 -40.58,-64.26 -112.31,-124.43 -193.85,-104.49 9.99,-7.8 17.27,-11.89 21.9,-13.66"
         style="fill:#393536;fill-opacity:1;fill-rule:nonzero;stroke:none"
         id="path90"
         inkscape:connector-curvature="0" /><path
         d="m 2447.12,6166.17 48.2,2.97 c -100.99,70.93 -156.19,103.52 -279.7,57.55 44.15,-0.97 55.87,-60.51 97.08,-68.21 46.2,-8.64 82.91,30.1 134.42,7.69"
         style="fill:#393536;fill-opacity:1;fill-rule:nonzero;stroke:none"
         id="path92"
         inkscape:connector-curvature="0" /><path
         d="m 4069.52,5334.75 c -18.2,28.71 -54.56,58.22 -86.19,71.34 4.82,-42.06 43.88,-74.47 86.19,-71.34"
         style="fill:#393536;fill-opacity:1;fill-rule:nonzero;stroke:none"
         id="path94"
         inkscape:connector-curvature="0" /><path
         d="m 7617.83,6099.73 c 118.87,-3.19 225.6,-70.63 335.51,-115.94 -79.72,19.18 -158.53,50.92 -230.24,72.09 -59.96,17.7 -121.26,33.6 -182.9,43.19 9.32,5.6 18.34,12.59 26.99,21.47 6.31,6.48 12.59,15.78 18.48,26.96 100.8,22.02 207.51,6.9 299.03,-40.99 -83.09,56.49 -183.53,83.49 -283.4,78.09 4.73,14.02 8.65,29.06 11.42,44.28 124.84,29.41 253.97,23.88 375.51,-18.4 -116.83,53.44 -244.41,71.87 -371.25,56.42 0.25,6.99 0.16,13.83 -0.29,20.46 23.26,-1.93 69.59,25.55 90.81,33.16 -29.37,-3.22 -58.73,-6.43 -88.1,-9.64 -3.28,6.07 -7.2,11.73 -11.75,16.85 -1.42,3.18 -3.01,6.2 -4.79,9.04 2.97,10.19 5.14,20.54 6.39,31 34.19,8.08 65.77,25.89 89.71,51.73 -27.49,-13.81 -58.15,-19.68 -88.64,-16.58 -0.66,13.14 -2.52,26.24 -5.48,39.17 23.53,11.2 44.29,27.67 59.86,48.87 -20.99,-12.57 -44.55,-18.62 -68.59,-19.4 -2.38,6.53 -5.03,12.98 -7.96,19.31 29.56,18.02 56.16,40.73 78.18,67.51 -28.67,-18.37 -60.41,-31.63 -93.59,-39.11 -5.21,8.33 -10.88,16.36 -17,24.03 29.31,17.81 54.6,41.96 73.32,70.8 -28.33,-22.74 -62.68,-38.03 -98.62,-43.53 -4.37,4.04 -8.89,7.89 -13.53,11.58 61.89,61.3 107.28,137.75 129.79,222.17 -34.14,-80.6 -90.18,-150.5 -161.56,-201.11 l -2.12,1.12 c -4.97,5.21 -10.18,10.22 -15.75,14.84 -13.3,67.4 -8.62,137.4 13.38,202.62 -29.81,-55.3 -46.08,-116.81 -48.5,-179.28 -5.54,2.94 -11.22,5.63 -17,8.11 -3.25,48.69 -0.35,97.65 8.9,145.59 -19.53,-42.84 -33.64,-87.96 -42.37,-134.18 -12.44,3.25 -25.04,5.53 -37.63,6.72 21,70.44 34.18,143.76 46.37,214.99 30.11,176.06 28.46,492.36 248.67,550.36 1,-8.55 2.18,-17.08 3.39,-25.62 -125.01,-172.25 -198.85,-378.05 -210.83,-590.68 22.86,196.53 98.78,384.22 219.15,540.83 1.83,-9.63 3.78,-19.23 5.87,-28.81 -60.23,-105.03 -100.91,-219.57 -120.22,-339.34 27.5,104.56 71.93,203.11 131.4,292.84 3.08,-11.61 6.32,-23.17 9.78,-34.67 -34.01,-64.09 -58.45,-132.73 -72.75,-203.93 21.85,57.69 50.71,112.45 86.15,162.83 2.04,-5.9 4.03,-11.83 6.18,-17.7 2.92,-7.97 6.04,-15.83 9.25,-23.62 -106.28,-164.22 -84.18,-385.71 -214.35,-536.95 132.85,135.82 129.73,343.95 231.66,497.37 4.73,-10.36 9.52,-20.67 14.25,-30.98 -40.75,-68.4 -63.67,-146.5 -65,-226.32 11.58,68.95 39.49,134.22 81.09,190.05 5.56,-13.13 10.77,-26.41 15.41,-39.95 -56.78,-145.95 -67.08,-332.67 -209.87,-424.07 135.84,73.26 169.48,232.67 224.79,367.54 5.2,-28.81 8.35,-57.68 10.05,-86.59 -25.38,-81.51 -61.53,-159.4 -107.77,-231.23 41.66,48.81 78.07,101.82 109.12,157.86 -0.22,-12.26 -0.6,-24.51 -1.19,-36.76 -31.59,-81.86 -91.52,-151.11 -167.88,-195.02 64.62,26.97 120.7,70.89 163.02,125.8 -1.58,-17.71 -3.35,-35.4 -5.22,-53.08 -16.3,-58.38 -61.37,-106.87 -118.54,-128.3 42.96,8 81.6,30.21 111.18,61.25 -0.2,-1.79 -0.4,-3.58 -0.6,-5.37 -1.28,-11.64 -0.33,-22.42 2.29,-32.54 -18.82,-46.27 -78.39,-75.19 -120.87,-93.37 46.35,10.8 100.61,29.39 133.55,64.69 8.29,-13.07 19.33,-25.05 31.79,-36.44 -36.01,-8.14 -71.25,-19.56 -105.09,-34.44 45.19,8.22 91.25,10.82 137.06,7.89 8.76,-6.84 17.62,-13.61 26.28,-20.44 -71.35,-11.33 -138.7,-42.28 -204.23,-72.89 77.3,23.88 157.69,49.1 239.15,42.63 l 2.28,-2.26 c 14.03,-14.41 26.73,-29.46 38.44,-44.97 -69.8,12 -142.55,4.43 -208.41,-23.55 77.75,21.6 161.39,16.29 235.17,-15.19 5.77,-9.11 11.3,-18.33 16.63,-27.65 -33.03,6.56 -66.24,12.2 -99.65,16.57 40.04,-15.1 79.38,-31.94 118,-50.33 20.82,-40.02 39.4,-81.19 59.53,-121.78 -120.97,14.24 -241.54,57.25 -358.16,87.55 122.88,-44.35 248.59,-103.05 378.09,-126.21 7.45,-13.83 15.25,-27.52 23.54,-41 -69.66,-12.73 -142.26,-2.34 -205.87,29.39 65.89,-47.03 147.15,-68.53 227.63,-62.48 7.71,-10.93 15.87,-21.68 24.56,-32.18 -188.17,-43.82 -361.66,123.97 -550.49,117.25 z m -300.33,242.24 0.03,-0.03 c 7.3,-4.73 -37.94,-51.12 -61.32,-27.04 -17.65,18.17 46.62,34.92 61.19,27.12 l 0.1,-0.05 z M 3773.82,5738.65 c 39.65,-21.02 -2.24,-53.5 -26.19,-26.48 -19.99,22.57 4.75,37.89 26.19,26.48 -3.06,1.62 6.12,-3.24 0,0 z m 68,26.66 c 7.07,-17.42 -50.09,-22.07 -50.01,6.43 0.07,25.18 43.08,14.36 50.01,-6.43 -0.83,2.5 0.46,-1.12 0,0 z m 244.7,40.23 c 21.05,-5.1 -52.23,-23.04 -64.25,-22.05 -36.51,3.01 -73.7,22.91 -90.49,56.36 51.75,-7.23 104.52,-19.97 154.74,-34.31 -2.38,0.68 2.42,-0.59 0,0 z m 25.22,110.16 c 38.76,14.57 89.86,2.59 117.84,-28.19 -2.75,3.04 1.42,-1.39 0,0 4.44,-4.36 -91.34,-4.7 -117.84,28.19 z m 300.68,-281.05 c -2.03,2.48 1.03,-1.11 0,0 10.29,-11.06 -62.49,-19.36 -82,7.63 24.51,19.81 61.7,17.18 82,-7.63 z m -90.96,149.29 c -7.84,15.41 49.64,25.16 54.76,-5.51 4.07,-24.39 -45.88,-15.02 -54.76,5.51 1.07,-2.48 -0.57,1.12 0,0 z m 234.41,32.84 c 9.14,-17.18 -70.4,-15.89 -66.75,14.67 3.32,27.82 57.62,5.51 66.75,-14.67 -1.23,2.72 0.65,-1.23 0,0 z m 184.07,-109.37 c 18.84,-10.43 -33.15,-17.44 -41.15,-18.45 -33.2,-4.16 -71.6,3.04 -99.19,22.28 41.15,22.44 100.42,21.02 140.34,-3.83 -3.88,2.41 1.95,-1.08 0,0 z m 280.15,83.84 c 3.54,-0.76 7.03,-1.67 10.49,-2.74 -69.44,-35.75 -168.4,-32.65 -235.65,7.09 72.19,14.72 153.37,10.49 225.16,-4.35 -3.3,0.68 3.3,-0.64 0,0 z m 291.4,24.57 c 19.89,-7.39 -29.41,-22.3 -37.11,-24.54 -31.61,-9.21 -70.07,-7.97 -99.71,6.76 36.37,28.44 94.29,36.16 136.82,17.78 -4.15,1.79 2.06,-0.76 0,0 z m 252.13,31.3 c -31.22,-10.42 -69.68,-10.65 -99.83,2.93 35.2,29.81 92.76,39.75 135.93,23.02 -4.21,1.63 2.08,-0.69 0,0 20.14,-6.63 -28.5,-23.41 -36.1,-25.95 z m -82.86,-156.88 c 29.2,27.84 77.85,37.68 114.94,20.05 -3.61,1.71 1.79,-0.73 0,0 6.54,-2.67 -78.74,-40.05 -114.94,-20.05 z m 338.79,254.8 c 40.33,32.99 104.07,49.15 155.19,36.43 -4.91,1.22 2.43,-0.48 0,0 23.44,-4.66 -45.78,-31.56 -54.72,-34.19 -32.04,-9.45 -68.32,-11.8 -100.47,-2.24 z m 57.36,-183.86 c 12.95,-13.63 -32.82,-39.26 -44.06,-13.84 -9.83,22.21 29.74,30.82 44.06,13.84 -1.66,1.97 0.8,-0.85 0,0 z m 364.63,290.94 c 12.42,-3.4 -46.69,-49.73 -79.59,-36.36 12.85,30.14 48.07,47.21 79.59,36.36 -3.13,1.08 1.52,-0.41 0,0 z m 164.14,-99.83 c 7.5,-1.62 -67.49,-53.43 -106.04,-40.14 22.45,32.42 67.32,50.8 106.04,40.14 -3.78,1.04 1.84,-0.4 0,0 z m 152.77,160.47 c 18.02,-7.32 -43.33,-57.27 -60.18,-31.58 -15.34,23.38 40.24,41.22 60.18,31.58 -2.68,1.3 1.28,-0.52 0,0 z m 202.73,-15.68 c 14.38,-3.23 -31.57,-57.81 -59.75,-31.83 -27.59,25.42 40.03,37.63 59.75,31.83 -2.9,0.86 1.39,-0.31 0,0 z M 3548.67,5821.96 c -59.4,-29.34 -123.53,-48.79 -193.31,-58.69 30.02,23.43 54.22,53.42 68.24,87.73 24.02,19.88 46.64,41.44 67.47,64.64 6.81,-39.8 -6.6,-83.75 -34.53,-112.98 31.8,2.71 62.65,9.35 92.13,19.3 z m 3884.89,335.19 c -30.5,-3.61 -61.36,-14.4 -89.69,-29.07 -4.39,-0.34 -8.76,-0.77 -13.06,-1.41 -25.71,-3.84 -50.52,-10.99 -73.98,-20.92 62.81,37.03 127.95,70.4 196.68,98.14 -296.97,-98 -528.97,-305.75 -789.38,-470.01 -389.91,-245.92 -828.91,-409.79 -1286.88,-468.32 -243.54,-31.13 -488.98,-36.31 -733.27,-10.84 -230.28,24.02 -463.93,68.98 -659.53,199.91 208.42,-159.99 476.15,-215.95 732.59,-242.6 465.47,-48.38 940.91,15 1378.11,181.86 242.42,92.52 471.92,218.31 681.81,370.72 133.21,96.74 261.26,200.72 398.29,290.34 -10.94,-9.44 -21.28,-19.58 -30.8,-30.48 -68.54,-43.43 -152.47,-107.86 -152.07,-154.54 -67.15,-93.19 -120.18,-204.32 -184.25,-283.62 104.69,56.32 167.95,156.36 234.71,253.63 24.29,0.24 50.94,4.11 61.69,3.18 20.53,-1.77 41.37,-5.24 61.28,-11.14 -43.34,-11.96 -86.68,-23.92 -130.01,-35.88 59.94,4.54 119.89,9.08 179.84,13.62 11.28,-7.23 21.63,-15.88 30.72,-26.17 -66.62,-1.94 -132.93,-11.08 -197.4,-28.38 73.61,6.84 147.81,4.43 220.7,-7.88 3.12,-6.88 5.72,-13.98 7.92,-21.25 -72.46,2.33 -144.93,4.65 -217.39,6.98 74.94,-13.95 149.87,-27.9 224.81,-41.84 1.48,-11.44 2.13,-23.09 2.24,-34.78 -93.71,2.45 -186.97,14.77 -278.04,37.13 89.28,-34.47 182.14,-58.88 276.69,-73.41 -0.75,-9.28 -1.75,-18.49 -2.94,-27.54 -99.71,7.95 -198.36,26.75 -293.92,56.43 92.41,-41.25 189.27,-71.83 288.44,-91.78 -0.17,-0.98 -0.34,-1.99 -0.51,-2.97 -1.49,-8.37 -3.52,-23.12 -6.38,-39.16 -65.96,15.25 -131.91,30.5 -197.87,45.75 63.39,-26.99 126.77,-53.98 190.15,-80.96 -4.84,-17.39 -11.06,-31.66 -19.13,-35.25 -15.11,-6.75 -74.09,19.77 -90.35,24.1 -47.92,12.79 -95.83,25.57 -143.75,38.36 -62.67,16.72 -153.92,61.23 -219.14,58.47 -27.29,-1.15 -40.69,-16 -62.47,-31.49 -52.52,-37.35 -108.67,-70.03 -166.63,-98.15 -134.62,-65.31 -283.01,-101.08 -421.46,-158.27 -90.74,-37.49 -182.15,-75.87 -271.03,-118.33 -152.67,-45.01 -305.22,-87.27 -460.39,-127.16 119.71,-15.7 248.34,-1.46 368.01,37.74 17.25,-18.71 56.44,-18.87 72.39,-42.14 7.27,-10.62 8.21,-32.9 10.45,-44.94 8.05,-43.34 39.29,-207.55 -15.45,-219.51 -22.38,-4.89 -71.15,27.33 -89.92,36.26 -68.31,32.48 -134.4,69.88 -199.93,107.56 -72.53,41.7 -157.35,122.29 -243.04,121.93 -212.12,-0.88 -412.01,-5.72 -621.39,32.63 -229.76,42.09 -457.64,94.98 -684.83,149.07 -91.51,21.79 -182.92,44.05 -274.2,66.76 -26.33,6.55 -65.15,24.23 -96.38,26.51 -50.22,188.87 -202.4,366.53 -413.5,321.85 125.09,-18.29 214.66,-81.68 282.23,-167.46 -22,9.53 -43.4,20.4 -64.02,32.67 26.29,-29.12 55.61,-55.42 87.23,-78.63 3.97,-8.78 7.84,-17.63 11.6,-26.57 -45.12,24.76 -87.53,54.29 -126.15,88.47 42.44,-53.72 92.18,-101.27 147.95,-140.99 1.37,-3.01 2.84,-6.2 4.35,-9.48 -69.96,39.35 -134.11,88.59 -189.92,146.48 59.09,-79.47 132.16,-147.76 214.93,-202.05 1.23,-2.93 2.45,-5.88 3.66,-8.85 -99.62,54 -187.58,126.64 -260.05,214.49 72.59,-107.11 167,-196.64 277.35,-263.69 1.01,-3.63 1.95,-7.21 2.78,-10.74 -137.5,65 -253.28,168.49 -335.14,297.19 75.23,-140.79 189.31,-256.8 328.78,-333.67 -1.96,-3.64 -4.41,-7.02 -7.46,-10.07 -162.35,91.27 -298.99,219.92 -400.13,376.82 87.88,-157.87 210.64,-291.44 359.17,-392.92 -54.26,-2.1 -112.1,53.66 -145.92,84.67 -67.04,61.47 -125.94,132.42 -180.99,204.63 -7.21,9.46 -14.31,20.67 -21.59,32.27 -3.99,7.96 -7.97,15.92 -11.76,24.02 -32.17,68.85 -58.55,167.87 -141.67,190.68 39.93,-35.24 55.87,-86.5 70.99,-137.44 -7.46,2.1 -14.68,4.3 -20,7.11 -89.93,47.58 -149.22,150.93 -228.81,217.57 24.37,-1.8 49.17,-0.98 73.01,1.9 -13.74,-4.28 -26.52,-10.24 -36.7,-17.43 47.54,-37.54 91.33,-80 130.31,-126.36 -1.69,27.13 -11.14,55.49 -26.06,78.22 28.85,23.58 73.55,-20.39 98.95,10.79 -36.09,-1.01 -56.45,46.82 -90.23,57.66 -10.65,3.41 -22.79,4.71 -35.34,4.27 11.05,2.56 21.62,5.55 31.55,8.9 96.9,-14.59 201.24,-57.53 258.89,61.88 -48.36,-22.27 -100.38,-36.97 -153.93,-34.74 -11.67,0.33 -24.02,1.55 -36.68,2.86 44.84,24.24 85.7,56.09 119.39,94.16 96.59,56.91 148.53,164.1 169.3,275.04 4.86,9.18 9.27,18.82 13.1,29.04 56.99,152.2 -58.99,304.7 -204.22,342.85 110.59,-67.38 214.63,-201.83 152.54,-335.77 -65.72,-141.74 -241.39,-148.77 -369.13,-102.6 102.49,-76.46 255.62,-81.47 351.35,-2.65 -51.15,-103.66 -127.12,-192.3 -251.53,-196.71 -113.55,-4.03 -213.19,98.6 -330.8,81.62 128.7,-18.4 221.91,-132.63 350.04,-128.03 -140.97,-76.82 -311.09,-116.23 -388.36,33.65 3.96,-35.14 17.54,-62.39 37.31,-83.19 -10.12,2 -20.13,4.81 -29.78,9.44 -19.56,9.39 -34.43,23.45 -51.33,36.38 -25.44,19.47 -39.04,26.23 -70.7,36.22 -146.99,46.41 -229.7,162.54 -355.02,241.03 -128.09,80.23 -287.35,76.54 -413.1,157.33 -58.13,37.34 -108.91,86.23 -153.23,138.97 -15.33,18.24 -71.52,71.02 -30.06,70.99 129.52,-66.93 208.68,-215.44 357.48,-250.7 127.15,-30.13 285.59,51.1 411.42,12.37 35.29,-49.99 80.54,-91.86 145.88,-88.67 51.13,2.5 102.87,39.97 104.72,94.35 2.65,77.88 -83.28,110.49 -132.67,151.72 11.87,-17.55 56.64,-65.51 80.99,-110 -8.71,10.82 -20.46,19.97 -31.94,25.8 -15.08,7.67 -37.01,5.37 -36.52,5.23 -38.96,11.43 -32.38,19.58 -55.81,58.85 -22.22,37.25 -55.4,53.36 -89.14,69.72 -19.95,27.05 -49.69,47.04 -82.75,53.4 16.09,-23.45 41.42,-49.37 66.75,-71.84 39.09,-60.73 55.63,-129.97 100.56,-191.38 12.8,-17.49 33.46,-30.12 55.31,-36.93 -65.92,14.75 -104.92,101.61 -137.66,152.81 -41.13,64.32 -90.01,124.58 -146.41,176.43 18.73,-12.29 41.55,-18.77 70.79,-16.36 -44.68,29.31 -50.65,85.48 -77.04,127.6 -21.04,33.6 -53.5,44.94 -75.57,75.1 l -53.27,26.62 c 47.5,-53.02 66.06,-140.59 110.15,-190.94 -7.02,5.91 -14.16,11.66 -21.39,17.3 -3.35,4.87 -6.59,9.79 -9.71,14.76 l 0.36,0.3 -0.75,0.32 c -17.29,27.69 -31.45,56.76 -47.4,85.56 -39.2,70.81 -98.47,125.86 -165.64,170.16 66.75,-7.37 132.45,-22.53 197.89,-39.75 29.79,-20.43 58.36,-43.89 87.29,-59.27 70.1,-37.25 156.73,-68.52 237.17,-56.85 81.55,11.84 142.36,51.39 224.33,8.13 70.05,-36.97 111.11,-115.83 108.9,-194.09 9.58,5.11 18,11.35 25.3,18.43 l -8.78,-32.73 c -15.29,-36.99 -46.76,-68.16 -83.95,-83.07 98.59,-19.07 206.48,109.61 125.06,175.91 7.06,35.14 -1.42,73.25 -25.69,101.2 22.33,-5.97 44.47,-12.35 66.43,-19.12 15.63,-26.22 23.28,-57.37 20.34,-87.53 70.25,7.22 143.2,-22.18 188.81,-76.11 7.01,32.6 -0.74,67.13 -18.53,95.18 21.77,-8.79 43.44,-17.8 65.04,-27.01 28.53,-28.17 65.7,-48.93 100.53,-44.1 50.21,-22.55 100.31,-45.62 150.65,-68.53 13.58,-15.5 23.64,-33.08 27,-52.81 4.83,-28.43 -4.88,-30.89 12.6,-52.58 8.62,-10.71 45.32,-24.29 57.15,-30.34 101.45,-51.82 205.93,-98.06 310.8,-142.49 58.52,-24.79 119.9,-50.93 182.98,-74.56 -191.85,53.04 -379.8,121.12 -564.31,201.44 97.67,-55.39 198.53,-104.74 301.82,-148.09 l -334.56,111.45 c 6.49,-187.23 -97.2,-348.36 -251.99,-447.12 64.38,0.93 128.58,24.99 177.7,66.59 -2.89,-36.73 -14.23,-73.01 -32.5,-105.17 -61.77,-31.43 -124.63,-58.93 -191.82,-83.24 36.12,-13.58 75.87,-15.2 114.37,-7.43 24.08,-26.59 86.28,-71.13 102.54,-44.66 13.01,21.18 -42.52,39.96 -80.17,50.27 19.36,5.82 38.15,13.95 55.69,24.14 168.43,-45.28 369.17,58.91 422.66,226.21 39.17,53.96 65.38,117.65 73.72,186.22 522.2,-206.5 1103.24,-260.55 1654.65,-154.84 108.99,11.45 217.26,30.04 323.81,55.54 73.03,17.47 175.68,31.99 241.22,71.19 89.62,53.62 120.32,215.05 159.91,303.43 44.39,99.11 89.34,234.97 159.24,319.2 20.43,24.61 28.3,25.61 50.61,18.59 -89.82,-146.19 -167.53,-299.4 -231.93,-458.51 76.14,156.41 165.58,305.81 267.01,447.07 8.04,-2.57 16.07,-5.14 24.05,-7.9 -76.54,-113.16 -144.55,-231.86 -202.97,-355.37 70.56,120.11 150.44,234.47 238.87,342.09 10,-3.91 19.94,-7.97 29.79,-12.25 -66.5,-95.68 -126.6,-195.75 -179.36,-299.66 63.99,99.72 135.14,194.71 212.47,284.47 13.48,-6.59 27.31,-13.84 41.2,-21.78 -49.25,-71.71 -96.25,-144.68 -140.93,-219.4 54.79,69.01 111.69,135.94 170.74,201.27 9.38,-6.08 18.65,-12.48 27.72,-19.19 -57.5,-78.07 -115,-156.14 -172.5,-234.21 67.07,70.41 134.13,140.82 201.19,211.23 10.31,-8.98 20.12,-18.44 29.28,-28.35 -62.03,-76.46 -124.07,-152.93 -186.1,-229.39 69.91,66.88 139.81,133.77 209.72,200.65 7.14,-9.94 13.51,-20.29 19.05,-31.02 -65.91,-58.5 -124.97,-124.45 -175.33,-196.83 56.54,61.67 120.05,116.59 189.04,163.81 3.86,-12.13 6.64,-24.68 8.04,-37.69 -45.83,-45.97 -91.67,-91.93 -137.5,-137.9 45.52,31.8 91.04,63.59 136.56,95.39 -8.34,-48.04 -42.75,-70.5 -78.05,-107.72 -3.61,-3.81 -6.98,-7.4 -9.98,-10.85 -16.17,-0.78 -32.35,-1.62 -48.5,-2.56 7.2,11.76 14.41,23.51 21.62,35.26 -21.62,-11.83 -43.25,-23.66 -64.88,-35.48 l 1.61,-2.52 c -9.54,-0.72 -19.06,-1.52 -28.56,-2.42 4.26,9.6 8.52,19.19 12.78,28.79 -17.48,-11.07 -34.96,-22.14 -52.44,-33.21 -6.13,-0.78 -12.27,-1.51 -18.39,-2.39 l -1.93,-0.29 c 13.85,23.9 27.71,47.8 41.56,71.71 -28.45,-26.22 -56.91,-52.45 -85.37,-78.67 -11.53,-1.97 -23.04,-4.03 -34.55,-6.25 23.58,39 47.15,78 70.73,117.01 -39.96,-41.75 -79.92,-83.49 -119.87,-125.24 l 1.57,-1.75 c -7.87,-1.77 -15.72,-3.61 -23.57,-5.51 26.73,45.45 56.5,89.09 89.49,130.25 -50.15,-43.54 -96.46,-91.36 -138.3,-142.93 -6.3,-1.76 -12.6,-3.52 -18.88,-5.36 21.84,52.51 47.76,103.29 78.12,151.42 -46.83,-51.08 -88.6,-106.64 -124.46,-165.95 -54.02,-18 -106.77,-39.45 -157.39,-64.89 152.56,27.76 303.77,59.91 457.66,80.14 10.81,1.42 21.73,2.72 32.72,3.96 -29.92,-7.2 -59.82,-14.5 -89.66,-22.05 -118.32,-29.94 -230.86,-83.49 -348.62,-111.2 -50.18,-11.8 -98.54,-5.75 -145.82,-20.39 -82.19,-25.46 -160.92,-60.36 -244.39,-83.38 -324.81,-89.56 -661.72,-108.26 -996.74,-85.32 -297.83,20.39 -626.41,51.64 -906.35,163.73 -4.29,-6.82 -8.53,-13.79 -12.76,-20.83 0.99,-3.16 2.1,-6.59 3.37,-10.36 12.04,-35.88 10.37,-58.59 41.13,-83.02 9.36,-7.44 104.76,-38.46 78.23,-43.17 2.77,0.49 -5.57,-1.23 0,0 -48.33,-10.67 -86,17.68 -129.66,14.04 -13.5,-1.13 -73.95,-44.47 -104.65,-64.84 -36.72,-54 -78.78,-102.75 -131.98,-136.62 51.18,-6.71 107.23,-41.12 135.85,-82.07 -3.05,4.37 1.59,-2.07 0,0 15.17,-19.73 -58.08,9.35 -66.83,13.73 -29.63,14.83 -57.72,36.25 -76.96,63.5 -19.38,-11.55 -40.16,-21.21 -62.72,-28.41 106.6,-183.91 334.11,-162.35 496.69,-251.85 252.51,-139 563.5,-173.47 846.3,-177.82 508.45,-7.83 1006.21,99.85 1463.51,322.44 221.04,107.59 411.36,245.36 611.13,384.73 118.44,82.62 254.28,150.54 381.35,218.84 17.29,9.3 36.51,18.77 55.34,29.1 68.26,4.06 134.51,-8.56 135.77,-66.11 55.74,50.67 22.38,140.03 -42.21,154.51 6.45,19.92 5.75,42.9 -5.72,70.02 -14.79,34.97 -35.66,64.45 -47.13,101.46 -4.12,13.32 -4.5,43.23 -12.4,54.16 -12.61,17.46 -51.3,27.77 -72.39,37.9 5.96,-103.37 -84.97,-163.07 -187.89,-200.96 51.51,33.3 95.57,76.46 128.68,135.94 17.25,30.98 31.41,63.52 43.43,96.96 3.34,-0.99 6.87,-2.01 10.82,-3.17 37.92,-11.12 74.56,-23.27 111.27,-35.99 67.44,-61.8 109.05,-135.34 128.43,-226.03 -8.73,4.14 -19.27,6.15 -31.7,5.72 -5.32,66.68 -41.94,131.4 -100.92,164.59 48.61,-47.49 55.52,-96.92 67.73,-159.24 2.89,-14.75 -6.42,-25.41 4.09,-39.21 13.99,-18.38 40.89,-3.7 54.98,-36.95 19.03,-44.93 -21.15,-129.31 -60.33,-152.42 -15.68,17.16 -64.72,18.58 -79.88,16.78 z M 3105.58,5455.11 c 21.78,-52.65 55.06,-99.56 96.45,-137.81 -40.04,23.05 -75.07,54.71 -101.37,93.12 -25.99,37.95 -43.9,81.75 -63.82,123.88 34.12,-26.64 74.83,-42.98 103.52,-70.11 7.72,-7.3 14.9,-15.75 21.79,-24.74 5.13,-10.56 10.63,-21.02 16.52,-31.32 -14.34,9.23 -28.15,19.28 -41.33,30.17 21.48,-30.31 46.77,-57.7 74.98,-81.75 11.58,-15.6 24.08,-30.51 37.46,-44.5 -59.71,33.46 -109.93,83.11 -144.2,143.06 z m -737.26,874.24 c 5.38,-9.4 10.96,-19.02 16.81,-28.65 -111.89,34.64 -265.05,-17.73 -369.04,1.98 -48.8,9.25 -91.6,32.99 -132.36,61.68 145.67,-86.24 321.68,11.32 484.59,-35.01 z m 2233.26,-248.22 c 152.33,-37.13 304.02,-66.97 458,-81.68 -121.62,-3.72 -243.81,-1.22 -366.64,8.29 -101.26,7.85 -201.38,20.36 -300.44,37.07 70.7,-0.88 140.87,9.59 209.08,36.32 z m 2500.68,209.41 c -3.44,0.7 1.66,-0.23 0,0 10.82,-1.51 -46.58,-57.73 -83.04,-47.45 12.23,32.44 48.34,54.47 83.04,47.45 z M 8163.3,6073.83 c -53.43,78.82 -70.62,171.47 -121.42,250.19 -43.04,66.69 -101.77,124.08 -161.35,175.93 -55.51,48.29 -55.01,45.95 -46.21,118.74 9.28,76.83 14.32,154.59 11.7,231.98 -6.39,188.18 -110.03,335.63 -145.04,517.19 -6.98,36.19 -0.08,108.39 -41.23,121.13 -17.18,5.32 -54,-11.87 -68.4,-17.96 -135.97,-57.52 -187.72,-204.43 -212.1,-338.83 -34.11,-188.02 -42,-397.06 -131.68,-569.7 -84.73,-163.12 -281.55,-215.53 -451.89,-239.92 191.29,220.44 -160.86,429.13 -332.91,484.01 -45.95,14.66 -93.18,40.33 -127.18,2.16 -60.5,-67.9 -98.5,-185.36 -137.48,-266.47 -47.45,-98.74 -80.55,-207.94 -133.53,-303.81 -31.16,-29.75 -61.64,-58.39 -97.17,-82.45 -150.11,-54.87 -315.56,-83.25 -472.89,-101.42 -416.67,-48.14 -842.46,39.17 -1247.95,168.52 -32.9,12.72 -65.67,25.8 -98.2,39.46 l -412.15,144.06 c -233.53,94.75 -454.32,220.06 -693.33,300.18 -110.27,36.96 -223.92,67.7 -339.15,84.4 -68.79,9.97 -136.89,2.18 -204.97,11.27 -122.4,16.35 -242.83,54.08 -362.5,83.44 -54.07,13.27 -173.73,63.88 -223.98,11.39 -30.75,-32.13 11.38,-62.37 52.26,-87.67 5.08,-21.5 10.16,-43.01 15.24,-64.52 9.79,12.01 19.59,24.02 29.38,36.02 1.83,-1.38 3.56,-2.75 5.08,-4.08 l 2.44,-2.29 c 4.74,-24.31 9.48,-48.62 14.21,-72.94 9.71,8.86 19.42,17.72 29.12,26.58 4.91,-6.2 9.62,-12.53 14.21,-18.95 1.91,-29.21 3.83,-58.42 5.75,-87.63 9.97,10.91 19.94,21.81 29.92,32.72 4.31,-7.15 8.6,-14.33 12.85,-21.53 2.06,-24.59 4.13,-49.19 6.19,-73.78 8.53,7.06 17.05,14.12 25.57,21.18 3.66,-5.82 7.4,-11.6 11.21,-17.33 1.02,-24.33 2.04,-48.67 3.06,-73 11.26,7.82 22.52,15.64 33.78,23.46 4.41,-5.19 8.92,-10.3 13.63,-15.29 -25.41,-6.58 -51.71,-13.54 -78.51,-20.1 -1.27,9.36 -2.54,18.73 -3.81,28.1 -16.5,-13.43 -33.01,-26.85 -49.5,-40.28 -6.75,-1.41 -13.52,-2.76 -20.3,-4.05 0.35,15.19 0.71,30.38 1.05,45.57 -19.19,-18.15 -38.38,-36.31 -57.57,-54.46 -11.6,-1.41 -23.19,-2.55 -34.75,-3.32 2.08,19.32 3.03,38.76 2.65,58.23 -18.9,-21.7 -40.03,-41.27 -62.75,-58.86 -53.12,2.81 -104.61,15.32 -151.91,43.37 -46.5,27.58 -135.2,112.77 -183.08,38.27 -20.4,-31.74 -5.33,-51.32 10.95,-76.88 53.3,-83.72 136.78,-160.85 221.56,-210.91 115.62,-68.28 256.13,-68.25 373.85,-133.53 115.6,-64.09 192.22,-174.24 314.19,-230.68 36.59,-16.93 83.41,-23.89 116.95,-43.66 41.16,-24.26 64.94,-57.16 115.19,-70.62 33.41,-8.95 52.71,-7.78 80.67,-24.47 22.02,-13.14 41.8,-36.6 60.89,-53.59 35.02,-31.15 68.79,-63.65 102.87,-95.78 31.79,-74.57 47.22,-156.64 95.51,-223.67 46.78,-64.93 121,-110.63 200.16,-122.71 15.44,-2.35 33.77,-5.93 48.54,-4.9 42.27,-45.56 88.35,-87.41 139.96,-118.64 103.35,-62.52 239.67,-20.23 203.1,121.65 381.67,-96.19 767.48,-197.46 1157.44,-253.78 103.44,-14.94 206.92,-17.03 311.42,-16.67 61.76,0.21 153.11,20.2 211.16,2.56 55.5,-16.88 115.3,-69.9 165.45,-99.01 67.14,-38.96 134.8,-77.44 204.44,-111.82 40.05,-19.77 101.26,-59.18 149.28,-52.39 74.21,10.48 62.29,138.78 58.92,189.55 -4.75,71.68 -5.09,151.42 -73.09,191.17 109.26,51.41 219.54,100.9 331.33,146.57 122.41,50.01 252.17,82.54 372.66,136.45 58.52,26.19 115.08,57.03 168.78,92.06 18.31,11.94 49.03,43.59 69.78,46.27 45.48,5.88 122.82,-32.77 166.29,-44.37 78.37,-20.91 156.74,-41.82 235.11,-62.73 51.49,-13.74 83.56,-33.82 106.83,23.68 35.07,86.62 52.29,205.57 31.3,296.46 -27.32,118.32 -135.3,166.57 -247.21,168.92 11.29,15.3 22.9,30.28 35.01,44.76 127.75,113.1 294.8,137.33 463.67,101.11 182.65,-39.19 375.53,-150.5 567.04,-117.42 18.03,3.11 66.33,8.84 78.79,27.15 25.61,37.62 -43.06,93.25 -63.2,122.96"
         style="fill:#393536;fill-opacity:1;fill-rule:nonzero;stroke:none"
         id="path96"
         inkscape:connector-curvature="0" /><path
         d="m 2499.99,6636.81 c 11.21,-18.34 23.15,-36.3 35.8,-53.65 7.61,19.38 20.35,36.61 36.32,49.93 14.98,-0.07 29.98,-0.1 44.76,-0.76 -36.37,-26 -54.44,-71.57 -14.17,-97.33 -0.11,20.95 13.59,41.14 25.61,52.73 29.19,20.19 63.6,17.37 96.96,12.54 24.24,-18.74 41.18,-45.9 35.44,-75.79 0.01,3.17 -0.12,6.42 -0.61,9.83 -5.77,40.9 -42.53,54.95 -73.63,47.4 3.73,-3.63 6.44,-8.68 7.37,-15.27 4.21,-29.77 -34.73,-39.45 -48.85,-19.58 -3.14,-8.43 -4.36,-18.17 -2.8,-29.2 8.4,-59.43 82.24,-62.25 108.98,-24.35 65.52,36.06 30.52,124.55 -18.56,157.95 -101.19,68.85 -226.31,-10.6 -332.19,40.06 26.65,-35.24 61.49,-49.03 99.57,-54.51"
         style="fill:#393536;fill-opacity:1;fill-rule:nonzero;stroke:none"
         id="path98"
         inkscape:connector-curvature="0" /><path
         d="m 5743.94,3047.64 c -12.65,2.45 -31.2,6.66 -54.8,10.76 -23.61,4.32 -52.27,9.02 -85.16,13.91 -32.88,4.87 -69.98,9.75 -110.44,14.49 -40.47,4.63 -84.32,9.05 -130.69,13 -46.37,3.82 -95.27,7.38 -145.86,10.05 -25.29,1.63 -51.01,2.53 -77.04,3.62 -13.01,0.54 -26.11,1.08 -39.27,1.63 -13.16,0.32 -26.38,0.65 -39.66,0.99 -53.12,1.68 -107.08,1.81 -161.04,2.22 -53.96,-0.42 -107.92,-0.66 -161.03,-2.34 -26.56,-0.49 -52.91,-1.52 -78.95,-2.66 -26.03,-1.04 -51.74,-2.05 -77.03,-3.66 -101.18,-5.5 -195.61,-13.7 -276.54,-23.06 -80.95,-9.3 -148.39,-19.76 -195.61,-28.27 -23.61,-4.08 -42.16,-8.28 -54.8,-10.7 -12.65,-2.61 -19.39,-4.29 -19.39,-4.29 0,0 6.74,-1.67 19.39,-4.28 12.64,-2.43 31.19,-6.63 54.8,-10.71 47.22,-8.51 114.66,-18.97 195.61,-28.27 80.93,-9.36 175.36,-17.56 276.54,-23.06 25.29,-1.61 51,-2.62 77.03,-3.66 26.04,-1.14 52.39,-2.17 78.95,-2.66 53.11,-1.68 107.07,-1.91 161.03,-2.34 53.96,0.41 107.92,0.54 161.04,2.23 13.28,0.33 26.5,0.66 39.66,0.99 13.16,0.54 26.26,1.08 39.27,1.62 26.03,1.1 51.75,1.99 77.04,3.62 50.59,2.67 99.49,6.23 145.86,10.05 46.37,3.95 90.22,8.37 130.69,13 40.46,4.75 77.56,9.62 110.44,14.49 32.89,4.89 61.55,9.59 85.16,13.91 23.6,4.1 42.15,8.31 54.8,10.76 12.65,2.62 19.39,4.31 19.39,4.31 0,0 -6.74,1.69 -19.39,4.31"
         style="fill:#393536;fill-opacity:1;fill-rule:nonzero;stroke:none"
         id="path100"
         inkscape:connector-curvature="0" /><path
         d="m 5237.04,2798.98 c -15.74,4.87 -33.5,9.74 -52.88,14.49 -19.37,4.52 -40.37,9.22 -62.57,13.05 -22.2,3.92 -45.61,7.33 -69.83,10.1 -48.44,5.64 -100.11,8.34 -151.78,8.37 -51.67,-0.14 -103.34,-2.87 -151.78,-8.55 -48.44,-5.52 -93.65,-13.84 -132.4,-23.18 -38.75,-9.3 -71.04,-19.76 -93.65,-28.27 -22.61,-8.43 -35.52,-14.99 -35.52,-14.99 0,0 12.91,-6.57 35.52,-14.99 22.61,-8.51 54.9,-18.97 93.65,-28.27 38.75,-9.35 83.96,-17.67 132.4,-23.18 48.44,-5.68 100.11,-8.41 151.78,-8.55 51.67,0.03 103.34,2.72 151.78,8.36 24.22,2.77 47.63,6.19 69.83,10.11 22.2,3.83 43.2,8.53 62.57,13.05 19.38,4.74 37.14,9.62 52.88,14.48 15.74,4.9 29.47,9.6 40.77,13.92 22.61,8.46 35.52,15.07 35.52,15.07 0,0 -12.91,6.6 -35.52,15.07 -11.3,4.32 -25.03,9.02 -40.77,13.91"
         style="fill:#393536;fill-opacity:1;fill-rule:nonzero;stroke:none"
         id="path102"
         inkscape:connector-curvature="0" /><path
         d="m 1724.16,6716.46 -0.95,-0.15 c -1.07,-0.01 -2.16,-0.03 -3.26,-0.05 -2.22,0.39 -4.45,1.04 -6.63,2.39 -8.85,5.43 -16.1,17.15 -22.73,29.86 -13.05,26.05 -24.14,59.03 -35.52,94.42 -5.76,17.7 -11.05,36.25 -16.91,54.95 -5.63,18.81 -11.35,37.92 -17.08,57.02 -5.82,19.05 -11.97,38.28 -17.12,56.81 -5.27,18.63 -9.79,37.06 -13.25,55.07 -2.73,18 -5.67,35.52 -5.61,52.04 -0.1,16.48 1.15,32.07 5.1,45.62 4.12,13.43 10.75,24.68 19.16,32.31 5.23,4.78 10.82,8.03 16.32,10.47 -30.29,-21.36 -41.32,-85.24 -5.5,-212.37 38.25,-135.79 72.94,-261.16 103.98,-278.39 z m -92.95,511.64 c -1.05,0.05 -2.05,0.23 -2.96,0.56 -1.82,0.74 -3.19,1.75 -4.37,2.7 l -1.79,1.4 -0.87,0.78 -0.06,0.05 -0.04,0.04 0.26,-0.47 -0.2,0.26 -0.39,0.53 -0.68,0.88 c -0.75,0.24 -2.61,2.23 -3.71,3.93 -1.23,1.87 -1.98,4.18 -2.05,6.34 -0.08,2.16 0.45,4.12 1.24,5.51 1.58,2.85 3.38,3.8 3.3,3.86 l -0.05,-0.03 1.2,0.76 c 0.82,0.5 1.87,1.04 3.51,1.44 3.1,0.97 8.41,0.3 12.3,-3.26 1.96,-1.71 3.44,-3.92 4.58,-6.18 l 0.62,-1.6 0.72,-2.17 c 0.19,-0.9 0.34,-2.42 0.28,-3.59 -0.12,-2.53 -1.04,-4.93 -2.35,-6.92 -0.68,-0.99 -1.51,-1.83 -2.39,-2.57 l -2.53,-1.45 c -2.45,-1.06 -2.26,-0.69 -3.57,-0.8 z m 219.23,-625.01 c 0,0 -0.84,2.24 -2.63,5.84 -1.77,3.63 -4.51,8.6 -8.1,14.27 -0.91,1.44 -2.05,3.01 -3.08,4.52 1.57,2.34 2.98,4.76 4.31,7.36 2.36,4.87 4.04,10.16 4.67,15.48 1.42,10.76 -1.95,20.71 -6.27,27.18 -2.1,3.34 -4.62,5.88 -6.81,7.99 -2.18,2.13 -4.44,3.58 -6.22,4.76 -3.66,2.27 -6.02,2.97 -6.02,2.97 0,0 1.21,-2.13 2.86,-5.79 1.62,-3.65 3.76,-8.85 4.76,-14.82 1.04,-5.96 0.9,-12.38 -1.34,-18.39 -1,-2.79 -2.4,-5.57 -4.13,-8.31 -4.16,4.88 -8.53,9.76 -13.21,14.46 -12.32,12.37 -25.97,23.43 -37.25,30.68 -2.14,1.36 -4.12,2.57 -6.02,3.68 3.2,4.36 4.69,9.96 3.59,15.69 -1.98,10.36 -11.58,17.23 -21.88,16.14 4.92,20.86 -13.85,71.33 -15.18,183.82 -1.75,146.86 -44.77,306.05 -86.68,304.25 3.92,3.27 6.42,6.95 8.21,11.25 2.02,5.07 2.29,10.51 1.25,15.35 -0.59,2.49 -1.27,4.56 -2.54,6.92 -0.65,1.31 -1.1,1.81 -1.62,2.58 -0.86,1.26 -1.46,1.82 -2.24,2.69 -3.02,3.12 -6.79,4.9 -10.18,5.74 -6.98,1.51 -12.23,0.06 -15.66,-0.9 -3.53,-1.12 -5.26,-2.05 -5.26,-2.05 l -0.05,-0.03 c 0,0 -1.88,-0.83 -5.14,-2.95 -1.57,-1.12 -3.72,-2.48 -5.84,-4.7 -2.16,-2.17 -4.51,-5.17 -6.04,-9.24 -1.36,-4.22 -2.16,-8.74 -0.12,-14.7 1.18,-4.11 5,-9.58 9.72,-12.79 1.35,-0.92 2.81,-1.68 4.31,-2.33 -0.9,-0.41 -1.83,-0.78 -2.67,-1.33 -2.55,-1.59 -5.61,-2.73 -8.02,-4.93 -10.69,-7.56 -20.05,-19.86 -25.94,-34.7 -5.89,-14.85 -8.84,-31.82 -9.73,-49.61 -1.18,-17.87 0.46,-36.45 2.8,-55.51 3.01,-18.9 6.47,-38.4 11.82,-57.65 5.13,-19.46 10.92,-38.37 16.53,-57.62 5.99,-19.11 11.98,-38.21 17.88,-57.02 5.91,-18.83 12.52,-37.13 18.91,-54.88 6.37,-17.75 13.23,-34.71 20.32,-50.61 6.99,-15.93 14.5,-30.72 22.79,-43.81 8.33,-12.89 17.18,-25 30.16,-31.15 3.23,-1.49 6.81,-2.18 10.27,-2.27 1.74,0.22 3.39,0.35 5.07,0.73 1.34,0.43 2.52,0.71 3.99,1.3 l 1.31,0.57 c -0.57,-2.61 -0.66,-5.36 -0.12,-8.15 2.1,-10.93 12.65,-18.09 23.58,-15.99 1.82,0.35 3.47,1 5.05,1.77 1.22,-2.11 2.56,-4.36 4.1,-6.78 7.18,-11.33 18.15,-25.05 30.45,-37.44 4.96,-4.99 10.13,-9.66 15.28,-14.06 -3.42,-2.82 -6.95,-5.37 -10.23,-7.22 -5.81,-3.11 -10.1,-4.33 -14.58,-3.03 -2.26,0.65 -4.53,2 -6.54,3.49 -1.88,1.59 -3.64,3.22 -5.01,4.69 -2.78,3.1 -4.37,4.88 -4.37,4.88 0,0 -0.04,-0.62 -0.11,-1.77 -0.04,-1.15 -0.14,-2.88 0.15,-5.03 0.19,-2.19 0.69,-4.86 1.84,-7.89 1.17,-3.03 2.99,-6.54 6.4,-9.72 3.33,-3.18 8.41,-5.76 13.9,-6.42 5.51,-0.78 11.01,0.11 16.1,1.68 5.04,1.69 9.74,4.09 14.04,7.02 2.33,1.61 4.54,3.36 6.66,5.24 1.23,-0.84 2.52,-1.8 3.71,-2.56 5.64,-3.61 10.6,-6.38 14.21,-8.18 3.59,-1.81 5.83,-2.66 5.83,-2.66"
         style="fill:#393536;fill-opacity:1;fill-rule:nonzero;stroke:none"
         id="path104"
         inkscape:connector-curvature="0" /></g></g></svg>