<?xml version="1.0" encoding="UTF-8" standalone="no"?>
<!-- Created with Inkscape (http://www.inkscape.org/) -->

<svg
   xmlns:dc="http://purl.org/dc/elements/1.1/"
   xmlns:cc="http://creativecommons.org/ns#"
   xmlns:rdf="http://www.w3.org/1999/02/22-rdf-syntax-ns#"
   xmlns:svg="http://www.w3.org/2000/svg"
   xmlns="http://www.w3.org/2000/svg"
   xmlns:sodipodi="http://sodipodi.sourceforge.net/DTD/sodipodi-0.dtd"
   xmlns:inkscape="http://www.inkscape.org/namespaces/inkscape"
   id="svg2"
   version="1.1"
   inkscape:version="0.91 r13725"
   xml:space="preserve"
   width="1225"
   height="1225"
   viewBox="0 0 1225 1225"
   sodipodi:docname="logo_5.svg"><metadata
     id="metadata8"><rdf:RDF><cc:Work
         rdf:about=""><dc:format>image/svg+xml</dc:format><dc:type
           rdf:resource="http://purl.org/dc/dcmitype/StillImage" /><dc:title></dc:title></cc:Work></rdf:RDF></metadata><defs
     id="defs6" /><sodipodi:namedview
     pagecolor="#ffffff"
     bordercolor="#666666"
     borderopacity="1"
     objecttolerance="10"
     gridtolerance="10"
     guidetolerance="10"
     inkscape:pageopacity="0"
     inkscape:pageshadow="2"
     inkscape:window-width="1315"
     inkscape:window-height="744"
     id="namedview4"
     showgrid="false"
     inkscape:zoom="0.19265306"
     inkscape:cx="-155.72034"
     inkscape:cy="612.5"
     inkscape:window-x="51"
     inkscape:window-y="24"
     inkscape:window-maximized="1"
     inkscape:current-layer="g10" /><g
     id="g10"
     inkscape:groupmode="layer"
     inkscape:label="ink_ext_XXXXXX"
     transform="matrix(1.25,0,0,-1.25,0,1225)"><g
       id="g12"
       transform="scale(0.1,0.1)"><path
         d="M 6759.69,6759.69 C 6283.59,7235.71 5626.41,7529.97 4900,7530 4173.58,7529.98 3516.4,7235.71 3040.31,6759.69 2564.29,6283.6 2270.02,5626.41 2270,4900 2270.02,4173.59 2564.29,3516.4 3040.31,3040.31 3516.4,2564.29 4173.58,2270.02 4900,2270 c 726.41,0.02 1383.59,294.29 1859.69,770.31 476.01,476.09 770.29,1133.28 770.31,1859.69 -0.03,726.42 -294.3,1383.6 -770.31,1859.69"
         style="fill:#ffffff;fill-opacity:1;fill-rule:nonzero;stroke:none"
         id="path14"
         inkscape:connector-curvature="0" /><path
         d="M 6759.69,3040.31 C 6283.59,2564.29 5626.41,2270.02 4900,2270 4173.58,2270.02 3516.4,2564.29 3040.31,3040.31 2564.29,3516.4 2270.02,4173.59 2270,4900 c 0.02,726.41 294.29,1383.6 770.31,1859.69 C 3516.4,7235.71 4173.58,7529.98 4900,7530 5626.41,7529.97 6283.59,7235.71 6759.69,6759.69 7235.7,6283.6 7529.97,5626.42 7530,4900 7529.98,4173.59 7235.7,3516.4 6759.69,3040.31 Z M 6830.4,6830.4 C 6336.52,7324.36 5653.71,7630.02 4900,7630 4146.29,7630.02 3463.47,7324.36 2969.6,6830.4 2475.64,6336.53 2169.97,5653.71 2170,4900 2169.98,4146.29 2475.64,3463.47 2969.6,2969.6 3463.47,2475.64 4146.28,2169.98 4900,2170 c 753.71,-0.02 1436.52,305.64 1930.4,799.6 493.96,493.87 799.62,1176.69 799.6,1930.4 0.02,753.71 -305.64,1436.53 -799.6,1930.4"
         style="fill:#393536;fill-opacity:1;fill-rule:nonzero;stroke:none"
         id="path16"
         inkscape:connector-curvature="0" /><path
         d="M 4900,6680.37 C 3916.72,6680.35 3119.64,5883.28 3119.63,4900 3119.64,3916.72 3916.71,3119.64 4900,3119.63 5883.28,3119.64 6680.35,3916.72 6680.37,4900 6680.35,5883.28 5883.28,6680.35 4900,6680.37"
         style="fill:#393536;fill-opacity:1;fill-rule:nonzero;stroke:none"
         id="path18"
         inkscape:connector-curvature="0" /><path
         d="m 5770.09,4831.34 c 87.57,1.08 169.49,2.72 245.83,4.31 122.27,2.37 242.66,5.44 368.25,9.41 l 295.63,10.54 c 0.37,14.76 0.57,29.55 0.57,44.4 0,14.84 -0.2,29.64 -0.57,44.39 l -295.84,10.55 c -125.38,3.96 -245.77,7.04 -367.96,9.4 -76.42,1.6 -158.34,3.24 -245.8,4.31 l -37.88,0.56 c -37.2,0.54 -75.03,1.1 -113.49,1.59 36.67,7.78 72.72,15.51 108.2,23.1 l 39.28,8.41 c 87.16,18.47 169.7,36.62 240.14,52.17 119.51,26.18 236.92,52.67 359.15,81.02 l 288.84,68.27 c -5.03,29.27 -10.77,58.29 -17.21,87.05 l -293.28,-47.57 c -124.06,-20.64 -242.66,-41.09 -362.53,-62.54 -71.6,-12.69 -155.24,-27.59 -241.79,-43.69 L 5702,5130.1 c -36.32,-6.67 -73.25,-13.45 -110.78,-20.42 35,15.01 69.4,29.86 103.23,44.46 l 35.69,15.39 c 82.54,35.4 159.69,69.2 225.46,98.07 111.28,48.63 221.33,97.53 336.62,149.6 l 269.44,123.03 c -10.67,27.68 -22.01,55.03 -34,82.02 l -277.69,-103.6 c -117.28,-44.3 -229.69,-87.52 -343.55,-132.13 -71.63,-27.95 -148.3,-57.92 -228.73,-90.08 l -37.06,-14.71 c -33.98,-13.5 -68.53,-27.22 -103.63,-41.24 30.72,21.1 60.91,41.91 90.62,62.4 l 33.59,23.16 c 73.93,50.73 143.01,98.94 201.9,140.09 100.02,69.67 198.36,139.06 300.8,212.29 l 240.73,173.55 c -15.85,25 -32.29,49.59 -49.33,73.73 l -252.63,-156.02 c -106.85,-66.63 -208.6,-130.91 -311.01,-196.51 -60.74,-38.78 -131.83,-84.23 -206.66,-132.9 l -33.72,-21.83 c -30.49,-19.73 -61.48,-39.78 -92.93,-60.22 26.72,27.39 52.93,54.39 78.72,80.95 l 26.72,27.52 c 61.1,62.63 117.9,121.74 170.78,176.87 85.02,88.38 167.97,175.69 253.73,267.04 l 201.58,216.51 c -20.4,21.44 -41.33,42.37 -62.77,62.77 l -216.65,-201.72 c -91.21,-85.62 -178.52,-168.57 -266.84,-253.54 -52.45,-50.32 -113.7,-109.15 -176.86,-170.77 l -27.53,-26.73 c -26.57,-25.8 -53.6,-52.04 -81.01,-78.77 20.44,31.45 40.49,62.44 60.23,92.93 l 21.76,33.64 c 48.74,74.91 94.18,146 132.91,206.67 65.98,103 130.27,204.75 196.67,311.25 l 155.95,252.43 c -24.14,17.05 -48.72,33.48 -73.72,49.33 l -173.71,-240.87 c -72.65,-101.61 -142.05,-199.95 -212.14,-300.57 -41.19,-58.95 -89.39,-128.04 -140.08,-201.88 l -23.17,-33.61 c -20.5,-29.72 -41.33,-59.94 -62.44,-90.68 14.02,35.1 27.74,69.65 41.24,103.63 l 14.68,36.96 c 32.19,80.52 62.16,157.19 90.08,228.76 44.62,113.89 87.86,226.29 132.23,343.81 l 103.53,277.5 c -27,11.99 -54.34,23.32 -82.02,34 l -123.11,-269.64 c -51.98,-115.09 -100.89,-225.14 -149.48,-336.35 -28.81,-65.62 -62.53,-142.59 -98.06,-225.45 l -15.44,-35.77 c -14.6,-33.84 -29.44,-68.23 -44.46,-103.23 6.97,37.53 13.75,74.46 20.43,110.78 l 6.89,37.52 c 16.31,87.67 31.12,170.84 43.69,241.82 21.46,119.93 41.93,238.54 62.59,362.82 l 47.54,293.07 c -28.76,6.44 -57.78,12.18 -87.05,17.21 l -68.32,-289.05 c -28.3,-122.02 -54.79,-239.44 -80.96,-358.88 -15.55,-70.51 -33.71,-153.05 -52.16,-240.11 l -8.42,-39.37 c -7.63,-35.58 -15.37,-71.74 -23.18,-108.52 -0.42,33.19 -0.9,65.89 -1.36,98.09 l -0.78,53.49 c -1.06,86.51 -2.76,170.06 -4.27,243.78 l -0.04,2.05 c -2.36,121.66 -5.5,245.48 -9.37,368.23 l -10.48,295.66 c -14.77,0.36 -29.58,0.56 -44.43,0.56 -14.85,0 -29.66,-0.2 -44.42,-0.56 l -10.49,-295.86 c -3.87,-122.55 -7.01,-246.37 -9.37,-367.98 l -0.04,-2.1 c -1.51,-73.72 -3.21,-157.27 -4.27,-243.7 l -0.78,-53.57 c -0.46,-32.31 -0.94,-65.12 -1.37,-98.41 -6.69,31.52 -13.34,62.6 -19.89,93.19 l -11.75,54.91 c -17.94,84.78 -35.95,166.52 -51.84,238.65 l -0.33,1.49 c -26.15,119.36 -52.62,236.77 -80.98,359.13 l -68.23,288.89 c -29.26,-5.03 -58.28,-10.78 -87.03,-17.22 l 47.58,-293.3 c 20.15,-121.13 41.21,-243.12 62.57,-362.53 l 0.2,-1.15 c 12.95,-72.82 27.62,-155.37 43.5,-240.64 0,0 21.46,-116.71 27.45,-149.01 -12.94,30.15 -25.74,59.83 -38.36,89.07 l -21.75,50.43 c -34.54,80.58 -68.3,157.58 -98.06,225.46 -48.51,111.02 -98.8,224.21 -149.57,336.63 l -122.98,269.48 c -27.7,-10.68 -55.06,-22.02 -82.07,-34.02 l 103.66,-277.68 c 44.17,-116.9 87.41,-229.29 132.17,-343.55 25.37,-64.97 56.93,-145.83 90.08,-228.74 l 20.16,-50.73 c 11.81,-29.72 23.8,-59.89 36.01,-90.5 -18.3,26.64 -36.38,52.87 -54.2,78.71 l -31.7,46 c -50.04,72.93 -97.9,141.47 -140.1,201.9 -69.24,99.42 -140.61,200.57 -212.25,300.81 l -173.52,240.78 c -25.02,-15.86 -49.62,-32.31 -73.78,-49.36 l 156.09,-252.61 c 64.78,-103.88 130.92,-208.53 196.54,-310.99 37.57,-58.81 84.34,-132 132.91,-206.66 l 29.65,-45.79 c 17.3,-26.73 34.87,-53.87 52.74,-81.38 -23.44,22.85 -46.57,45.31 -69.37,67.45 l -39.55,38.44 c -62.35,60.83 -123.02,119.07 -176.88,170.78 -88.52,85.16 -175.8,168.11 -267,253.76 l -216.46,201.64 c -21.47,-20.43 -42.42,-41.38 -62.85,-62.85 l 201.79,-216.6 c 84.26,-89.74 169.59,-179.53 253.58,-266.83 l 1.88,-1.96 c 50.94,-53.06 108.68,-113.2 168.87,-174.9 l 38.5,-39.6 c 22.14,-22.8 44.61,-45.93 67.45,-69.37 -27.51,17.87 -54.65,35.44 -81.38,52.73 l -45.72,29.61 c -73.59,47.88 -144.33,93.08 -206.68,132.92 -102.47,65.64 -207.13,131.78 -311.22,196.68 l -252.43,155.98 c -17.05,-24.15 -33.5,-48.76 -49.36,-73.77 l 240.94,-173.64 c 100.08,-71.53 201.23,-142.89 301.19,-212.52 60.76,-42.41 129.62,-90.49 201.28,-139.66 l 44.08,-30.38 c 26.49,-18.26 53.37,-36.8 80.69,-55.57 -30.6,12.22 -60.77,24.2 -90.48,36.01 l -50.66,20.13 c -82,32.8 -160,63.25 -228.77,90.08 -114.3,44.79 -226.7,88.03 -343.78,132.28 l -277.51,103.53 c -11.99,-26.99 -23.33,-54.34 -34,-82.02 l 269.66,-123.06 c 112.23,-50.69 225.43,-100.98 336.39,-149.47 67.93,-29.78 144.94,-63.54 225.43,-98.04 l 49.94,-21.54 c 29.43,-12.69 59.3,-25.58 89.64,-38.61 -32.26,5.99 -64.07,11.84 -95.41,17.59 l -53.51,9.84 c -85.35,15.9 -167.9,30.57 -240.72,43.52 l -1.11,0.19 c -119.45,21.37 -241.44,42.42 -362.78,62.62 l -293.09,47.54 c -6.45,-28.75 -12.19,-57.77 -17.22,-87.04 l 289.08,-68.27 c 119.28,-27.65 240.04,-54.89 358.89,-80.93 72.34,-15.94 154.34,-34 240.1,-52.15 l 54.99,-11.77 c 30.6,-6.55 61.67,-13.2 93.2,-19.89 -33.3,-0.43 -66.11,-0.91 -98.41,-1.38 l -53.49,-0.77 c -86.51,-1.06 -170.07,-2.76 -243.79,-4.28 l -2.04,-0.04 c -121.66,-2.35 -245.49,-5.49 -368.23,-9.36 l -295.66,-10.48 c -0.36,-14.77 -0.56,-29.58 -0.56,-44.43 0,-14.85 0.2,-29.66 0.56,-44.42 l 295.85,-10.49 c 122.55,-3.87 246.38,-7.02 367.98,-9.37 l 2.1,-0.04 c 73.72,-1.51 157.28,-3.21 243.7,-4.28 l 53.58,-0.77 c 32.3,-0.47 65.12,-0.94 98.41,-1.37 -31.46,-6.68 -62.45,-13.32 -92.99,-19.86 l -55.11,-11.79 c -83.66,-17.7 -160.96,-34.72 -235.7,-51.18 l -4.45,-0.97 c -118.89,-26.06 -239.65,-53.29 -359.13,-80.99 l -288.88,-68.23 c 5.03,-29.26 10.77,-58.28 17.21,-87.03 l 293.3,47.57 c 121.14,20.16 243.13,41.22 362.53,62.57 l 1.16,0.21 c 72.82,12.95 155.37,27.62 240.64,43.49 l 53.59,9.87 c 31.34,5.75 63.15,11.6 95.41,17.59 -30.34,-13.03 -60.21,-25.92 -89.64,-38.62 l -49.85,-21.49 c -80.58,-34.54 -157.59,-68.3 -225.47,-98.07 -111.05,-48.52 -224.24,-98.82 -336.63,-149.56 l -269.47,-122.98 c 10.67,-27.68 22.01,-55.03 34,-82.02 l 277.7,103.6 c 116.89,44.17 229.29,87.42 343.54,132.18 68.82,26.86 146.82,57.31 228.74,90.08 l 50.74,20.16 c 29.71,11.8 59.89,23.79 90.48,36 -27.32,-18.76 -54.21,-37.3 -80.69,-55.56 l -44,-30.34 c -71.74,-49.21 -140.6,-97.29 -201.91,-140.09 -99.41,-69.24 -200.56,-140.61 -300.81,-212.25 l -240.77,-173.52 c 15.86,-25.02 32.31,-49.62 49.36,-73.78 l 252.59,156.08 c 103.93,64.8 208.59,130.95 311.01,196.55 62.4,39.88 133.14,85.07 206.66,132.9 l 45.79,29.66 c 26.73,17.3 53.87,34.86 81.38,52.74 -22.85,-23.44 -45.31,-46.58 -67.45,-69.37 l -38.44,-39.55 C 4176,4271.5 4118.26,4211.36 4067.32,4158.31 l -1.85,-1.93 c -84.02,-87.34 -169.35,-177.12 -253.76,-267.01 l -201.64,-216.45 c 20.42,-21.47 41.38,-42.42 62.84,-62.85 l 216.61,201.78 c 91.06,85.5 178.34,168.46 267.2,253.95 53.52,51.38 114.19,109.62 176.48,170.39 l 39.61,38.5 c 22.8,22.13 45.93,44.6 69.37,67.45 -17.87,-27.51 -35.44,-54.65 -52.74,-81.38 l -29.61,-45.72 c -48.61,-74.73 -95.38,-147.92 -132.92,-206.69 -65.65,-102.5 -131.79,-207.15 -196.68,-311.2 l -155.98,-252.44 c 24.15,-17.05 48.76,-33.5 73.78,-49.36 l 173.64,240.94 c 71.52,100.07 142.89,201.23 212.1,300.59 42.23,60.48 90.09,129.03 140.08,201.88 l 31.75,46.07 c 17.82,25.84 35.9,52.07 54.2,78.71 -12.21,-30.6 -24.2,-60.78 -36.01,-90.5 l -20.13,-50.65 c -33.18,-82.99 -64.74,-163.85 -90.09,-228.77 -44.78,-114.31 -88.02,-226.7 -132.27,-343.79 l -103.58,-277.48 c 27.01,-12 54.37,-23.34 82.07,-34.02 l 123.06,269.66 c 50.69,112.23 100.98,225.43 149.46,336.38 29.79,67.94 63.55,144.94 98.05,225.44 l 21.79,50.52 c 12.62,29.24 25.42,58.93 38.36,89.06 -5.99,-32.29 -27.43,-148.92 -27.43,-148.92 -15.9,-85.36 -30.57,-167.9 -43.52,-240.73 l -0.19,-1.1 c -21.37,-119.45 -42.43,-241.45 -62.62,-362.78 l -47.55,-293.09 c 28.76,-6.44 57.78,-12.19 87.04,-17.22 l 68.28,289.08 c 28.31,122.16 54.78,239.58 80.92,358.88 l 0.34,1.55 c 15.89,72.13 33.9,153.86 51.82,238.56 0,0 24.92,116.46 31.6,147.87 0.48,-38.58 1.04,-76.5 1.59,-113.82 l 0.55,-37.76 c 1.08,-87.57 2.72,-169.49 4.31,-245.83 2.37,-122.28 5.44,-242.67 9.41,-368.25 l 10.54,-295.64 c 14.76,-0.36 29.56,-0.56 44.4,-0.56 14.84,0 29.64,0.2 44.39,0.56 l 10.55,295.84 c 3.97,125.38 7.04,245.77 9.41,367.97 1.59,76.42 3.23,158.34 4.3,245.8 l 0.56,37.87 c 0.55,37.21 1.1,75.03 1.59,113.5 7.78,-36.67 15.51,-72.73 23.11,-108.2 l 8.4,-39.28 c 18.47,-87.16 36.63,-169.7 52.17,-240.14 26.18,-119.51 52.67,-236.92 81.02,-359.15 l 68.27,-288.85 c 29.27,5.04 58.29,10.78 87.05,17.22 l -47.57,293.28 c -20.63,124.06 -41.1,242.68 -62.55,362.52 -12.58,71.07 -27.39,154.23 -43.68,241.8 l -6.91,37.63 c -6.68,36.31 -13.46,73.25 -20.43,110.78 15.02,-35 29.86,-69.4 44.46,-103.24 l 15.4,-35.68 c 35.57,-82.95 69.29,-159.91 98.06,-225.46 48.63,-111.29 97.54,-221.34 149.61,-336.62 l 123.02,-269.44 c 27.68,10.67 55.03,22 82.02,34 l -103.6,277.69 c -44.3,117.32 -87.54,229.72 -132.13,343.55 -27.95,71.63 -57.92,148.3 -90.07,228.73 l -14.72,37.05 c -13.5,34 -27.22,68.54 -41.24,103.64 21.11,-30.76 41.94,-60.96 62.44,-90.69 l 23.12,-33.52 c 50.74,-73.93 98.94,-143.01 140.09,-201.9 70.13,-100.68 139.53,-199.02 212.3,-300.8 l 173.58,-240.71 c 25,15.86 49.59,32.29 73.73,49.33 l -156.05,252.61 c -66.3,106.33 -130.59,208.08 -196.52,311.01 -38.78,60.74 -84.22,131.82 -132.9,206.66 l -21.82,33.72 c -19.74,30.49 -39.79,61.47 -60.23,92.93 27.41,-26.73 54.44,-52.97 81.01,-78.77 l 27.46,-26.67 c 62.64,-61.1 121.75,-117.9 176.87,-170.78 88.38,-85.02 175.69,-167.97 267.05,-253.73 l 216.5,-201.59 c 21.44,20.41 42.37,41.34 62.77,62.78 l -201.72,216.65 c -85.62,91.21 -168.57,178.51 -253.54,266.83 -52.93,55.19 -109.73,114.3 -170.76,176.87 l -26.74,27.53 c -25.8,26.57 -52.04,53.59 -78.77,81.01 31.45,-20.44 62.44,-40.49 92.93,-60.23 l 33.64,-21.77 c 74.91,-48.73 146,-94.18 206.67,-132.91 103,-65.97 204.75,-130.26 311.25,-196.67 l 252.46,-155.9 c 17.04,24.14 33.48,48.72 49.33,73.72 l -240.91,173.68 c -102.26,73.1 -200.6,142.5 -300.56,212.13 -58.95,41.19 -128.03,89.39 -201.88,140.07 l -33.6,23.18 c -29.73,20.5 -59.95,41.33 -90.69,62.44 35.1,-14.02 69.65,-27.74 103.63,-41.24 l 36.96,-14.68 c 80.53,-32.2 157.2,-62.17 228.76,-90.09 113.89,-44.62 226.3,-87.85 343.82,-132.22 l 277.49,-103.53 c 11.99,26.99 23.32,54.33 34,82.01 l -269.64,123.12 c -115.09,51.98 -225.14,100.89 -336.35,149.48 -65.84,28.91 -142.99,62.71 -225.45,98.06 l -35.77,15.44 c -33.83,14.6 -68.23,29.44 -103.23,44.46 37.53,-6.97 74.46,-13.75 110.78,-20.43 l 37.52,-6.89 c 86.66,-16.13 170.3,-31.02 241.83,-43.71 120.03,-21.46 238.63,-41.92 362.81,-62.57 l 293.07,-47.54 c 6.44,28.76 12.18,57.78 17.21,87.04 l -289.05,68.33 c -122.02,28.3 -239.43,54.78 -358.88,80.96 -70.5,15.55 -153.04,33.71 -240.1,52.15 l -39.38,8.43 c -35.48,7.6 -71.53,15.32 -108.2,23.11 38.46,0.49 76.29,1.04 113.49,1.59 l 37.77,0.55"
         style="fill:#ffffff;fill-opacity:1;fill-rule:nonzero;stroke:none"
         id="path20"
         inkscape:connector-curvature="0" /><path
         d="m 3471.76,6776.93 c -9.75,12.19 -21.28,19.09 -34.58,20.69 -13.31,1.61 -26.08,-2.47 -38.26,-12.21 l -42.57,-34.01 119.62,-149.72 42.57,34 c 11.2,8.96 17.53,20.54 19.01,34.77 1.48,14.23 -2.26,26.95 -11.2,38.15 l -54.59,68.33 z m -132.29,79.04 c 34.36,27.46 70.38,38.5 108.1,33.15 35.43,-5.55 65.97,-24.38 91.62,-56.49 l 54.29,-67.94 c 24.66,-30.87 34.98,-65.86 30.94,-104.97 -4.03,-39.11 -21.35,-70.88 -51.97,-95.35 l -40.7,-32.52 140.8,-176.23 -70.57,-56.37 -373.77,467.84 111.26,88.88"
         style="fill:#393536;fill-opacity:1;fill-rule:nonzero;stroke:none"
         id="path22"
         inkscape:connector-curvature="0" /><path
         d="m 4005.36,6581 -78.67,-44.38 -294.27,521.52 78.66,44.4 294.28,-521.54"
         style="fill:#393536;fill-opacity:1;fill-rule:nonzero;stroke:none"
         id="path24"
         inkscape:connector-curvature="0" /><path
         d="m 4137.98,6851.44 63.25,-179.13 -85.18,-30.08 -199.53,565.11 85.18,30.07 71.12,-201.44 32.98,238.2 90.8,32.06 -35.19,-271.66 254.86,-286.34 -100.13,-35.35 -170.43,197.86 -7.73,-59.3"
         style="fill:#393536;fill-opacity:1;fill-rule:nonzero;stroke:none"
         id="path26"
         inkscape:connector-curvature="0" /><path
         d="m 4528.57,6771.54 -76.04,594.45 255.04,32.62 11.52,-90.07 -165.44,-21.16 20.73,-162.12 120.89,15.46 11.52,-90.07 -120.88,-15.46 20.74,-162.13 165.44,21.17 11.52,-90.07 -255.04,-32.62"
         style="fill:#393536;fill-opacity:1;fill-rule:nonzero;stroke:none"
         id="path28"
         inkscape:connector-curvature="0" /><path
         d="m 5100.57,6793.27 -89.63,11.2 74.34,594.67 255.13,-31.9 -11.26,-90.09 -165.5,20.69 -20.28,-162.19 120.93,-15.12 -11.26,-90.09 -120.93,15.11 -31.54,-252.28"
         style="fill:#393536;fill-opacity:1;fill-rule:nonzero;stroke:none"
         id="path30"
         inkscape:connector-curvature="0" /><path
         d="m 5459.95,6720.2 -86.95,24.47 162.14,576.44 86.95,-24.45 -162.14,-576.46"
         style="fill:#393536;fill-opacity:1;fill-rule:nonzero;stroke:none"
         id="path32"
         inkscape:connector-curvature="0" /><path
         d="m 5910.89,6692.87 c -17.27,-38.02 -42.31,-65.65 -75.12,-82.91 -21.83,-11.89 -46.61,-15.86 -74.34,-11.92 -14.88,2.09 -30.95,7.22 -48.24,15.4 -31.97,15.1 -54.73,35.54 -68.28,61.32 -11.44,21.27 -17.01,45.48 -16.68,72.64 0.31,27.15 6.42,55.55 18.3,85.17 l 80.44,-31.14 c -11.46,-33.19 -13.91,-60.02 -7.36,-80.46 4.73,-15.34 13.56,-25.72 26.51,-31.13 18.14,-7.86 36.56,-5.8 55.25,6.17 9.42,5.77 17.81,16.45 25.17,32.01 10.63,22.5 10.96,49.67 1,81.54 -8.93,22.9 -22.29,57.25 -40.11,103.06 -14.69,39.04 -22.73,71.59 -24.16,97.66 -1.06,29.07 4.87,57.3 17.82,84.69 23.29,49.3 57.5,78.82 102.62,88.54 27.67,5.62 56.63,1.28 86.88,-13.01 29.09,-13.74 50.95,-32.01 65.56,-54.77 11.37,-17.71 17.74,-37.98 19.1,-60.82 1.36,-22.84 -2.53,-46.55 -11.67,-71.12 l -84.95,22.68 c 8.18,23.27 10,43.56 5.49,60.84 -3.28,12.47 -11.97,22.04 -26.08,28.71 -14.98,7.07 -29.5,5.82 -43.53,-3.75 -11.38,-7.66 -20.8,-19.42 -28.29,-35.26 -11.71,-24.78 -12.96,-55.02 -3.75,-90.72 3.44,-13.62 10.09,-30.85 19.96,-51.72 11.53,-24.84 18.82,-41.85 21.88,-51.04 10.63,-29.69 16.79,-56.92 18.49,-81.68 0.82,-11.68 0.99,-22.14 0.48,-31.41 -1.34,-22.98 -5.48,-42.17 -12.39,-57.57"
         style="fill:#393536;fill-opacity:1;fill-rule:nonzero;stroke:none"
         id="path34"
         inkscape:connector-curvature="0" /><path
         d="m 6172.12,6643.06 -154.85,-201.04 -71.57,55.12 365.41,474.4 71.57,-55.12 -155.15,-201.42 86.32,-66.5 155.14,201.43 71.57,-55.12 -365.41,-474.4 -71.57,55.11 154.86,201.05 -86.32,66.49"
         style="fill:#393536;fill-opacity:1;fill-rule:nonzero;stroke:none"
         id="path36"
         inkscape:connector-curvature="0" /><path
         d="m 3251.34,3719.69 73.95,45.92 -142.63,229.66 -73.96,-45.94 48.59,-78.23 -413.76,-256.99 45.69,-73.58 413.77,257 48.35,-77.84"
         style="fill:#393536;fill-opacity:1;fill-rule:nonzero;stroke:none"
         id="path38"
         inkscape:connector-curvature="0" /><path
         d="m 3442.58,3437.52 -226.87,-217.59 c -9.92,-9.51 -21.68,-14.13 -35.28,-13.85 -13.6,0.28 -25.17,5.39 -34.69,15.31 -9.51,9.93 -14.18,21.74 -14,35.45 0.17,13.72 5.23,25.34 15.14,34.86 l 226.87,217.57 c 9.92,9.52 21.73,14.09 35.44,13.69 13.71,-0.39 25.33,-5.55 34.84,-15.47 9.51,-9.92 14.13,-21.69 13.85,-35.3 -0.28,-13.6 -5.39,-25.16 -15.3,-34.67 z m 103.51,29.75 c 0.89,37.9 -11.87,70.64 -38.3,98.19 -26.01,27.12 -57.97,41.13 -95.86,42.03 -37.91,0.89 -70.63,-11.88 -98.18,-38.3 l -226.2,-216.96 c -27.34,-26.22 -41.51,-58.22 -42.51,-96 -1.01,-37.79 11.7,-70.46 38.13,-98.02 26.22,-27.33 58.29,-41.46 96.19,-42.36 37.89,-0.89 70.62,11.86 98.18,38.3 l 226.19,216.95 c 27.33,26.21 41.46,58.27 42.36,96.17"
         style="fill:#393536;fill-opacity:1;fill-rule:nonzero;stroke:none"
         id="path40"
         inkscape:connector-curvature="0" /><path
         d="m 3864.5,3263.32 -246.36,-368.29 c -7.63,-11.43 -18.13,-18.47 -31.48,-21.12 -13.35,-2.64 -25.73,-0.14 -37.16,7.5 -11.42,7.64 -18.53,18.18 -21.31,31.61 -2.77,13.44 -0.33,25.86 7.31,37.29 l 246.36,368.29 -70.46,47.14 -246.87,-369.06 c -21.06,-31.49 -27.93,-65.66 -20.62,-102.52 7.31,-36.87 26.83,-65.92 58.58,-87.15 31.47,-21.06 65.69,-28.15 102.65,-21.26 36.95,6.89 66.13,26.34 87.53,58.33 l 246.86,369.05 -75.03,50.19"
         style="fill:#393536;fill-opacity:1;fill-rule:nonzero;stroke:none"
         id="path42"
         inkscape:connector-curvature="0" /><path
         d="m 4197.02,2947.3 -30.06,-78.28 c -4.92,-12.83 -13.63,-22.09 -26.11,-27.76 -12.49,-5.69 -25.15,-6.06 -37.99,-1.13 l -48.76,18.72 65.86,171.54 48.76,-18.72 c 30.8,-11.83 40.24,-33.28 28.3,-64.37 z m 1.26,147.75 -127.48,48.94 -205.78,-535.99 80.85,-31.05 77.52,201.91 46.63,-17.9 c 2.56,-0.98 4.98,-1.91 7.27,-2.79 l -28.5,-220.73 87.43,-33.57 29.95,256.99 c 38.88,15.17 65.6,41.73 80.16,79.66 l 29.89,77.85 c 14.89,38.78 17.23,72.57 7.01,101.36 -11.58,32.91 -39.89,58.02 -84.95,75.32"
         style="fill:#393536;fill-opacity:1;fill-rule:nonzero;stroke:none"
         id="path44"
         inkscape:connector-curvature="0" /><path
         d="m 4638.62,2592.12 -60.52,398.33 -96.3,13.41 -79.3,-569.1 85.77,-11.95 50.78,364.42 67.22,-380.86 92.13,-12.84 79.3,569.1 -85.79,11.96 -53.29,-382.47"
         style="fill:#393536;fill-opacity:1;fill-rule:nonzero;stroke:none"
         id="path46"
         inkscape:connector-curvature="0" /><path
         d="m 5076.36,2612.72 11.7,228.32 52.19,-222.58 -63.89,-5.74 z m -58.93,354.02 -45.86,-580.57 89.82,8.07 9.15,133.32 90.06,8.08 31.98,-129.63 90.69,8.15 -147.19,563.23 -118.65,-10.65"
         style="fill:#393536;fill-opacity:1;fill-rule:nonzero;stroke:none"
         id="path48"
         inkscape:connector-curvature="0" /><path
         d="m 5631.77,3105.7 66.77,-414.64 -215.63,361.11 -116.94,-42.06 194.44,-540.7 81.49,29.31 -121.87,338.9 200.79,-310.52 65.54,23.56 -51.48,365.2 122.18,-339.77 81.49,29.31 -194.43,540.7 -112.35,-40.4"
         style="fill:#393536;fill-opacity:1;fill-rule:nonzero;stroke:none"
         id="path50"
         inkscape:connector-curvature="0" /><path
         d="m 6210.87,2861.6 -86.88,130.42 97.26,64.77 -48.26,72.47 -97.26,-64.78 -86.86,130.43 133.09,88.64 -48.26,72.46 -205.17,-136.66 318.52,-478.22 205.18,136.65 -48.27,72.46 -133.09,-88.64"
         style="fill:#393536;fill-opacity:1;fill-rule:nonzero;stroke:none"
         id="path52"
         inkscape:connector-curvature="0" /><path
         d="m 6327.27,3591.32 275.99,-270.1 -356.38,187.96 -67.99,-69.49 410.66,-401.89 60.58,61.89 -262.98,257.36 346.3,-172.21 65.06,66.48 -410.67,401.89 -60.57,-61.89"
         style="fill:#393536;fill-opacity:1;fill-rule:nonzero;stroke:none"
         id="path54"
         inkscape:connector-curvature="0" /><path
         d="m 6642.96,3871.5 48.35,77.84 -73.96,45.94 -142.64,-229.65 73.95,-45.94 48.61,78.24 413.76,-256.99 45.69,73.57 -413.76,256.99"
         style="fill:#393536;fill-opacity:1;fill-rule:nonzero;stroke:none"
         id="path56"
         inkscape:connector-curvature="0" /><path
         d="m 8069.02,5242.41 c -51.89,76.54 -68.58,166.51 -117.91,242.96 -41.79,64.76 -98.84,120.49 -156.7,170.84 -53.9,46.9 -53.41,44.63 -44.87,115.31 9.02,74.61 13.91,150.12 11.37,225.28 -6.2,182.74 -106.86,325.93 -140.86,502.25 -6.77,35.14 -0.07,105.26 -40.03,117.63 -16.69,5.16 -52.45,-11.53 -66.43,-17.44 -132.04,-55.87 -182.3,-198.53 -205.97,-329.05 -33.13,-182.58 -40.79,-385.58 -127.88,-553.24 -82.27,-158.4 -273.41,-209.3 -438.83,-232.98 185.76,214.06 -156.21,416.73 -323.29,470.03 -44.63,14.23 -90.49,39.15 -123.51,2.1 -58.75,-65.94 -95.65,-180.01 -133.5,-258.79 -46.08,-95.88 -78.23,-201.92 -129.68,-295.02 -30.26,-28.89 -59.85,-56.7 -94.36,-80.07 -145.77,-53.29 -306.44,-80.85 -459.23,-98.5 -404.63,-46.74 -818.12,38.05 -1211.89,163.66 -31.95,12.36 -63.78,25.05 -95.37,38.32 l -400.24,139.9 c -226.79,92.01 -441.19,213.7 -673.3,291.5 -107.08,35.9 -217.44,65.75 -329.35,81.97 -66.8,9.68 -132.93,2.11 -199.05,10.94 -118.86,15.88 -235.82,52.52 -352.03,81.03 -52.51,12.89 -168.71,62.03 -217.5,11.06 -29.86,-31.2 11.05,-60.56 50.75,-85.13 4.93,-20.89 9.87,-41.77 14.8,-62.66 9.51,11.66 19.01,23.32 28.52,34.98 1.78,-1.34 3.46,-2.67 4.94,-3.97 l 2.37,-2.21 c 4.6,-23.62 9.2,-47.23 13.8,-70.84 9.43,8.6 18.86,17.21 28.29,25.81 4.75,-6.02 9.33,-12.17 13.79,-18.4 1.85,-28.36 3.71,-56.73 5.58,-85.1 9.68,10.59 19.37,21.18 29.05,31.78 4.2,-6.95 8.35,-13.92 12.49,-20.91 2.01,-23.88 4,-47.77 6.01,-71.65 8.28,6.85 16.55,13.71 24.83,20.57 3.56,-5.65 7.18,-11.26 10.88,-16.83 0.99,-23.63 1.98,-47.26 2.98,-70.89 10.93,7.59 21.87,15.18 32.8,22.77 4.28,-5.03 8.67,-9.99 13.24,-14.84 -24.68,-6.39 -50.22,-13.15 -76.24,-19.52 -1.24,9.1 -2.48,18.19 -3.71,27.29 -16.02,-13.04 -32.05,-26.08 -48.07,-39.12 -6.55,-1.36 -13.12,-2.68 -19.7,-3.93 0.33,14.76 0.67,29.51 1.02,44.26 -18.64,-17.63 -37.28,-35.26 -55.92,-52.89 -11.26,-1.37 -22.52,-2.48 -33.74,-3.23 2.02,18.77 2.94,37.65 2.57,56.55 -18.35,-21.07 -38.87,-40.07 -60.94,-57.16 -51.58,2.74 -101.59,14.88 -147.52,42.12 -45.15,26.78 -131.29,109.51 -177.79,37.16 -19.81,-30.82 -5.17,-49.83 10.63,-74.65 51.77,-81.3 132.84,-156.21 215.17,-204.83 112.28,-66.3 248.72,-66.27 363.05,-129.66 112.25,-62.25 186.66,-169.21 305.11,-224.02 35.53,-16.44 81,-23.19 113.57,-42.4 39.97,-23.56 63.06,-55.51 111.86,-68.58 32.45,-8.69 51.19,-7.55 78.35,-23.76 21.38,-12.77 40.58,-35.55 59.12,-52.05 34.01,-30.24 66.8,-61.81 99.9,-93 30.87,-72.42 45.85,-152.12 92.75,-217.22 45.43,-63.05 117.5,-107.43 194.37,-119.16 15,-2.28 32.8,-5.76 47.15,-4.76 41.05,-44.24 85.79,-84.89 135.91,-115.21 100.36,-60.72 232.74,-19.64 197.24,118.13 370.64,-93.4 745.3,-191.75 1123.99,-246.44 100.46,-14.51 200.95,-16.54 302.43,-16.19 59.98,0.21 148.68,19.62 205.06,2.48 53.89,-16.38 111.96,-67.88 160.67,-96.14 65.19,-37.84 130.9,-75.21 198.53,-108.59 38.89,-19.2 98.33,-57.47 144.97,-50.89 72.07,10.18 60.49,134.78 57.22,184.08 -4.62,69.62 -4.94,147.05 -70.99,185.65 106.11,49.93 213.2,97.98 321.76,142.34 118.87,48.56 244.89,80.15 361.9,132.51 56.83,25.42 111.75,55.38 163.9,89.39 17.78,11.6 47.62,42.33 67.76,44.94 44.17,5.71 119.28,-31.83 161.49,-43.09 76.11,-20.31 152.21,-40.61 228.32,-60.92 50,-13.34 81.14,-32.84 103.74,22.99 34.06,84.13 50.78,199.64 30.4,287.9 -26.53,114.91 -131.39,161.76 -240.07,164.05 10.96,14.85 22.24,29.4 34,43.46 124.05,109.83 286.27,133.36 450.27,98.18 177.38,-38.05 364.69,-146.15 550.66,-114.02 17.51,3.03 64.41,8.59 76.51,26.36 24.88,36.54 -41.82,90.57 -61.37,119.42"
         style="fill:#ffffff;fill-opacity:1;fill-rule:nonzero;stroke:none"
         id="path58"
         inkscape:connector-curvature="0" /><path
         d="m 2853.68,5655.51 c -89.47,-132.55 -204.1,22.35 -275.89,81.21 -110.76,90.81 -244.32,155.5 -380.11,199.41 30.12,-21.94 61.01,-42.74 92.19,-63.1 68.46,-79.55 109.75,-216.1 222.35,-229.48 -39.26,37.51 -69.18,100.51 -105.66,154.33 51.8,-33.71 102.84,-68.53 151,-107.61 49.78,-40.41 99.72,-104.26 166.39,-114.09 54.02,-7.96 114.94,25.01 129.73,79.33"
         style="fill:#393536;fill-opacity:1;fill-rule:nonzero;stroke:none"
         id="path60"
         inkscape:connector-curvature="0" /><path
         d="m 3180.84,5658.38 c -33.1,44.4 -84.94,73.93 -150.24,71.04 96.68,-27.57 161.86,-119.92 142.47,-216.95 -12.09,18.37 -27.31,33.75 -38.29,39.88 -36.06,20.14 -77.07,18.02 -117.3,19.21 27.2,36.87 31.02,89.04 -6.11,125.27 11.34,-36.54 5.28,-70.47 -19.04,-96.85 -29.61,-7.91 -72.26,-12.07 -82.94,-38.31 -35.26,-10.14 -72.66,-14.15 -114.36,-12.41 41.87,-50.72 117.74,-51.23 171.18,-18.95 2.79,-0.94 5.76,-1.88 9.1,-2.81 42.84,-12.02 93.05,3.02 133.99,-11.64 18.32,-4.97 44.82,-18.15 50.86,-35.38 0.71,-1.45 1.23,-3.01 1.83,-4.52 -51.98,-126.5 -213.11,-130.44 -321.13,-69.02 49.92,-56.13 123.39,-81.31 192.78,-75 -36.58,-20.76 -75.01,-38.03 -115.6,-50.21 -71.31,-21.41 -146.56,-27.52 -219.94,-14.06 -74.37,13.65 -144.37,47.64 -220.85,49.84 41.65,-14.64 80.03,-31.54 117.37,-47.37 -70.27,7.1 -138.34,17.84 -208.25,34.6 28.65,-51.44 90.28,-79.58 150.34,-79.34 15.26,-42.91 131.21,-50.43 159.74,-38.85 -31.28,18.93 -66.75,30.88 -103.11,34.75 l -25.81,6.82 c 23.38,4.09 45.55,12.83 64.31,26.62 15.63,-6.25 31.21,-12.09 46.9,-17.3 28.87,-51.64 102.51,-64.62 146.82,-22.64 8.05,0.39 16.2,1.01 24.52,1.98 70.31,-28.41 128.33,-85.45 203.96,-101.76 80.21,-17.3 169.95,21.9 211.77,92.51 -74.38,-35.18 -163.73,-28.08 -231.88,17.41 -20.8,13.88 -31.42,27.14 -41.61,35.84 23.71,11.94 46.38,25.91 67.82,41.61 76.83,-24.03 165.61,-9.44 229.9,39.14 -89.33,41.89 81.41,117.31 52.57,23.31 66.22,127.76 -55.99,243.23 -161.77,293.54"
         style="fill:#393536;fill-opacity:1;fill-rule:nonzero;stroke:none"
         id="path62"
         inkscape:connector-curvature="0" /><path
         d="m 3601.31,4759.49 c 7.87,-63.97 64.33,-114.84 130.16,-113.76 -6.41,18.25 -15.48,35.7 -26.49,51.83 97.77,-46.86 207.18,-70.07 310.07,-61.13 -190.88,64.67 -363.15,143.03 -536.92,245.15 33.43,-46.02 75.52,-87.16 123.18,-122.09"
         style="fill:#393536;fill-opacity:1;fill-rule:nonzero;stroke:none"
         id="path64"
         inkscape:connector-curvature="0" /><path
         d="m 3033.88,5119.37 c -2.34,0.5 -4.02,0.86 -5.06,1.09 1.14,-0.25 2.91,-0.63 5.06,-1.09"
         style="fill:#393536;fill-opacity:1;fill-rule:nonzero;stroke:none"
         id="path66"
         inkscape:connector-curvature="0" /><path
         d="m 3037.12,5118.67 c -1.17,0.25 -2.24,0.48 -3.24,0.7 0.97,-0.21 2.02,-0.44 3.24,-0.7"
         style="fill:#393536;fill-opacity:1;fill-rule:nonzero;stroke:none"
         id="path68"
         inkscape:connector-curvature="0" /><path
         d="m 3044.15,5117.16 c -2.5,0.54 -4.88,1.05 -7.03,1.51 1.99,-0.43 4.33,-0.93 7.03,-1.51"
         style="fill:#393536;fill-opacity:1;fill-rule:nonzero;stroke:none"
         id="path70"
         inkscape:connector-curvature="0" /><path
         d="m 3055.72,5114.66 -1.68,0.36 c -2.65,0.57 -5.06,1.09 -7.27,1.57 2.96,-0.64 5.97,-1.29 8.95,-1.93"
         style="fill:#393536;fill-opacity:1;fill-rule:nonzero;stroke:none"
         id="path72"
         inkscape:connector-curvature="0" /><path
         d="m 3055.72,5114.66 c 2.1,-0.45 4.06,-0.88 5.8,-1.25 -1.85,0.4 -3.82,0.82 -5.8,1.25"
         style="fill:#393536;fill-opacity:1;fill-rule:nonzero;stroke:none"
         id="path74"
         inkscape:connector-curvature="0" /><path
         d="m 3075.93,5110.3 c -0.55,0.12 -1.67,0.36 -3.41,0.74 1.63,-0.35 2.82,-0.61 3.41,-0.74"
         style="fill:#393536;fill-opacity:1;fill-rule:nonzero;stroke:none"
         id="path76"
         inkscape:connector-curvature="0" /><path
         d="m 2701.42,5157.41 c 7.08,-23.85 33.23,-32.8 55.4,-34.16 10.33,-3.05 19.58,-1.9 27.75,3.45 10.84,30.04 -71.52,34.71 -83.15,30.71"
         style="fill:#393536;fill-opacity:1;fill-rule:nonzero;stroke:none"
         id="path78"
         inkscape:connector-curvature="0" /><path
         d="m 2557.22,5177.32 c 11.07,-19.76 32.17,-33.55 54.71,-35.73 -7.05,22.52 -31.25,38.32 -54.71,35.73"
         style="fill:#393536;fill-opacity:1;fill-rule:nonzero;stroke:none"
         id="path80"
         inkscape:connector-curvature="0" /><path
         d="m 2911.03,5061.6 c -13.67,33.26 -52.46,54.07 -87.73,47.05 12.81,-33.86 52.43,-55.11 87.73,-47.05"
         style="fill:#393536;fill-opacity:1;fill-rule:nonzero;stroke:none"
         id="path82"
         inkscape:connector-curvature="0" /><path
         d="m 2838.27,5439.06 c 91.9,-78.73 237.4,-61.45 307.61,38.34 -38.21,26.7 -88.39,36.78 -133.94,26.91 l -41.5,7.74 c -23.35,-19.68 -49.69,-35.94 -77.69,-48.38 -44.04,10.31 -86.68,26.74 -126.07,48.8 l -46.31,27.52 c 35.7,-43.53 74.21,-83.05 117.9,-100.93"
         style="fill:#393536;fill-opacity:1;fill-rule:nonzero;stroke:none"
         id="path84"
         inkscape:connector-curvature="0" /><path
         d="m 2621.17,5317.47 c 9.42,-4.66 19.3,-8.13 29.38,-10.38 75.59,-41.32 169.77,-46.47 250.19,-15.88 0.04,-3.33 14.5,1.55 53.91,27.39 -54.47,-6.19 -104.11,43.2 -143.37,37.91 -12.05,-1.63 -23.52,-4.34 -34.7,-7.59 14.9,21.25 20.84,49.38 11.56,83.28 -39.4,-62.4 -109.06,-120.83 -188.24,-101.47 9.7,-7.57 16.77,-11.54 21.27,-13.26"
         style="fill:#393536;fill-opacity:1;fill-rule:nonzero;stroke:none"
         id="path86"
         inkscape:connector-curvature="0" /><path
         d="m 2517.98,5332.07 46.81,2.89 c -98.07,68.88 -151.67,100.53 -271.63,55.88 42.89,-0.93 54.27,-58.75 94.29,-66.23 44.86,-8.39 80.51,29.23 130.53,7.46"
         style="fill:#393536;fill-opacity:1;fill-rule:nonzero;stroke:none"
         id="path88"
         inkscape:connector-curvature="0" /><path
         d="m 4093.51,4524.68 c -17.67,27.88 -52.98,56.54 -83.69,69.28 4.68,-40.85 42.61,-72.32 83.69,-69.28"
         style="fill:#393536;fill-opacity:1;fill-rule:nonzero;stroke:none"
         id="path90"
         inkscape:connector-curvature="0" /><path
         d="m 7539.3,5267.55 c 115.45,-3.09 219.09,-68.59 325.83,-112.59 -77.42,18.63 -153.95,49.46 -223.6,70.02 -58.22,17.18 -117.75,32.62 -177.61,41.94 9.05,5.43 17.81,12.22 26.21,20.85 6.12,6.29 12.23,15.32 17.95,26.18 97.89,21.37 201.51,6.7 290.39,-39.81 -80.7,54.86 -178.23,81.08 -275.21,75.83 4.59,13.61 8.4,28.23 11.09,43.01 121.23,28.55 246.63,23.19 364.66,-17.88 -113.46,51.9 -237.35,69.8 -360.53,54.79 0.25,6.79 0.16,13.43 -0.27,19.88 22.58,-1.88 67.57,24.8 88.18,32.19 -28.52,-3.12 -57.04,-6.23 -85.56,-9.35 -3.18,5.89 -6.99,11.38 -11.41,16.36 -1.38,3.08 -2.92,6.02 -4.64,8.77 2.88,9.9 4.98,19.96 6.2,30.11 33.2,7.85 63.87,25.15 87.12,50.24 -26.69,-13.41 -56.48,-19.11 -86.08,-16.11 -0.65,12.76 -2.45,25.49 -5.33,38.04 22.85,10.88 43.01,26.88 58.13,47.47 -20.38,-12.21 -43.26,-18.09 -66.6,-18.85 -2.32,6.35 -4.89,12.61 -7.73,18.76 28.7,17.49 54.53,39.54 75.92,65.56 -27.85,-17.85 -58.67,-30.72 -90.88,-37.99 -5.07,8.1 -10.57,15.89 -16.52,23.34 28.47,17.3 53.02,40.75 71.2,68.76 -27.51,-22.08 -60.87,-36.94 -95.77,-42.28 -4.24,3.92 -8.62,7.67 -13.14,11.24 60.11,59.53 104.18,133.78 126.04,215.76 -33.15,-78.27 -87.57,-146.16 -156.89,-195.3 l -2.05,1.09 c -4.84,5.06 -9.89,9.92 -15.3,14.4 -12.91,65.46 -8.37,133.44 13,196.78 -28.96,-53.71 -44.76,-113.44 -47.11,-174.11 -5.38,2.86 -10.9,5.47 -16.51,7.88 -3.15,47.28 -0.33,94.83 8.65,141.38 -18.97,-41.6 -32.67,-85.41 -41.15,-130.3 -12.08,3.16 -24.32,5.37 -36.54,6.52 20.39,68.41 33.19,139.61 45.02,208.78 29.25,170.98 27.64,478.14 241.5,534.46 0.97,-8.3 2.11,-16.59 3.29,-24.87 -121.4,-167.28 -193.11,-367.14 -204.74,-573.62 22.19,190.85 95.92,373.12 212.82,525.2 1.78,-9.35 3.67,-18.67 5.7,-27.97 -58.49,-102 -98,-213.23 -116.75,-329.54 26.7,101.54 69.85,197.24 127.61,284.38 2.98,-11.28 6.13,-22.51 9.49,-33.66 -33.02,-62.24 -56.76,-128.91 -70.65,-198.05 21.22,56.03 49.25,109.21 83.66,158.13 1.98,-5.73 3.92,-11.49 6,-17.19 2.84,-7.74 5.87,-15.37 8.98,-22.94 -103.2,-159.48 -81.75,-374.56 -208.15,-521.44 129.01,131.9 125.98,334.02 224.97,483 4.59,-10.06 9.24,-20.07 13.84,-30.08 -39.57,-66.42 -61.84,-142.26 -63.12,-219.78 11.24,66.96 38.34,130.34 78.74,184.56 5.4,-12.75 10.46,-25.65 14.96,-38.8 -55.13,-141.73 -65.14,-323.05 -203.8,-411.81 131.92,71.14 164.58,225.94 218.29,356.91 5.06,-27.97 8.12,-56.01 9.76,-84.08 -24.64,-79.16 -59.74,-154.8 -104.65,-224.55 40.46,47.4 75.82,98.87 105.97,153.29 -0.22,-11.9 -0.58,-23.79 -1.16,-35.69 -30.68,-79.5 -88.88,-146.74 -163.03,-189.38 62.75,26.19 117.21,68.84 158.3,122.16 -1.52,-17.2 -3.24,-34.38 -5.06,-51.55 -15.82,-56.69 -59.59,-103.78 -115.11,-124.59 41.71,7.77 79.24,29.34 107.96,59.48 -0.19,-1.74 -0.39,-3.48 -0.58,-5.22 -1.24,-11.3 -0.32,-21.76 2.22,-31.6 -18.27,-44.92 -76.13,-73.02 -117.38,-90.67 45.02,10.49 97.71,28.55 129.7,62.83 8.05,-12.69 18.78,-24.33 30.88,-35.39 -34.98,-7.9 -69.2,-19 -102.07,-33.45 43.89,7.99 88.62,10.51 133.11,7.66 8.5,-6.63 17.11,-13.21 25.52,-19.84 -69.29,-11.01 -134.7,-41.07 -198.33,-70.79 75.07,23.19 153.13,47.68 232.24,41.4 l 2.22,-2.2 c 13.62,-13.99 25.95,-28.6 37.32,-43.67 -67.79,11.66 -138.43,4.31 -202.39,-22.87 75.51,20.98 156.73,15.83 228.39,-14.75 5.59,-8.84 10.96,-17.8 16.13,-26.85 -32.07,6.38 -64.32,11.85 -96.76,16.1 38.88,-14.67 77.09,-31.02 114.59,-48.89 20.22,-38.86 38.26,-78.84 57.81,-118.25 -117.48,13.83 -234.57,55.59 -347.81,85.02 119.32,-43.07 241.4,-100.07 367.16,-122.57 7.24,-13.43 14.81,-26.72 22.86,-39.81 -67.65,-12.36 -138.15,-2.27 -199.93,28.54 63.99,-45.68 142.91,-66.56 221.06,-60.68 7.49,-10.61 15.41,-21.05 23.86,-31.25 -182.74,-42.55 -351.22,120.39 -534.6,113.86 z m -291.65,235.25 0.04,-0.04 c 7.09,-4.58 -36.85,-49.64 -59.56,-26.26 -17.13,17.65 45.28,33.92 59.42,26.34 l 0.1,-0.04 z m -3441.3,-585.9 c 38.51,-20.4 -2.18,-51.95 -25.43,-25.71 -19.42,21.92 4.62,36.79 25.43,25.71 -2.97,1.58 5.94,-3.15 0,0 z m 66.04,25.9 c 6.86,-16.92 -48.64,-21.43 -48.57,6.24 0.07,24.46 41.84,13.95 48.57,-6.24 -0.81,2.42 0.45,-1.09 0,0 z m 237.63,39.06 c 20.44,-4.95 -50.72,-22.37 -62.39,-21.41 -35.46,2.93 -71.57,22.25 -87.88,54.74 50.25,-7.03 101.5,-19.4 150.27,-33.33 -2.31,0.66 2.35,-0.57 0,0 z m 24.5,106.98 c 37.63,14.15 87.26,2.51 114.44,-27.37 -2.69,2.95 1.37,-1.35 0,0 4.3,-4.23 -88.71,-4.57 -114.44,27.37 z m 291.98,-272.92 c -1.96,2.4 1.01,-1.08 0,0 10,-10.75 -60.68,-18.8 -79.63,7.4 23.8,19.24 59.92,16.68 79.63,-7.4 z m -88.33,144.97 c -7.61,14.96 48.21,24.43 53.18,-5.36 3.96,-23.68 -44.55,-14.58 -53.18,5.36 1.04,-2.41 -0.55,1.08 0,0 z m 227.64,31.9 c 8.88,-16.69 -68.36,-15.44 -64.82,14.24 3.22,27.01 55.96,5.34 64.82,-14.24 -1.19,2.63 0.64,-1.2 0,0 z m 178.76,-106.23 c 18.29,-10.12 -32.2,-16.93 -39.97,-17.9 -32.24,-4.05 -69.54,2.95 -96.32,21.63 39.96,21.79 97.52,20.41 136.29,-3.73 -3.77,2.35 1.89,-1.04 0,0 z m 272.05,81.43 c 3.43,-0.74 6.83,-1.62 10.18,-2.66 -67.43,-34.72 -163.53,-31.71 -228.84,6.88 70.11,14.3 148.94,10.18 218.66,-4.22 -3.2,0.66 3.2,-0.62 0,0 z m 282.98,23.86 c 19.32,-7.18 -28.56,-21.65 -36.03,-23.83 -30.7,-8.95 -68.06,-7.74 -96.83,6.56 35.31,27.62 91.56,35.12 132.86,17.27 -4.02,1.74 2,-0.74 0,0 z m 244.84,30.39 c -30.31,-10.12 -67.66,-10.34 -96.94,2.85 34.19,28.95 90.08,38.6 132,22.35 -4.08,1.59 2.02,-0.67 0,0 19.56,-6.44 -27.67,-22.73 -35.06,-25.2 z m -80.46,-152.35 c 28.35,27.04 75.6,36.6 111.62,19.47 -3.51,1.67 1.73,-0.7 0,0 6.35,-2.59 -76.47,-38.89 -111.62,-19.47 z m 329,247.44 c 39.17,32.04 101.06,47.73 150.71,35.38 -4.76,1.19 2.36,-0.47 0,0 22.76,-4.52 -44.46,-30.64 -53.14,-33.2 -31.11,-9.18 -66.35,-11.46 -97.57,-2.18 z m 55.7,-178.54 c 12.58,-13.24 -31.87,-38.13 -42.79,-13.44 -9.53,21.56 28.89,29.93 42.79,13.44 -1.6,1.91 0.79,-0.83 0,0 z m 354.1,282.53 c 12.06,-3.3 -45.33,-48.3 -77.29,-35.31 12.48,29.28 46.69,45.85 77.29,35.31 -3.03,1.05 1.48,-0.4 0,0 z m 159.39,-96.95 c 7.3,-1.57 -65.53,-51.88 -102.97,-38.98 21.8,31.48 65.38,49.34 102.97,38.98 -3.66,1.01 1.8,-0.39 0,0 z m 148.36,155.84 c 17.51,-7.11 -42.07,-55.62 -58.44,-30.67 -14.89,22.7 39.08,40.03 58.44,30.67 -2.6,1.26 1.25,-0.51 0,0 z m 196.88,-15.23 c 13.96,-3.14 -30.66,-56.13 -58.03,-30.91 -26.79,24.68 38.88,36.55 58.03,30.91 -2.82,0.83 1.34,-0.3 0,0 z m -3119.7,-267.17 c -57.68,-28.49 -119.96,-47.38 -187.72,-56.99 29.15,22.75 52.66,51.87 66.26,85.19 23.33,19.3 45.3,40.24 65.53,62.78 6.61,-38.66 -6.42,-81.34 -33.54,-109.72 30.89,2.62 60.85,9.08 89.47,18.74 z m 3772.65,325.51 c -29.62,-3.51 -59.58,-13.99 -87.1,-28.23 -4.26,-0.33 -8.5,-0.75 -12.68,-1.38 -24.97,-3.72 -49.06,-10.66 -71.84,-20.31 61,35.96 124.25,68.37 190.99,95.3 -288.39,-95.16 -513.69,-296.91 -766.58,-456.42 -378.63,-238.83 -804.95,-397.95 -1249.69,-454.8 -236.51,-30.23 -474.86,-35.25 -712.09,-10.52 -223.63,23.32 -450.53,66.98 -640.47,194.13 202.4,-155.36 462.39,-209.71 711.42,-235.59 452.03,-46.98 913.73,14.57 1338.3,176.61 235.42,89.85 458.28,212 662.11,360.01 129.36,93.94 253.72,194.92 386.79,281.95 -10.63,-9.17 -20.67,-19.01 -29.92,-29.6 -66.56,-42.18 -148.06,-104.75 -147.67,-150.07 -65.21,-90.5 -116.71,-198.42 -178.93,-275.43 101.67,54.69 163.1,151.84 227.93,246.3 23.59,0.23 49.47,3.99 59.9,3.09 19.95,-1.72 40.19,-5.09 59.51,-10.82 -42.08,-11.61 -84.17,-23.23 -126.25,-34.84 58.21,4.4 116.43,8.81 174.65,13.23 10.95,-7.03 21,-15.43 29.83,-25.42 -64.7,-1.89 -129.09,-10.76 -191.69,-27.56 71.47,6.64 143.53,4.31 214.32,-7.65 3.03,-6.68 5.55,-13.58 7.69,-20.64 -70.37,2.26 -140.75,4.52 -211.12,6.78 72.78,-13.55 145.56,-27.09 218.33,-40.63 1.43,-11.11 2.06,-22.42 2.17,-33.78 -91,2.38 -181.57,14.35 -270,36.06 86.69,-33.47 176.87,-57.18 268.69,-71.29 -0.73,-9.01 -1.7,-17.95 -2.85,-26.74 -96.84,7.72 -192.64,25.97 -285.43,54.8 89.73,-40.06 183.79,-69.76 280.1,-89.13 -0.17,-0.95 -0.33,-1.94 -0.49,-2.88 -1.45,-8.13 -3.42,-22.46 -6.2,-38.04 -64.05,14.81 -128.1,29.62 -192.14,44.44 61.54,-26.21 123.09,-52.42 184.64,-78.63 -4.7,-16.88 -10.74,-30.74 -18.57,-34.23 -14.68,-6.55 -71.95,19.2 -87.74,23.41 -46.53,12.41 -93.07,24.83 -139.6,37.24 -60.86,16.24 -149.48,59.47 -212.81,56.79 -26.5,-1.12 -39.51,-15.54 -60.66,-30.58 -51.01,-36.28 -105.54,-68.01 -161.82,-95.32 -130.73,-63.43 -274.84,-98.15 -409.29,-153.7 -88.11,-36.4 -176.88,-73.67 -263.2,-114.91 -148.25,-43.7 -296.4,-84.75 -447.08,-123.48 116.25,-15.25 241.16,-1.42 357.38,36.65 16.75,-18.17 54.81,-18.32 70.29,-40.92 7.06,-10.32 7.98,-31.95 10.15,-43.65 7.81,-42.08 38.15,-201.55 -15,-213.17 -21.73,-4.75 -69.1,26.55 -87.32,35.22 -66.34,31.54 -130.52,67.86 -194.16,104.45 -70.43,40.49 -152.8,118.75 -236.01,118.41 -206,-0.85 -400.11,-5.56 -603.44,31.69 -223.13,40.87 -444.43,92.23 -665.05,144.76 -88.87,21.16 -177.63,42.77 -266.28,64.83 -25.56,6.36 -63.27,23.53 -93.59,25.74 -48.77,183.42 -196.55,355.94 -401.55,312.55 121.46,-17.76 208.46,-79.31 274.07,-162.61 -21.36,9.24 -42.15,19.81 -62.17,31.72 25.53,-28.28 54.01,-53.82 84.71,-76.36 3.85,-8.52 7.62,-17.12 11.26,-25.8 -43.81,24.04 -84.99,52.72 -122.51,85.91 41.23,-52.17 89.53,-98.34 143.69,-136.91 1.33,-2.93 2.75,-6.03 4.22,-9.22 -67.94,38.22 -130.23,86.04 -184.43,142.25 57.38,-77.17 128.34,-143.49 208.71,-196.21 1.2,-2.85 2.39,-5.71 3.56,-8.59 -96.74,52.44 -182.16,122.98 -252.54,208.3 70.5,-104.02 162.18,-190.97 269.34,-256.08 0.98,-3.52 1.9,-7.01 2.7,-10.43 -133.53,63.12 -245.96,163.63 -325.46,288.61 73.07,-136.73 183.84,-249.38 319.28,-324.03 -1.9,-3.54 -4.28,-6.82 -7.24,-9.79 -157.66,88.64 -290.35,213.57 -388.57,365.94 85.34,-153.31 204.55,-283.02 348.8,-381.56 -52.7,-2.05 -108.87,52.1 -141.71,82.22 -65.11,59.69 -122.3,128.59 -175.76,198.71 -7,9.19 -13.9,20.08 -20.97,31.34 -3.87,7.73 -7.74,15.46 -11.42,23.33 -31.24,66.86 -56.85,163.02 -137.58,185.17 38.78,-34.23 54.26,-84.01 68.94,-133.47 -7.24,2.04 -14.25,4.17 -19.41,6.91 -87.34,46.2 -144.91,146.57 -222.21,211.28 23.66,-1.75 47.76,-0.95 70.91,1.85 -13.35,-4.16 -25.76,-9.95 -35.65,-16.94 46.17,-36.45 88.7,-77.68 126.55,-122.7 -1.65,26.35 -10.82,53.88 -25.31,75.95 28.01,22.9 71.42,-19.79 96.1,10.49 -35.05,-0.98 -54.82,45.47 -87.64,55.99 -10.33,3.31 -22.12,4.58 -34.31,4.15 10.73,2.49 20.99,5.39 30.64,8.64 94.1,-14.17 195.42,-55.87 251.41,60.09 -46.97,-21.62 -97.48,-35.9 -149.48,-33.73 -11.34,0.32 -23.33,1.51 -35.62,2.77 43.55,23.54 83.22,54.47 115.94,91.45 93.8,55.26 144.24,159.35 164.4,267.09 4.72,8.91 9.01,18.28 12.73,28.2 55.34,147.8 -57.29,295.89 -198.32,332.94 107.39,-65.43 208.43,-196 148.13,-326.07 -63.82,-137.64 -234.41,-144.47 -358.47,-99.63 99.54,-74.26 248.24,-79.12 341.2,-2.58 -49.67,-100.66 -123.44,-186.74 -244.26,-191.02 -110.27,-3.91 -207.03,95.75 -321.24,79.26 124.97,-17.87 215.5,-128.8 339.92,-124.33 -136.89,-74.6 -302.09,-112.87 -377.13,32.68 3.84,-34.13 17.03,-60.6 36.23,-80.79 -9.83,1.94 -19.55,4.67 -28.92,9.17 -18.99,9.11 -33.44,22.76 -49.85,35.33 -24.71,18.9 -37.91,25.46 -68.66,35.17 -142.74,45.06 -223.06,157.84 -344.76,234.07 -124.39,77.9 -279.04,74.32 -401.16,152.78 -56.45,36.26 -105.77,83.74 -148.81,134.96 -14.88,17.7 -69.45,68.96 -29.2,68.93 125.79,-64.99 202.67,-209.21 347.17,-243.45 123.47,-29.26 277.33,49.62 399.53,12.01 34.27,-48.55 78.21,-89.21 141.66,-86.11 49.65,2.43 99.9,38.81 101.7,91.63 2.57,75.63 -80.88,107.29 -128.84,147.33 11.52,-17.04 55,-63.61 78.65,-106.82 -8.45,10.51 -19.87,19.4 -31.01,25.06 -14.66,7.44 -35.95,5.21 -35.48,5.08 -37.83,11.09 -31.44,19.01 -54.19,57.14 -21.58,36.18 -53.8,51.83 -86.57,67.71 -19.37,26.27 -48.25,45.68 -80.36,51.86 15.63,-22.78 40.23,-47.94 64.83,-69.77 37.95,-58.97 54.02,-126.22 97.65,-185.85 12.43,-16.98 32.5,-29.25 53.71,-35.86 -64.02,14.32 -101.89,98.67 -133.68,148.39 -39.94,62.47 -87.41,120.98 -142.18,171.34 18.19,-11.94 40.35,-18.23 68.74,-15.89 -43.38,28.46 -49.18,83.01 -74.81,123.91 -20.44,32.63 -51.95,43.64 -73.38,72.93 l -51.73,25.86 c 46.12,-51.5 64.14,-136.54 106.96,-185.43 -6.81,5.73 -13.75,11.32 -20.77,16.8 -3.26,4.73 -6.4,9.5 -9.43,14.33 l 0.35,0.3 -0.73,0.3 c -16.79,26.89 -30.54,55.13 -46.03,83.09 -38.07,68.77 -95.62,122.23 -160.86,165.25 64.83,-7.16 128.63,-21.88 192.18,-38.61 28.93,-19.84 56.68,-42.62 84.77,-57.55 68.07,-36.17 152.2,-66.54 230.31,-55.2 79.2,11.49 138.25,49.89 217.85,7.88 68.03,-35.9 107.9,-112.48 105.76,-188.48 9.3,4.96 17.48,11.02 24.56,17.9 l -8.52,-31.78 c -14.85,-35.93 -45.41,-66.19 -81.53,-80.68 95.75,-18.51 200.52,106.45 121.45,170.83 6.86,34.13 -1.38,71.14 -24.95,98.28 21.69,-5.8 43.19,-11.99 64.52,-18.57 15.17,-25.46 22.61,-55.71 19.75,-85 68.22,7.01 139.06,-21.54 183.35,-73.91 6.81,31.65 -0.71,65.19 -17.99,92.43 21.14,-8.53 42.18,-17.29 63.16,-26.23 27.71,-27.36 63.79,-47.51 97.62,-42.82 48.76,-21.9 97.41,-44.31 146.31,-66.55 13.18,-15.06 22.95,-32.12 26.21,-51.29 4.69,-27.61 -4.74,-30 12.24,-51.06 8.37,-10.4 44.01,-23.59 55.5,-29.46 98.51,-50.33 199.98,-95.23 301.81,-138.38 56.83,-24.07 116.45,-49.46 177.7,-72.41 -186.31,51.51 -368.83,117.63 -548,195.63 94.84,-53.8 192.78,-101.71 293.1,-143.82 l -324.9,108.23 c 6.3,-181.81 -94.39,-338.29 -244.7,-434.19 62.51,0.9 124.85,24.26 172.56,64.66 -2.81,-35.67 -13.82,-70.9 -31.56,-102.13 -59.99,-30.52 -121.03,-57.23 -186.28,-80.83 35.07,-13.19 73.67,-14.76 111.06,-7.22 23.39,-25.83 83.8,-69.07 99.58,-43.38 12.64,20.57 -41.29,38.82 -77.86,48.82 18.81,5.65 37.05,13.55 54.09,23.45 163.56,-43.98 358.51,57.2 410.45,219.68 38.04,52.39 63.49,114.24 71.58,180.83 507.12,-200.53 1071.38,-253.02 1606.85,-150.36 105.84,11.11 210.98,29.17 314.46,53.93 70.92,16.97 170.6,31.07 234.25,69.14 87.03,52.07 116.85,208.83 155.28,294.66 43.11,96.25 86.76,228.18 154.65,309.97 19.84,23.91 27.48,24.88 49.15,18.06 -87.23,-141.96 -162.69,-290.75 -225.23,-445.26 73.94,151.89 160.79,296.98 259.3,434.15 7.8,-2.49 15.6,-4.99 23.34,-7.67 -74.32,-109.89 -140.36,-225.16 -197.1,-345.11 68.53,116.65 146.09,227.7 231.97,332.21 9.72,-3.8 19.37,-7.74 28.93,-11.89 -64.58,-92.92 -122.95,-190.09 -174.18,-291.01 62.14,96.85 131.24,189.09 206.34,276.25 13.08,-6.39 26.52,-13.43 40,-21.14 -47.83,-69.65 -93.46,-140.51 -136.85,-213.07 53.2,67.02 108.45,132.02 165.8,195.46 9.11,-5.91 18.12,-12.12 26.93,-18.64 -55.84,-75.81 -111.68,-151.63 -167.52,-227.44 65.13,68.37 130.25,136.75 195.38,205.12 10.01,-8.72 19.53,-17.9 28.43,-27.53 -60.24,-74.25 -120.49,-148.5 -180.73,-222.76 67.89,64.95 135.78,129.9 203.66,194.85 6.94,-9.65 13.12,-19.7 18.51,-30.12 -64.01,-56.81 -121.37,-120.85 -170.27,-191.14 54.9,59.89 116.58,113.22 183.58,159.08 3.75,-11.78 6.45,-23.97 7.8,-36.61 -44.5,-44.63 -89.01,-89.27 -133.52,-133.91 44.21,30.88 88.41,61.75 132.62,92.63 -8.11,-46.65 -41.52,-68.46 -75.8,-104.6 -3.5,-3.7 -6.78,-7.19 -9.69,-10.54 -15.72,-0.75 -31.42,-1.57 -47.11,-2.48 7,11.41 14,22.82 21,34.24 -21,-11.49 -42,-22.98 -63,-34.47 l 1.55,-2.43 c -9.25,-0.71 -18.49,-1.49 -27.73,-2.36 4.14,9.32 8.28,18.64 12.42,27.96 -16.97,-10.75 -33.95,-21.5 -50.93,-32.25 -5.95,-0.76 -11.91,-1.47 -17.86,-2.32 l -1.87,-0.29 c 13.45,23.21 26.91,46.43 40.36,69.64 -27.63,-25.46 -55.27,-50.93 -82.9,-76.39 -11.2,-1.92 -22.38,-3.92 -33.56,-6.08 22.9,37.88 45.79,75.76 68.69,113.63 -38.8,-40.53 -77.61,-81.07 -116.42,-121.61 l 1.53,-1.7 c -7.63,-1.72 -15.26,-3.51 -22.88,-5.35 25.96,44.13 54.87,86.51 86.91,126.48 -48.71,-42.28 -93.68,-88.71 -134.31,-138.8 -6.12,-1.71 -12.24,-3.41 -18.34,-5.2 21.21,50.99 46.39,100.3 75.87,147.04 -45.48,-49.61 -86.05,-103.56 -120.87,-161.15 -52.46,-17.48 -103.69,-38.31 -152.84,-63.02 148.15,26.96 294.99,58.18 444.44,77.83 10.5,1.38 21.1,2.64 31.78,3.84 -29.06,-6.99 -58.1,-14.08 -87.08,-21.41 -114.9,-29.08 -224.19,-81.08 -338.55,-107.99 -48.73,-11.46 -95.69,-5.58 -141.61,-19.8 -79.81,-24.72 -156.26,-58.62 -237.32,-80.97 -315.43,-86.98 -642.6,-105.13 -967.94,-82.85 -289.23,19.8 -608.32,50.15 -880.17,159 -4.16,-6.63 -8.28,-13.4 -12.39,-20.24 0.96,-3.06 2.04,-6.39 3.27,-10.06 11.69,-34.83 10.07,-56.89 39.94,-80.62 9.09,-7.22 101.73,-37.35 75.97,-41.92 2.69,0.48 -5.41,-1.19 0,0 -46.93,-10.36 -83.52,17.17 -125.9,13.63 -13.12,-1.09 -71.83,-43.18 -101.64,-62.96 -35.66,-52.45 -76.5,-99.78 -128.17,-132.68 49.7,-6.51 104.14,-39.93 131.92,-79.69 -2.95,4.24 1.55,-2.01 0,0 14.75,-19.17 -56.4,9.08 -64.89,13.33 -28.78,14.4 -56.05,35.2 -74.74,61.66 -18.81,-11.22 -38.99,-20.6 -60.9,-27.59 103.51,-178.59 324.45,-157.65 482.34,-244.57 245.21,-134.98 547.21,-168.46 821.85,-172.68 493.76,-7.6 977.14,96.97 1421.22,313.12 214.66,104.49 399.48,238.28 593.48,373.62 115.02,80.24 246.93,146.19 370.33,212.52 16.79,9.02 35.46,18.23 53.74,28.26 66.29,3.94 130.62,-8.31 131.85,-64.2 54.13,49.2 21.74,135.98 -40.99,150.04 6.26,19.35 5.58,41.67 -5.56,68 -14.36,33.96 -34.63,62.59 -45.76,98.53 -4,12.93 -4.38,41.97 -12.05,52.6 -12.24,16.95 -49.81,26.96 -70.3,36.79 5.79,-100.38 -82.51,-158.35 -182.46,-195.15 50.03,32.34 92.82,74.26 124.97,132.01 16.75,30.09 30.5,61.69 42.17,94.16 3.24,-0.95 6.68,-1.95 10.51,-3.07 36.83,-10.81 72.4,-22.6 108.06,-34.95 65.48,-60.02 105.89,-131.44 124.72,-219.5 -8.48,4.02 -18.72,5.97 -30.79,5.56 -5.16,64.75 -40.73,127.59 -98,159.83 47.2,-46.12 53.91,-94.12 65.77,-154.65 2.8,-14.32 -6.24,-24.67 3.97,-38.07 13.59,-17.85 39.71,-3.59 53.39,-35.88 18.48,-43.63 -20.53,-125.58 -58.59,-148.02 -15.22,16.67 -62.84,18.04 -77.57,16.3 z M 3157.42,4641.56 c 21.15,-51.13 53.47,-96.68 93.66,-133.83 -38.88,22.38 -72.89,53.13 -98.44,90.43 -25.23,36.85 -42.63,79.38 -61.98,120.3 33.14,-25.86 72.68,-41.73 100.54,-68.08 7.49,-7.09 14.46,-15.29 21.15,-24.03 4.99,-10.25 10.34,-20.41 16.04,-30.42 -13.91,8.97 -27.33,18.73 -40.12,29.3 20.85,-29.43 45.41,-56.03 72.81,-79.38 11.24,-15.15 23.38,-29.63 36.38,-43.22 -57.99,32.49 -106.76,80.71 -140.04,138.93 z m -715.96,848.98 c 5.22,-9.13 10.65,-18.47 16.33,-27.82 -108.66,33.64 -257.39,-17.22 -358.38,1.93 -47.39,8.98 -88.96,32.02 -128.54,59.89 141.46,-83.75 312.38,10.99 470.59,-34 z M 4610.2,5249.49 c 147.93,-36.05 295.23,-65.03 444.77,-79.32 -118.1,-3.61 -236.77,-1.18 -356.04,8.06 -98.34,7.61 -195.57,19.77 -291.77,35.99 68.66,-0.85 136.8,9.32 203.04,35.27 z m 2428.43,203.36 c -3.33,0.68 1.61,-0.22 0,0 10.51,-1.46 -45.23,-56.06 -80.63,-46.07 11.87,31.5 46.94,52.89 80.63,46.07 z m 1030.39,-210.44 c -51.89,76.54 -68.58,166.51 -117.91,242.96 -41.79,64.76 -98.84,120.49 -156.7,170.84 -53.9,46.9 -53.41,44.63 -44.86,115.31 9.01,74.61 13.9,150.12 11.35,225.28 -6.19,182.74 -106.85,325.93 -140.85,502.25 -6.77,35.14 -0.07,105.26 -40.03,117.63 -16.69,5.16 -52.45,-11.53 -66.43,-17.44 -132.04,-55.87 -182.29,-198.53 -205.97,-329.05 -33.13,-182.58 -40.79,-385.58 -127.87,-553.24 -82.28,-158.4 -273.42,-209.3 -438.84,-232.98 185.76,214.06 -156.21,416.73 -323.29,470.03 -44.63,14.23 -90.49,39.15 -123.51,2.09 -58.75,-65.93 -95.65,-180 -133.5,-258.78 -46.08,-95.88 -78.23,-201.93 -129.68,-295.02 -30.25,-28.89 -59.85,-56.7 -94.36,-80.07 -145.77,-53.29 -306.44,-80.85 -459.23,-98.49 -404.63,-46.75 -818.12,38.04 -1211.89,163.65 -31.95,12.36 -63.78,25.05 -95.37,38.32 l -400.24,139.9 c -226.79,92.01 -441.2,213.7 -673.3,291.5 -107.08,35.9 -217.44,65.75 -329.35,81.96 -66.8,9.69 -132.93,2.12 -199.05,10.95 -118.86,15.88 -235.82,52.52 -352.03,81.03 -52.5,12.89 -168.71,62.03 -217.5,11.06 -29.86,-31.2 11.05,-60.56 50.75,-85.13 4.93,-20.89 9.87,-41.77 14.8,-62.66 9.51,11.66 19.01,23.32 28.52,34.98 1.78,-1.35 3.46,-2.67 4.94,-3.97 l 2.37,-2.22 c 4.6,-23.61 9.2,-47.22 13.8,-70.83 9.43,8.6 18.86,17.21 28.29,25.81 4.75,-6.02 9.33,-12.17 13.78,-18.4 1.86,-28.36 3.72,-56.73 5.59,-85.1 9.68,10.59 19.37,21.18 29.05,31.78 4.19,-6.95 8.35,-13.92 12.49,-20.91 2,-23.88 4,-47.77 6,-71.66 8.29,6.86 16.56,13.72 24.84,20.58 3.56,-5.65 7.18,-11.26 10.88,-16.83 0.99,-23.63 1.98,-47.26 2.98,-70.89 10.93,7.59 21.87,15.18 32.8,22.78 4.28,-5.04 8.67,-10 13.24,-14.85 -24.68,-6.39 -50.22,-13.15 -76.25,-19.52 -1.23,9.1 -2.47,18.19 -3.7,27.29 -16.02,-13.04 -32.05,-26.08 -48.07,-39.12 -6.55,-1.36 -13.12,-2.68 -19.7,-3.93 0.33,14.76 0.67,29.51 1.02,44.26 -18.64,-17.63 -37.28,-35.26 -55.92,-52.89 -11.26,-1.37 -22.52,-2.48 -33.74,-3.23 2.02,18.77 2.94,37.65 2.57,56.55 -18.35,-21.07 -38.87,-40.07 -60.94,-57.16 -51.58,2.74 -101.59,14.88 -147.52,42.12 -45.15,26.78 -131.29,109.51 -177.79,37.16 -19.81,-30.82 -5.17,-49.83 10.64,-74.65 51.76,-81.3 132.83,-156.21 215.16,-204.83 112.28,-66.3 248.72,-66.27 363.05,-129.66 112.25,-62.25 186.66,-169.21 305.11,-224.02 35.53,-16.44 81,-23.2 113.57,-42.4 39.97,-23.56 63.06,-55.51 111.86,-68.58 32.45,-8.69 51.19,-7.55 78.35,-23.76 21.37,-12.77 40.58,-35.55 59.12,-52.05 34.01,-30.24 66.8,-61.81 99.9,-93 30.87,-72.42 45.85,-152.12 92.75,-217.22 45.43,-63.05 117.5,-107.43 194.37,-119.16 15,-2.29 32.8,-5.76 47.15,-4.76 41.05,-44.24 85.79,-84.89 135.91,-115.21 100.36,-60.72 232.74,-19.64 197.24,118.13 370.64,-93.4 745.3,-191.75 1123.99,-246.44 100.46,-14.51 200.95,-16.54 302.43,-16.19 59.98,0.21 148.68,19.62 205.06,2.48 53.89,-16.38 111.96,-67.88 160.67,-96.14 65.2,-37.84 130.9,-75.21 198.53,-108.59 38.89,-19.2 98.33,-57.47 144.97,-50.89 72.07,10.18 60.49,134.78 57.22,184.08 -4.62,69.62 -4.94,147.05 -70.99,185.65 106.11,49.93 213.2,97.98 321.76,142.34 118.88,48.56 244.89,80.15 361.9,132.51 56.83,25.42 111.75,55.38 163.9,89.39 17.78,11.6 47.62,42.33 67.76,44.94 44.17,5.7 119.28,-31.83 161.49,-43.09 76.11,-20.31 152.21,-40.61 228.32,-60.92 50,-13.34 81.14,-32.84 103.74,22.99 34.06,84.13 50.78,199.64 30.4,287.9 -26.53,114.91 -131.39,161.76 -240.07,164.04 10.96,14.86 22.24,29.41 34,43.47 124.05,109.83 286.27,133.36 450.27,98.18 177.37,-38.05 364.69,-146.15 550.66,-114.02 17.51,3.03 64.41,8.59 76.51,26.36 24.88,36.54 -41.82,90.57 -61.37,119.42"
         style="fill:#393536;fill-opacity:1;fill-rule:nonzero;stroke:none"
         id="path92"
         inkscape:connector-curvature="0" /><path
         d="m 2569.33,5789.12 c 10.88,-17.82 22.48,-35.25 34.76,-52.1 7.39,18.82 19.76,35.55 35.28,48.49 14.54,-0.07 29.11,-0.1 43.46,-0.74 -35.32,-25.25 -52.86,-69.5 -13.76,-94.52 -0.11,20.34 13.21,39.95 24.87,51.2 28.34,19.61 61.76,16.88 94.16,12.19 23.54,-18.2 39.98,-44.58 34.41,-73.61 0.02,3.08 -0.12,6.23 -0.58,9.55 -5.61,39.72 -41.31,53.36 -71.51,46.04 3.62,-3.54 6.25,-8.43 7.16,-14.84 4.08,-28.91 -33.74,-38.31 -47.44,-19.01 -3.05,-8.19 -4.23,-17.65 -2.72,-28.36 8.15,-57.71 79.86,-60.45 105.83,-23.64 63.63,35.02 29.64,120.94 -18.03,153.38 -98.26,66.86 -219.76,-10.29 -322.58,38.9 25.87,-34.22 59.71,-47.61 96.69,-52.93"
         style="fill:#393536;fill-opacity:1;fill-rule:nonzero;stroke:none"
         id="path94"
         inkscape:connector-curvature="0" /><path
         d="m 1849.83,5810.32 -0.92,-0.14 c -1.03,-0.02 -2.09,-0.04 -3.17,-0.06 -2.15,0.39 -4.31,1.02 -6.43,2.33 -8.6,5.27 -15.64,16.65 -22.08,29 -12.67,25.29 -23.44,57.32 -34.5,91.69 -5.59,17.19 -10.72,35.19 -16.41,53.36 -5.47,18.27 -11.03,36.82 -16.58,55.37 -5.66,18.5 -11.63,37.18 -16.63,55.17 -5.13,18.1 -9.51,35.99 -12.87,53.48 -2.66,17.48 -5.51,34.49 -5.45,50.54 -0.1,16.01 1.12,31.13 4.95,44.3 4,13.04 10.45,23.96 18.6,31.37 5.09,4.64 10.52,7.8 15.85,10.17 -29.41,-20.74 -40.12,-82.78 -5.34,-206.23 37.16,-131.87 70.83,-253.62 100.98,-270.35 z m -90.26,496.86 c -1.03,0.05 -1.99,0.22 -2.88,0.54 -1.77,0.72 -3.1,1.71 -4.24,2.63 l -1.74,1.35 -0.85,0.77 -0.05,0.04 -0.04,0.04 0.25,-0.46 -0.19,0.26 -0.38,0.51 -0.66,0.86 c -0.73,0.23 -2.54,2.16 -3.6,3.81 -1.2,1.82 -1.92,4.06 -2,6.16 -0.07,2.1 0.44,4 1.21,5.35 1.53,2.76 3.29,3.69 3.2,3.75 l -0.05,-0.03 1.18,0.74 c 0.79,0.48 1.81,1 3.4,1.4 3.01,0.93 8.17,0.29 11.95,-3.17 1.9,-1.66 3.33,-3.81 4.45,-6 l 0.6,-1.56 0.69,-2.1 c 0.19,-0.88 0.33,-2.35 0.27,-3.49 -0.11,-2.45 -1,-4.79 -2.27,-6.72 -0.67,-0.96 -1.48,-1.78 -2.33,-2.49 l -2.46,-1.42 c -2.38,-1.02 -2.19,-0.66 -3.46,-0.77 z m 212.9,-606.96 c 0,0 -0.81,2.18 -2.56,5.68 -1.72,3.52 -4.38,8.35 -7.86,13.85 -0.89,1.4 -2,2.93 -3,4.4 1.53,2.27 2.9,4.62 4.19,7.14 2.29,4.73 3.92,9.87 4.53,15.04 1.38,10.44 -1.89,20.1 -6.08,26.39 -2.05,3.24 -4.49,5.71 -6.62,7.76 -2.12,2.07 -4.32,3.48 -6.04,4.62 -3.55,2.21 -5.85,2.89 -5.85,2.89 0,0 1.19,-2.08 2.79,-5.63 1.57,-3.54 3.65,-8.59 4.61,-14.39 1.01,-5.78 0.88,-12.02 -1.29,-17.86 -0.97,-2.71 -2.34,-5.4 -4.02,-8.06 -4.03,4.73 -8.28,9.47 -12.82,14.03 -11.97,12.02 -25.22,22.75 -36.18,29.79 -2.07,1.33 -4,2.5 -5.85,3.59 3.11,4.23 4.56,9.66 3.5,15.23 -1.93,10.06 -11.25,16.73 -21.26,15.67 4.79,20.26 -13.44,69.28 -14.74,178.51 -1.69,142.62 -43.47,297.21 -84.18,295.46 3.81,3.18 6.24,6.76 7.98,10.93 1.96,4.92 2.23,10.2 1.21,14.9 -0.57,2.42 -1.23,4.43 -2.46,6.72 -0.63,1.28 -1.08,1.76 -1.57,2.5 -0.84,1.23 -1.42,1.78 -2.18,2.62 -2.94,3.03 -6.59,4.76 -9.89,5.58 -6.78,1.46 -11.87,0.06 -15.2,-0.88 -3.44,-1.08 -5.12,-1.99 -5.12,-1.99 l -0.05,-0.03 c 0,0 -1.81,-0.8 -4.99,-2.86 -1.52,-1.09 -3.6,-2.41 -5.66,-4.57 -2.1,-2.11 -4.38,-5.02 -5.87,-8.97 -1.33,-4.1 -2.1,-8.49 -0.12,-14.28 1.15,-3.99 4.86,-9.31 9.45,-12.42 1.31,-0.89 2.72,-1.63 4.18,-2.26 l -2.6,-1.29 c -2.47,-1.55 -5.44,-2.65 -7.78,-4.79 -10.38,-7.34 -19.48,-19.28 -25.19,-33.69 -5.73,-14.43 -8.59,-30.9 -9.45,-48.18 -1.15,-17.35 0.44,-35.4 2.72,-53.91 2.92,-18.36 6.28,-37.29 11.47,-55.99 4.99,-18.89 10.61,-37.26 16.06,-55.95 5.81,-18.55 11.63,-37.11 17.36,-55.37 5.74,-18.29 12.16,-36.06 18.36,-53.29 6.19,-17.25 12.86,-33.71 19.74,-49.15 6.79,-15.48 14.08,-29.84 22.12,-42.54 8.1,-12.52 16.69,-24.29 29.3,-30.26 3.13,-1.45 6.61,-2.11 9.97,-2.2 1.69,0.21 3.29,0.34 4.92,0.71 1.31,0.42 2.45,0.68 3.89,1.26 l 1.27,0.55 c -0.57,-2.53 -0.64,-5.21 -0.13,-7.91 2.04,-10.61 12.29,-17.57 22.9,-15.53 1.77,0.33 3.38,0.97 4.91,1.72 1.18,-2.05 2.49,-4.24 3.98,-6.59 6.97,-11 17.62,-24.32 29.57,-36.35 4.82,-4.85 9.83,-9.39 14.83,-13.66 -3.31,-2.74 -6.74,-5.21 -9.93,-7.01 -5.64,-3.02 -9.81,-4.2 -14.16,-2.94 -2.19,0.63 -4.39,1.94 -6.34,3.38 -1.84,1.56 -3.54,3.13 -4.86,4.56 -2.71,3.02 -4.26,4.74 -4.26,4.74 0,0 -0.04,-0.6 -0.1,-1.72 -0.04,-1.11 -0.14,-2.79 0.15,-4.89 0.18,-2.12 0.66,-4.71 1.78,-7.66 1.13,-2.94 2.91,-6.35 6.22,-9.43 3.23,-3.09 8.17,-5.6 13.49,-6.24 5.35,-0.76 10.7,0.11 15.64,1.64 4.89,1.63 9.46,3.97 13.63,6.82 2.27,1.56 4.41,3.25 6.47,5.08 1.2,-0.82 2.45,-1.75 3.6,-2.48 5.49,-3.52 10.3,-6.2 13.81,-7.95 3.48,-1.76 5.66,-2.59 5.66,-2.59"
         style="fill:#393536;fill-opacity:1;fill-rule:nonzero;stroke:none"
         id="path96"
         inkscape:connector-curvature="0" /></g></g></svg>