<?xml version="1.0" encoding="UTF-8" standalone="no"?>
<!-- Created with Inkscape (http://www.inkscape.org/) -->

<svg
   xmlns:dc="http://purl.org/dc/elements/1.1/"
   xmlns:cc="http://creativecommons.org/ns#"
   xmlns:rdf="http://www.w3.org/1999/02/22-rdf-syntax-ns#"
   xmlns:svg="http://www.w3.org/2000/svg"
   xmlns="http://www.w3.org/2000/svg"
   xmlns:sodipodi="http://sodipodi.sourceforge.net/DTD/sodipodi-0.dtd"
   xmlns:inkscape="http://www.inkscape.org/namespaces/inkscape"
   id="svg2"
   version="1.1"
   inkscape:version="0.91 r13725"
   xml:space="preserve"
   width="1225"
   height="1225"
   viewBox="0 0 1225 1225"
   sodipodi:docname="logo_4.svg"><metadata
     id="metadata8"><rdf:RDF><cc:Work
         rdf:about=""><dc:format>image/svg+xml</dc:format><dc:type
           rdf:resource="http://purl.org/dc/dcmitype/StillImage" /><dc:title></dc:title></cc:Work></rdf:RDF></metadata><defs
     id="defs6" /><sodipodi:namedview
     pagecolor="#ffffff"
     bordercolor="#666666"
     borderopacity="1"
     objecttolerance="10"
     gridtolerance="10"
     guidetolerance="10"
     inkscape:pageopacity="0"
     inkscape:pageshadow="2"
     inkscape:window-width="1315"
     inkscape:window-height="744"
     id="namedview4"
     showgrid="false"
     inkscape:zoom="0.19265306"
     inkscape:cx="612.5"
     inkscape:cy="612.5"
     inkscape:window-x="51"
     inkscape:window-y="24"
     inkscape:window-maximized="1"
     inkscape:current-layer="g10" /><g
     id="g10"
     inkscape:groupmode="layer"
     inkscape:label="ink_ext_XXXXXX"
     transform="matrix(1.25,0,0,-1.25,0,1225)"><g
       id="g12"
       transform="scale(0.1,0.1)"><path
         d="m 6951.57,4518.97 c 0,-174.28 -92.98,-335.32 -243.91,-422.46 L 5143.91,3193.68 c -75.49,-43.58 -159.67,-65.35 -243.91,-65.35 -84.24,0 -168.42,21.77 -243.91,65.35 l -1563.75,902.83 c -150.93,87.14 -243.91,248.18 -243.91,422.46 l 0,1805.66 c 0,174.28 92.98,335.33 243.91,422.46 l 1563.75,902.84 0,0 c 75.49,43.58 159.66,65.35 243.91,65.36 84.24,-0.01 168.42,-21.78 243.91,-65.36 l 1563.75,-902.84 c 150.93,-87.13 243.91,-248.18 243.91,-422.46 l 0,-1805.66 z M 6757.66,6833.7 5193.91,7736.53 c -90.92,52.49 -192.45,78.76 -293.91,78.75 -101.46,0.01 -202.99,-26.25 -293.91,-78.75 l 0,0 -1563.75,-902.83 c -181.87,-105.01 -293.9,-299.06 -293.91,-509.07 l 0,-1805.66 c 0.01,-210.01 112.04,-404.06 293.91,-509.06 l 1563.75,-902.83 c 90.92,-52.5 192.45,-78.76 293.91,-78.75 101.46,-0.01 202.99,26.26 293.91,78.75 l 1563.75,902.83 c 181.87,105 293.9,299.05 293.91,509.06 l 0,1805.66 c -0.01,210.01 -112.04,404.06 -293.91,509.07"
         style="fill:#393536;fill-opacity:1;fill-rule:nonzero;stroke:none"
         id="path14"
         inkscape:connector-curvature="0" /><path
         d="m 6951.57,4518.97 c 0,-174.28 -92.98,-335.32 -243.91,-422.46 L 5143.91,3193.68 c -75.49,-43.58 -159.67,-65.35 -243.91,-65.35 -84.24,0 -168.42,21.77 -243.91,65.35 l -1563.75,902.83 c -150.93,87.14 -243.91,248.18 -243.91,422.46 l 0,1805.66 c 0,174.28 92.98,335.33 243.91,422.46 l 1563.75,902.84 0,0 c 75.49,43.58 159.66,65.35 243.91,65.36 84.24,-0.01 168.42,-21.78 243.91,-65.36 l 1563.75,-902.84 c 150.93,-87.13 243.91,-248.18 243.91,-422.46 l 0,-1805.66"
         style="fill:#ffffff;fill-opacity:1;fill-rule:nonzero;stroke:none"
         id="path16"
         inkscape:connector-curvature="0" /><path
         d="m 6588.24,6605.26 -1507.46,870.33 c -55.92,32.29 -118.37,48.45 -180.78,48.44 -62.41,0.01 -124.86,-16.15 -180.78,-48.44 l 0,0 -1507.46,-870.33 c -111.87,-64.59 -180.78,-183.95 -180.78,-313.12 l 0,-1740.67 c 0,-129.18 68.91,-248.54 180.78,-313.12 l 1507.46,-870.34 c 55.92,-32.28 118.37,-48.44 180.78,-48.43 62.41,-0.01 124.86,16.15 180.78,48.43 l 1507.46,870.34 c 111.87,64.58 180.78,183.94 180.78,313.12 l 0,1740.67 c 0,129.17 -68.91,248.53 -180.78,313.12"
         style="fill:#393536;fill-opacity:1;fill-rule:nonzero;stroke:none"
         id="path18"
         inkscape:connector-curvature="0" /><path
         d="m 5913.69,5341.81 c 102.02,1.26 197.47,3.17 286.4,5.03 142.46,2.75 282.72,6.33 429.03,10.95 l 139.9,4.99 0,118.04 -140.14,4.99 c -146.07,4.62 -286.33,8.2 -428.7,10.96 -89.02,1.85 -184.47,3.76 -286.37,5.02 l -44.12,0.64 c -43.34,0.64 -87.41,1.29 -132.22,1.86 42.72,9.07 84.72,18.07 126.06,26.92 l 45.76,9.79 c 101.54,21.52 197.7,42.67 279.77,60.78 139.23,30.51 276.02,61.36 418.42,94.39 l 161.54,38.19 0,117.64 -186.76,-30.29 c -144.53,-24.04 -282.71,-47.88 -422.36,-72.86 -83.41,-14.79 -180.86,-32.15 -281.7,-50.91 l -43.83,-8.05 c -42.31,-7.79 -85.35,-15.68 -129.07,-23.8 40.78,17.49 80.85,34.79 120.27,51.8 l 41.57,17.93 c 96.17,41.24 186.06,80.62 262.67,114.25 129.66,56.66 257.87,113.64 392.18,174.3 l 247.03,112.8 0,115.91 -296.25,-110.52 c -136.64,-51.61 -267.59,-101.96 -400.25,-153.94 -83.46,-32.56 -172.78,-67.48 -266.48,-104.94 l -43.17,-17.15 c -39.59,-15.72 -79.84,-31.71 -120.74,-48.04 35.8,24.58 70.97,48.83 105.58,72.7 l 39.14,26.98 c 86.12,59.11 166.6,115.27 235.21,163.21 116.54,81.17 231.11,162.02 350.44,247.32 l 280.47,202.2 c -12.13,19.13 -24.66,37.97 -37.39,56.68 -8.84,6.22 -17.87,12.21 -27.34,17.68 l -5.9,3.41 -281.17,-173.63 c -124.48,-77.63 -243.02,-152.53 -362.34,-228.95 -70.76,-45.18 -153.58,-98.13 -240.76,-154.84 l -39.29,-25.42 c -35.52,-23 -71.62,-46.35 -108.27,-70.17 31.13,31.92 61.67,63.38 91.72,94.31 l 31.12,32.06 c 71.19,72.97 137.36,141.84 198.97,206.07 99.05,102.96 195.69,204.68 295.61,311.11 l 150.61,161.76 -101.61,58.66 -139.69,-130.06 c -106.26,-99.76 -207.98,-196.4 -310.88,-295.39 -61.1,-58.62 -132.46,-127.16 -206.05,-198.94 l -32.07,-31.16 c -30.96,-30.05 -62.44,-60.63 -94.38,-91.77 23.82,36.65 47.17,72.75 70.16,108.27 l 25.36,39.2 c 56.78,87.27 109.73,170.09 154.85,240.78 76.87,119.99 151.77,238.53 229.13,362.61 l 78.2,126.59 -102.14,58.96 -82.64,-114.61 c -84.64,-118.38 -165.5,-232.95 -247.16,-350.17 -47.98,-68.68 -104.14,-149.17 -163.19,-235.2 l -27,-39.15 c -23.88,-34.64 -48.15,-69.84 -72.75,-105.65 16.34,40.89 32.33,81.14 48.05,120.73 l 17.1,43.05 c 37.51,93.82 72.43,183.15 104.96,266.52 51.98,132.69 102.35,263.65 154.04,400.56 l 51.88,139.04 -102.1,58.95 -68.14,-149.22 c -60.57,-134.09 -117.54,-262.3 -174.15,-391.86 -33.57,-76.46 -72.86,-166.12 -114.25,-262.66 l -17.99,-41.68 c -17,-39.42 -34.3,-79.49 -51.8,-120.27 8.13,43.73 16.02,86.76 23.81,129.07 l 8.03,43.71 c 19,102.15 36.25,199.04 50.9,281.73 25,139.72 48.84,277.91 72.92,422.7 l 36.3,223.8 -101.08,58.35 -60.85,-257.42 c -32.97,-142.16 -63.83,-278.95 -94.32,-418.1 -18.12,-82.15 -39.27,-178.31 -60.77,-279.74 l -9.82,-45.87 c -8.88,-41.45 -17.9,-83.58 -26.99,-126.43 -0.49,38.66 -1.05,76.77 -1.59,114.28 l -0.9,62.31 c -1.24,100.79 -3.23,198.14 -4.99,284.03 l -0.04,2.37 c -2.75,141.74 -6.41,286.01 -10.92,429.01 l -12.21,344.46 c -17.2,0.42 -34.46,0.65 -51.76,0.65 -17.3,0 -34.55,-0.23 -51.75,-0.65 l -12.22,-344.69 c -4.51,-142.77 -8.17,-287.04 -10.91,-428.71 l -0.05,-2.44 c -1.76,-85.89 -3.74,-183.24 -4.98,-283.93 l -0.9,-62.41 c -0.55,-37.64 -1.1,-75.87 -1.61,-114.65 -7.79,36.72 -15.54,72.93 -23.17,108.57 l -13.69,63.96 c -20.9,98.78 -41.88,194.01 -60.39,278.05 l -0.39,1.74 c -30.47,139.05 -61.3,275.84 -94.34,418.4 l -60.75,257.22 -101.06,-58.35 36.35,-224.07 c 23.49,-141.13 48.01,-283.25 72.9,-422.36 l 0.24,-1.35 c 15.08,-84.84 32.17,-181.01 50.67,-280.36 0,0 25.01,-135.97 31.98,-173.59 -15.07,35.12 -29.99,69.69 -44.68,103.76 l -25.34,58.76 c -40.25,93.88 -79.58,183.59 -114.24,262.67 -56.53,129.34 -115.12,261.22 -174.26,392.19 l -68.01,149.03 -102.11,-58.95 51.99,-139.27 c 51.46,-136.19 101.84,-267.13 153.99,-400.25 29.55,-75.69 66.32,-169.9 104.95,-266.49 l 23.48,-59.11 c 13.75,-34.62 27.72,-69.77 41.96,-105.43 -21.32,31.04 -42.39,61.6 -63.16,91.7 l -36.93,53.59 c -58.3,84.96 -114.05,164.82 -163.22,235.23 -80.66,115.82 -163.81,233.66 -247.27,350.45 l -82.49,114.46 -102.12,-58.96 78.34,-126.79 c 75.47,-121.03 152.53,-242.95 228.97,-362.32 43.78,-68.52 98.27,-153.79 154.85,-240.77 l 34.55,-53.35 c 20.15,-31.14 40.62,-62.76 61.44,-94.81 -27.31,26.63 -54.26,52.8 -80.81,78.59 l -46.08,44.78 c -72.65,70.87 -143.32,138.72 -206.08,198.97 -103.13,99.21 -204.82,195.86 -311.07,295.64 l -139.49,129.94 -101.65,-58.69 150.83,-161.91 c 98.17,-104.54 197.58,-209.15 295.44,-310.86 l 2.19,-2.29 c 59.34,-61.81 126.6,-131.87 196.74,-203.76 l 44.84,-46.14 c 25.8,-26.56 51.98,-53.51 78.59,-80.81 -32.05,20.82 -63.67,41.28 -94.81,61.43 l -53.27,34.5 c -85.74,55.78 -168.14,108.44 -240.79,154.86 -119.38,76.46 -241.31,153.52 -362.58,229.14 l -280.91,173.57 -5.95,-3.43 c -9.47,-5.47 -18.5,-11.46 -27.34,-17.68 -12.73,-18.71 -25.26,-37.56 -37.4,-56.7 l 280.7,-202.29 c 116.6,-83.33 234.45,-166.47 350.9,-247.59 70.79,-49.42 151.02,-105.43 234.51,-162.71 l 51.35,-35.4 c 30.86,-21.27 62.18,-42.87 94,-64.73 -35.64,14.23 -70.79,28.19 -105.41,41.94 l -59.01,23.45 c -95.54,38.22 -186.41,73.69 -266.53,104.96 -133.17,52.18 -264.11,102.55 -400.52,154.11 l -296.03,110.44 0,-115.9 247.27,-112.86 c 130.76,-59.05 262.63,-117.64 391.9,-174.13 79.16,-34.7 168.87,-74.03 262.65,-114.23 l 58.17,-25.08 c 34.29,-14.8 69.1,-29.81 104.45,-44.99 -37.59,6.97 -74.65,13.79 -111.16,20.49 l -62.35,11.47 c -99.43,18.52 -195.61,35.61 -280.45,50.7 l -1.28,0.22 c -139.17,24.9 -281.3,49.43 -422.67,72.96 l -186.53,30.26 0,-117.61 161.8,-38.21 c 138.96,-32.21 279.66,-63.95 418.12,-94.29 84.29,-18.57 179.82,-39.6 279.73,-60.75 l 64.07,-13.71 c 35.65,-7.64 71.85,-15.39 108.58,-23.18 -38.8,-0.5 -77.02,-1.06 -114.65,-1.6 l -62.32,-0.9 c -100.79,-1.24 -198.14,-3.22 -284.02,-4.99 l -2.38,-0.04 c -141.74,-2.74 -286,-6.41 -429.01,-10.91 l -139.92,-4.96 0,-118.02 140.15,-4.97 c 142.78,-4.51 287.04,-8.17 428.71,-10.91 l 2.45,-0.05 c 85.88,-1.76 183.23,-3.74 283.92,-4.98 l 62.42,-0.9 c 37.63,-0.55 75.86,-1.1 114.65,-1.61 -36.65,-7.78 -72.76,-15.5 -108.34,-23.13 l -64.2,-13.73 c -97.47,-20.63 -187.52,-40.45 -274.61,-59.63 l -5.17,-1.13 c -138.52,-30.36 -279.22,-62.09 -418.41,-94.36 l -161.57,-38.16 0,-117.59 186.77,30.3 c 141.13,23.48 283.26,48.01 422.37,72.89 l 1.34,0.24 c 84.84,15.09 181.02,32.18 280.36,50.67 l 62.44,11.5 c 36.51,6.7 73.57,13.51 111.16,20.48 -35.35,-15.17 -70.16,-30.19 -104.45,-44.98 l -58.07,-25.04 c -93.88,-40.24 -183.59,-79.58 -262.68,-114.25 -129.38,-56.54 -261.26,-115.13 -392.19,-174.25 l -247.05,-112.75 0,-115.91 296.25,110.53 c 136.19,51.46 267.13,101.84 400.24,153.99 80.18,31.29 171.05,66.77 266.49,104.95 l 59.11,23.48 c 34.62,13.76 69.78,27.72 105.41,41.95 -31.82,-21.86 -63.15,-43.46 -94,-64.74 l -51.27,-35.33 c -83.57,-57.35 -163.8,-113.36 -235.22,-163.22 -115.82,-80.67 -233.67,-163.82 -350.46,-247.28 l -280.51,-202.16 c 12.14,-19.14 24.67,-37.99 37.4,-56.7 8.84,-6.22 17.87,-12.21 27.34,-17.67 l 5.95,-3.44 281.1,173.69 c 121.08,75.5 243.01,152.56 362.34,229 72.7,46.45 155.1,99.1 240.76,154.83 l 53.35,34.55 c 31.14,20.15 62.76,40.62 94.81,61.44 -26.62,-27.3 -52.79,-54.26 -78.59,-80.81 l -44.78,-46.08 c -70.2,-71.95 -137.46,-142.01 -196.8,-203.82 l -2.16,-2.25 c -97.89,-101.76 -197.3,-206.36 -295.65,-311.08 l -150.65,-161.73 101.64,-58.69 139.67,130.11 c 106.08,99.61 207.77,196.26 311.3,295.86 62.36,59.85 133.03,127.71 205.61,198.51 l 46.15,44.85 c 26.55,25.79 53.5,51.97 80.81,78.58 -20.82,-32.05 -41.29,-63.67 -61.44,-94.81 l -34.5,-53.27 c -56.63,-87.05 -111.12,-172.33 -154.85,-240.8 -76.49,-119.41 -153.55,-241.33 -229.14,-362.56 l -78.22,-126.59 102.12,-58.96 82.62,114.65 c 83.33,116.59 166.48,234.44 247.11,350.2 49.2,70.46 104.95,150.32 163.2,235.2 l 36.98,53.67 c 20.77,30.11 41.84,60.67 63.16,91.71 -14.24,-35.66 -28.21,-70.82 -41.96,-105.44 l -23.45,-59.01 c -38.66,-96.69 -75.43,-190.89 -104.95,-266.53 -52.18,-133.17 -102.56,-264.11 -154.11,-400.53 l -51.9,-139.04 102.1,-58.94 68.11,149.23 c 59.05,130.76 117.64,262.64 174.13,391.91 34.7,79.15 74.03,168.86 114.23,262.64 l 25.39,58.86 c 14.69,34.06 29.61,68.65 44.68,103.76 -6.97,-37.63 -31.96,-173.51 -31.96,-173.51 -18.52,-99.44 -35.61,-195.61 -50.69,-280.45 l -0.23,-1.28 c -24.9,-139.17 -49.42,-281.3 -72.95,-422.66 l -36.31,-223.83 101.06,-58.35 60.81,257.44 c 32.98,142.33 63.81,279.13 94.27,418.12 l 0.4,1.8 c 18.51,84.03 39.49,179.26 60.37,277.94 0,0 29.03,135.67 36.81,172.27 0.56,-44.95 1.22,-89.13 1.86,-132.6 l 0.63,-43.99 c 1.27,-102.03 3.18,-197.47 5.03,-286.41 2.76,-142.45 6.34,-282.71 10.96,-429.03 l 12.28,-344.42 c 17.2,-0.43 34.44,-0.66 51.73,-0.66 17.29,0 34.53,0.23 51.72,0.66 l 12.29,344.66 c 4.62,146.08 8.2,286.34 10.96,428.7 1.85,89.03 3.76,184.47 5.02,286.37 l 0.64,44.12 c 0.64,43.35 1.29,87.41 1.86,132.23 9.06,-42.72 18.06,-84.73 26.91,-126.06 l 9.8,-45.76 c 21.52,-101.55 42.67,-197.71 60.78,-279.77 30.5,-139.24 61.36,-276.03 94.39,-418.43 l 60.79,-257.18 101.08,58.36 -36.34,224.05 c -24.04,144.53 -47.88,282.72 -72.87,422.35 -14.66,82.79 -31.91,179.68 -50.89,281.7 l -8.05,43.84 c -7.79,42.31 -15.68,85.34 -23.81,129.06 17.5,-40.77 34.8,-80.85 51.8,-120.27 l 17.95,-41.57 c 41.43,-96.64 80.72,-186.31 114.24,-262.67 56.66,-129.66 113.63,-257.87 174.3,-392.18 l 68.04,-149 102.1,58.96 -51.95,139.26 c -51.62,136.69 -101.99,267.64 -153.94,400.26 -32.56,83.45 -67.48,172.77 -104.94,266.48 l -17.15,43.16 c -15.72,39.61 -31.71,79.85 -48.05,120.74 24.6,-35.83 48.87,-71.02 72.75,-105.65 l 26.94,-39.06 c 59.11,-86.13 115.27,-166.61 163.21,-235.21 81.7,-117.31 162.56,-231.88 247.33,-350.45 l 82.51,-114.42 102.14,58.97 -78.33,126.78 c -77.23,123.88 -152.13,242.42 -228.94,362.34 -45.18,70.77 -98.13,153.58 -154.84,240.77 l -25.43,39.28 c -22.99,35.52 -46.34,71.62 -70.16,108.27 31.94,-31.14 63.42,-61.71 94.38,-91.77 l 31.99,-31.07 c 72.97,-71.19 141.84,-137.36 206.06,-198.97 102.97,-99.05 204.69,-195.69 311.12,-295.6 l 139.52,-129.91 101.61,58.66 -150.77,161.94 c -99.76,106.26 -196.4,207.97 -295.39,310.87 -61.67,64.29 -127.84,133.16 -198.95,206.05 l -31.14,32.08 c -30.07,30.96 -60.64,62.44 -91.78,94.37 36.65,-23.81 72.75,-47.17 108.27,-70.16 l 39.19,-25.36 c 87.28,-56.78 170.1,-109.72 240.78,-154.85 120,-76.86 238.54,-151.76 362.62,-229.13 l 280.97,-173.5 5.9,3.41 c 9.47,5.46 18.5,11.45 27.34,17.68 12.72,18.7 25.26,37.54 37.39,56.67 l -280.67,202.34 c -119.13,85.17 -233.7,166.02 -350.16,247.14 -68.69,47.99 -149.17,104.15 -235.21,163.2 l -39.15,26.99 c -34.63,23.88 -69.83,48.15 -105.65,72.75 40.9,-16.34 81.15,-32.32 120.74,-48.05 l 43.05,-17.1 c 93.82,-37.51 183.14,-72.43 266.52,-104.95 132.69,-51.99 263.64,-102.35 400.56,-154.05 l 296.02,-110.44 0,115.91 -247.26,112.9 c -134.08,60.56 -262.29,117.54 -391.85,174.15 -76.71,33.68 -166.6,73.06 -262.66,114.24 l -41.68,17.99 c -39.42,17.01 -79.49,34.3 -120.27,51.8 43.72,-8.12 86.76,-16.02 129.07,-23.8 l 43.71,-8.03 c 100.96,-18.79 198.41,-36.14 281.73,-50.92 139.84,-25 278.02,-48.84 422.7,-72.9 l 186.51,-30.26 0,117.64 -161.78,38.25 c -142.16,32.97 -278.95,63.82 -418.1,94.31 -82.15,18.13 -178.31,39.28 -279.74,60.77 l -45.87,9.82 c -41.34,8.85 -83.34,17.85 -126.06,26.92 44.81,0.57 88.88,1.21 132.22,1.85 l 44,0.64"
         style="fill:#ffffff;fill-opacity:1;fill-rule:nonzero;stroke:none"
         id="path20"
         inkscape:connector-curvature="0" /><path
         d="m 7482.61,3323.3 -0.02,0.02 -0.12,0.17 c -11.87,15.53 -18.35,34.81 -18.3,54.25 -0.01,2.3 0.08,4.58 0.25,6.84 l -0.02,-0.22 c 12.58,175.85 22.51,351.66 29.86,527.79 -230.03,-70.04 -461.42,-131.83 -695.77,-185.74 3.8,-17.52 7.61,-35.03 11.41,-52.55 104.5,22.66 208.83,46.96 312.91,73.35 l -0.39,-0.11 c 9.46,2.49 19.07,3.7 28.53,3.69 23.43,-0.01 45.91,-7.32 64.49,-20.77 18.55,-13.38 33.3,-33.47 39.72,-57.48 77.3,-287.37 154.6,-574.73 231.9,-862.1 109.4,29.91 218.4,61.39 327.09,94.63 -112.64,137.8 -223.1,277.08 -331.54,418.23 z m -79.13,-587.11 c -4.33,16.1 -8.66,32.19 -12.99,48.29 -77.3,287.36 -154.6,574.73 -231.9,862.09 -0.3,0.97 -0.6,1.5 -1.86,2.5 -1.24,0.92 -3.36,1.74 -5.78,1.73 -0.98,-0.01 -2.02,-0.13 -3.17,-0.43 l -0.4,-0.1 c -105.19,-26.67 -210.64,-51.23 -316.26,-74.13 -16.3,-3.54 -32.6,-6.99 -48.9,-10.43 -16.31,-3.44 -32.59,-7.07 -48.9,-10.43 -605.06,-124.37 -1216.24,-187 -1827.48,-187 -615.07,0 -1230.19,62.13 -1839.14,187.1 -16.31,3.34 -32.6,6.96 -48.91,10.4 -16.31,3.43 -32.61,6.87 -48.9,10.4 -105.63,22.87 -211.08,47.42 -316.28,74.09 l -0.25,0.06 -0.2,0.06 c -1.09,0.28 -2.1,0.4 -3.12,0.41 -2.42,0.01 -4.53,-0.81 -5.77,-1.73 -1.27,-1 -1.56,-1.53 -1.86,-2.5 -77.3,-287.36 -154.6,-574.73 -231.9,-862.09 -4.33,-16.1 -8.66,-32.19 -12.99,-48.29 -4.33,-16.09 -8.66,-32.19 -12.99,-48.28 -4.4,-16.37 -8.8,-32.74 -13.21,-49.11 l 0.15,-0.47 c 0.24,-0.62 0.83,-1.73 1.94,-3.01 2.19,-2.57 6.37,-5.59 12.17,-7.1 834.89,-212.39 1683.98,-316.37 2533.07,-316.38 837.14,0.01 1674.27,106.89 2497.75,316.38 4.08,1.07 7.36,2.85 9.72,4.74 2.37,1.89 3.72,3.86 4.23,4.97 l 0.32,0.89 c -4.4,16.36 -8.8,32.73 -13.21,49.09 -4.33,16.09 -8.65,32.19 -12.98,48.28 z m -4818.93,993.82 c 18.58,13.46 41.07,20.77 64.49,20.78 9.43,0.01 19.07,-1.19 28.6,-3.7 l -0.46,0.11 c 104.09,-26.38 208.42,-50.67 312.92,-73.3 3.8,17.5 7.6,35 11.4,52.51 -234.34,53.91 -465.74,115.7 -695.76,185.74 7.35,-176.13 17.28,-351.94 29.85,-527.79 l -0.01,0.21 c 0.17,-2.28 0.25,-4.56 0.25,-6.83 0.04,-19.44 -6.43,-38.71 -18.3,-54.25 l 0.11,0.14 -0.25,-0.33 c -108.44,-141.15 -218.9,-280.43 -331.54,-418.23 108.69,-33.24 217.69,-64.72 327.08,-94.64 77.31,287.38 154.61,574.74 231.91,862.11 6.41,24.01 21.16,44.09 39.71,57.47"
         style="fill:#ffffff;fill-opacity:1;fill-rule:nonzero;stroke:none"
         id="path22"
         inkscape:connector-curvature="0" /><path
         d="m 7487.06,2810.44 c -77.3,287.37 -154.6,574.73 -231.9,862.1 -6.42,24.01 -21.17,44.1 -39.72,57.48 -18.58,13.45 -41.06,20.76 -64.49,20.77 -9.46,0.01 -19.07,-1.2 -28.53,-3.69 l 0.39,0.11 c -104.08,-26.39 -208.41,-50.69 -312.91,-73.35 -3.8,17.52 -7.61,35.03 -11.41,52.55 234.35,53.91 465.74,115.7 695.77,185.74 -7.35,-176.13 -17.28,-351.94 -29.86,-527.79 l 0.02,0.22 c -0.17,-2.26 -0.26,-4.54 -0.25,-6.84 -0.05,-19.44 6.43,-38.72 18.3,-54.25 l 0.12,-0.17 0.02,-0.02 c 108.44,-141.15 218.9,-280.43 331.54,-418.23 -108.69,-33.24 -217.69,-64.72 -327.09,-94.63 z m -57.71,-172.51 c -0.51,-1.11 -1.86,-3.08 -4.23,-4.97 -2.36,-1.89 -5.64,-3.67 -9.72,-4.74 -823.48,-209.49 -1660.61,-316.37 -2497.75,-316.38 -849.09,0.01 -1698.18,103.99 -2533.07,316.38 -5.8,1.51 -9.98,4.53 -12.17,7.1 -1.11,1.28 -1.7,2.39 -1.94,3.01 l -0.15,0.47 c 4.41,16.37 8.81,32.74 13.21,49.11 4.33,16.09 8.66,32.19 12.99,48.28 4.33,16.1 8.66,32.19 12.99,48.29 77.3,287.36 154.6,574.73 231.9,862.09 0.3,0.97 0.59,1.5 1.86,2.5 1.24,0.92 3.35,1.74 5.77,1.73 1.02,-0.01 2.03,-0.13 3.12,-0.41 l 0.2,-0.06 0.25,-0.06 c 105.2,-26.67 210.65,-51.22 316.28,-74.09 16.29,-3.53 32.59,-6.97 48.9,-10.4 16.31,-3.44 32.6,-7.06 48.91,-10.4 608.95,-124.97 1224.07,-187.1 1839.14,-187.1 611.24,0 1222.42,62.63 1827.48,187 16.31,3.36 32.59,6.99 48.9,10.43 16.3,3.44 32.6,6.89 48.9,10.43 105.62,22.9 211.07,47.46 316.26,74.13 l 0.4,0.1 c 1.15,0.3 2.19,0.42 3.17,0.43 2.42,0.01 4.54,-0.81 5.78,-1.73 1.26,-1 1.56,-1.53 1.86,-2.5 77.3,-287.36 154.6,-574.73 231.9,-862.09 4.33,-16.1 8.66,-32.19 12.99,-48.29 4.33,-16.09 8.65,-32.19 12.98,-48.28 4.41,-16.36 8.81,-32.73 13.21,-49.09 l -0.32,-0.89 z m -5116.42,172.5 c -109.39,29.92 -218.39,61.4 -327.08,94.64 112.64,137.8 223.1,277.08 331.54,418.23 l 0.25,0.33 -0.11,-0.14 c 11.87,15.54 18.34,34.81 18.3,54.25 0,2.27 -0.08,4.55 -0.25,6.83 l 0.01,-0.21 c -12.57,175.85 -22.5,351.66 -29.85,527.79 230.02,-70.04 461.42,-131.83 695.76,-185.74 -3.8,-17.51 -7.6,-35.01 -11.4,-52.51 -104.5,22.63 -208.83,46.92 -312.92,73.3 l 0.46,-0.11 c -9.53,2.51 -19.17,3.71 -28.6,3.7 -23.42,-0.01 -45.91,-7.32 -64.49,-20.78 -18.55,-13.38 -33.3,-33.46 -39.71,-57.47 -77.3,-287.37 -154.6,-574.73 -231.91,-862.11 z m 5586.09,148.75 0.14,-0.17 c -113.78,139.02 -225.28,279.57 -334.75,421.99 12.75,178.97 22.84,357.9 30.22,537.18 l 0.01,0.14 0,0.19 c 0.04,1.12 0.06,2.24 0.06,3.34 0.02,13.05 -2.79,25.81 -7.83,37.15 -7.59,17.07 -19.98,30.9 -34.88,40.41 -14.92,9.53 -32.59,14.9 -51.12,14.9 -9.61,0 -19.4,-1.46 -28.91,-4.44 l 0.34,0.1 c -231.72,-70.74 -464.79,-133 -700.93,-187.21 l 0.34,0.08 c -21.63,-4.8 -40.33,-16.78 -53.43,-32.92 -13.11,-16.1 -21,-36.71 -21,-58.75 0,-6.5 0.69,-13.08 2.1,-19.59 4.24,-19.52 8.48,-39.05 12.72,-58.57 -598.17,-122.89 -1202.22,-184.73 -1806.26,-184.73 -607.97,0 -1215.94,61.36 -1817.92,184.82 4.22,19.49 8.46,38.99 12.69,58.48 1.42,6.52 2.1,13.09 2.1,19.58 0,22.05 -7.89,42.65 -21,58.76 -13.1,16.13 -31.8,28.12 -53.43,32.91 l 0.34,-0.07 c -236.13,54.21 -469.2,116.47 -700.92,187.21 l 0.33,-0.1 c -9.5,2.98 -19.3,4.44 -28.9,4.44 -24.73,-0.03 -47.83,-9.5 -65.1,-25.81 -8.63,-8.16 -15.85,-18.13 -20.9,-29.5 -5.05,-11.34 -7.85,-24.1 -7.84,-37.15 0,-1.14 0.03,-2.31 0.07,-3.49 l 0,-0.09 0.01,-0.09 c 7.38,-179.28 17.47,-358.21 30.22,-537.18 -109.43,-142.37 -220.88,-282.86 -334.61,-421.82 -13.3,-15.9 -20.25,-36.38 -20.11,-55.65 0.04,-21.88 7.98,-42 20.68,-58.05 12.73,-16.09 30.58,-28.43 51.44,-34.95 l 0.3,-0.09 c 110.86,-33.94 222.07,-66.05 333.67,-96.57 -4.44,-16.51 -8.88,-33.02 -13.32,-49.52 l 0.01,0.02 c -2.28,-8.44 -3.38,-17.05 -3.38,-25.49 0,-13.2 2.67,-25.95 7.29,-37.54 6.97,-17.43 18.18,-32.37 32.14,-44.23 13.98,-11.87 30.84,-20.72 49.58,-25.63 l 0.33,-0.09 c 843.13,-214.52 1700.68,-319.55 2558.04,-319.54 845.77,-0.01 1691.34,108 2522.73,319.54 l 0.27,0.07 0.08,0.02 c 24.97,6.56 46.61,20.07 62.56,38.5 7.96,9.22 14.51,19.74 19.14,31.35 4.63,11.6 7.3,24.34 7.29,37.55 0.01,8.44 -1.09,17.04 -3.36,25.47 -4.44,16.5 -8.88,33.01 -13.32,49.52 111.6,30.52 222.8,62.63 333.67,96.57 l 0.3,0.09 c 20.86,6.53 38.7,18.86 51.44,34.95 12.7,16.05 20.64,36.17 20.68,58.05 0.14,19.27 -6.81,39.75 -20.11,55.65 z m -5998.18,-0.17 0.14,0.17 0,0 -0.14,-0.17"
         style="fill:#393536;fill-opacity:1;fill-rule:nonzero;stroke:none"
         id="path24"
         inkscape:connector-curvature="0" /><path
         d="m 3725.93,3096.87 c 17.62,123.06 -99.66,201.36 -209.77,215.53 -136.43,17.56 -355.56,-30.3 -391.98,-177.85 -15.32,-62.06 21.3,-96.64 91.66,-109.51 0.48,8.45 -10.83,18.62 -2.75,65.07 24.94,143.49 165.23,202.14 297.48,179.68 85.78,-14.56 115.8,-76.68 105.31,-143.97 -15.95,-102.3 -100.14,-202.87 -212.48,-200.27 40.84,98.65 80.92,197.61 120.23,296.87 -60.12,1.63 -90.22,2.69 -150.47,5.33 -78.93,-187.69 -160.06,-374.31 -243.47,-560.05 61.01,-11.29 91.56,-16.69 152.71,-27 43.6,100.62 65.05,151.03 107.25,252.06 2.07,-0.34 3.1,-0.5 5.16,-0.84 142.63,-24.48 309.31,52.69 331.12,204.95"
         style="fill:#393536;fill-opacity:1;fill-rule:nonzero;stroke:none"
         id="path26"
         inkscape:connector-curvature="0" /><path
         d="m 3874.57,3079.93 c 44.48,-4.98 84.26,23.82 88.47,64.69 4.21,40.87 -28.18,77.98 -71.95,82.88 -43.76,4.91 -82.58,-24.24 -87.51,-65.03 -4.93,-40.79 26.51,-77.55 70.99,-82.54"
         style="fill:#393536;fill-opacity:1;fill-rule:nonzero;stroke:none"
         id="path28"
         inkscape:connector-curvature="0" /><path
         d="m 4638.21,2742.39 c 24.43,88.09 78.13,190.45 129.42,189.72 19.5,-0.28 25.48,-15.27 25.21,-38.61 -0.9,-78.45 -72.87,-149.63 -154.63,-151.11 z m 121.96,239.33 c -173.46,3.38 -281.86,-168.87 -290.34,-323.87 -0.09,-1.58 -0.01,-3.02 -0.06,-4.58 -19.47,-31.66 -40.17,-51.57 -76.92,-49.63 -32.94,1.73 -40.53,18.11 -39.47,36.77 0.59,10.25 4.34,20.32 6.99,29.53 5.69,18.39 8.53,27.58 14.18,45.98 3.8,11.95 5.52,24.01 6.13,35.21 3.28,59.68 -31.26,110.9 -107.75,116.02 -11.36,0.76 -22.86,-0.33 -34.36,-1.38 86.36,45.96 128.99,69.44 213.14,117.35 -40.41,1.96 -60.61,3.04 -101.01,5.44 -82.11,-52 -123.75,-77.55 -208.19,-127.7 34.37,107.15 68.14,214.43 101.37,321.93 -59.67,-3.17 -89.55,-4.51 -149.41,-6.69 -50.11,-152.82 -101.66,-305.08 -154.63,-456.88 -20.68,-44.06 -61.99,-74.7 -102.81,-70.17 -29.64,3.28 -42.44,13.25 -39.44,39.23 0.97,8.35 3.1,17.5 7.63,29.2 37.03,102.27 73.52,204.69 109.5,307.33 -58.59,6.26 -87.86,9.63 -146.36,16.83 -35.25,-96.43 -71.22,-192.6 -107.89,-288.5 -8.14,-21.53 -13.99,-41.49 -16.3,-59.08 -10.23,-77.78 35.56,-117.74 99.56,-125.46 59.57,-7.17 114.38,10.95 158.85,44.88 -6.47,-18.3 -12.85,-36.62 -19.37,-54.9 61.55,-6.47 92.34,-9.46 153.95,-14.94 30.43,89.92 45.38,134.94 74.76,225.08 31.04,18.98 55.97,30.14 79.92,28.35 27.09,-2.04 36.24,-20.44 34.32,-47.46 -0.73,-10.25 -2.63,-22.28 -6.65,-34.17 -4.4,-14.29 -6.6,-21.43 -11.03,-35.72 -5.5,-17.39 -8.78,-33.07 -9.87,-47.98 -4.96,-67.99 39.56,-109.75 127.29,-115.1 62.85,-3.83 114.49,27.98 152.38,73.63 20.66,-57.56 76.27,-84.73 151.2,-86.81 85.85,-2.38 163.74,28.56 186.89,134.83 -34.09,-25.86 -85.52,-48.47 -125.94,-47.59 -37.22,0.81 -65.4,20.34 -63.72,79.14 0.24,8.41 1.59,18.64 2.9,27.95 111.55,2.57 239.14,72.88 242.54,193.26 1.29,45.5 -21.57,88.91 -111.98,90.67"
         style="fill:#393536;fill-opacity:1;fill-rule:nonzero;stroke:none"
         id="path30"
         inkscape:connector-curvature="0" /><path
         d="m 5453.05,2942.01 c 13.19,75.63 19.61,113.45 32.09,189.12 84.69,-15.14 132.63,-43.34 215.35,-36.1 80.71,7.07 103.23,88.45 110.43,155.83 -52.24,-18.44 -99.61,-27.46 -142.4,-31.11 -89.55,-7.63 -164.36,5.08 -231.13,1.99 -148.13,-6.84 -338.14,-78.71 -333.95,-256.58 1.58,-67.12 41.21,-89.9 112.42,-87.49 -1.32,8.36 -14.96,15.38 -16.49,62.99 -4.99,154.94 52,194.92 133.26,198.78 4.42,0.21 6.62,0.32 11.04,0.53 -38.7,-210.36 -80.03,-420.08 -124.01,-629.41 61.78,2.03 92.66,3.29 154.4,6.3 23.22,118.2 45.41,236.61 66.57,355.19 52.06,3.01 78.08,4.69 130.1,8.42 4.63,28.05 6.92,42.07 11.45,70.13 -51.63,-3.8 -77.46,-5.51 -129.13,-8.59"
         style="fill:#393536;fill-opacity:1;fill-rule:nonzero;stroke:none"
         id="path32"
         inkscape:connector-curvature="0" /><path
         d="m 5961.61,2631.98 c -41.86,-4.62 -62.44,10.73 -69.5,45.46 1.13,2.57 2.26,5.14 3.32,7.75 6.81,-4.36 16.34,-5.06 24.48,-4.19 27.42,2.93 43.81,28.27 41.32,50.54 -1.76,15.78 -13.48,25.74 -27.69,29.83 28.05,63.18 50.61,122.2 64,184.91 27.13,-141.61 40.13,-169.21 45.93,-217.42 7.8,-64.91 -35.2,-91.72 -81.86,-96.88 z m 790.74,143.56 c -5.56,-4.9 -15.69,-8.78 -33.53,-12.21 -31.47,-6.04 -44.9,7.64 -49.2,30.59 -9.63,51.4 18.84,171.84 4.51,246.12 -14.15,73.36 -67.3,94.39 -131.86,82.75 -31.27,-5.63 -73.2,-20.57 -109.66,-71.16 6.51,96.14 9.48,144.21 14.87,240.3 -57.31,-17.5 -86.06,-26.02 -143.73,-42.59 -11.83,-160.25 -25.17,-320.3 -39.99,-480.26 -17.65,-17.35 -41.94,-37.28 -67.69,-55.5 1.64,11.54 1.4,23.09 -0.6,35.73 -17.33,109.82 -47.67,222.06 -68.23,333.81 -58.89,-15.43 -88.41,-22.91 -147.63,-37.39 -20.85,-99.59 -51.29,-197.36 -96.39,-288.78 -27,-15 -51.2,-49.27 -47.02,-92.03 l 0.19,-1.21 c -15.83,-18.76 -36.34,-31.36 -58.86,-33.41 -29.69,-2.71 -44.2,4.49 -46.47,30.54 -0.72,8.38 -0.46,17.77 1.63,30.14 15.78,107.61 31.02,215.26 45.72,323.02 -58.63,-5.58 -87.97,-8.14 -146.66,-12.79 -15.22,-101.53 -31.17,-202.95 -47.87,-304.25 -3.65,-22.73 -5.38,-43.46 -4.12,-61.15 5.53,-78.26 58.32,-108.25 122.52,-103 62.91,5.15 114.92,36.82 152.13,82.6 24.42,-35.73 73.27,-61.63 149.5,-52.92 54.47,6.21 121.09,29.54 160.26,76.15 29.64,20.48 62.57,46.11 94.69,78.97 -3.74,-39.52 -7.47,-79.04 -11.39,-118.55 61.35,8.57 92,13.11 153.23,22.67 9.16,106.25 17.52,212.58 25.06,318.96 8.63,44 30.74,80.79 64.37,86.6 24.45,4.22 39.6,-10.14 44.97,-40.49 10.4,-58.86 -16.54,-180.15 -5.79,-242.74 9.01,-52.47 43.38,-99.96 125.01,-85 56.18,10.29 101.52,48.65 98.03,116.48"
         style="fill:#393536;fill-opacity:1;fill-rule:nonzero;stroke:none"
         id="path34"
         inkscape:connector-curvature="0" /><path
         d="m 3382.87,2005.68 57.4,0 0,-303.63 53.99,0 0,303.63 57.13,0 0,54.28 -168.52,0 0,-54.28"
         style="fill:#393536;fill-opacity:1;fill-rule:nonzero;stroke:none"
         id="path36"
         inkscape:connector-curvature="0" /><path
         d="m 3783.79,1784.03 c 0,-8.57 -3.01,-15.86 -9,-21.85 -6,-6 -13.29,-9 -21.86,-9 -8.55,0 -15.9,3 -21.99,9 -6.1,5.99 -9.14,13.28 -9.14,21.85 l 0,195.95 c 0,8.56 3.04,15.85 9.14,21.85 6.09,6 13.44,9 21.99,9 8.57,0 15.86,-3 21.86,-9 5.99,-6 9,-13.29 9,-21.85 l 0,-195.95 z m -29.43,280.5 c -23.42,0 -43.52,-8.34 -60.26,-25 -16.76,-16.66 -25.14,-36.89 -25.14,-60.69 l 0,-195.38 c 0,-23.62 8.29,-43.8 24.85,-60.56 16.56,-16.76 36.76,-25.14 60.55,-25.14 23.61,0 43.8,8.33 60.56,25 16.76,16.66 25.14,36.89 25.14,60.7 l 0,195.38 c 0,23.6 -8.34,43.8 -25,60.55 -16.66,16.75 -36.9,25.14 -60.7,25.14"
         style="fill:#393536;fill-opacity:1;fill-rule:nonzero;stroke:none"
         id="path38"
         inkscape:connector-curvature="0" /><path
         d="m 4082.11,1783.74 c 0,-8.56 -3.01,-15.85 -9,-21.85 -6,-5.99 -13.29,-9 -21.86,-9 -8.55,0 -15.9,3.01 -21.99,9 -6.1,6 -9.14,13.29 -9.14,21.85 l 0,276.22 -52.83,0 0,-276.79 c 0,-23.61 8.28,-43.7 24.84,-60.27 16.56,-16.56 36.76,-24.85 60.55,-24.85 23.61,0 43.8,8.19 60.56,24.57 16.76,16.37 25.14,36.56 25.14,60.55 l 0,276.79 -56.27,0 0,-276.22"
         style="fill:#393536;fill-opacity:1;fill-rule:nonzero;stroke:none"
         id="path40"
         inkscape:connector-curvature="0" /><path
         d="m 4383.79,1921.43 c 0,-8.58 -2.99,-15.91 -8.99,-22 -5.99,-6.1 -13.28,-9.14 -21.85,-9.14 l -32.56,0 0,114.53 32.56,0 c 20.57,0 30.84,-10.37 30.84,-31.13 l 0,-52.26 z m 52.56,1.14 0,51.98 c 0,25.9 -6.19,46.08 -18.56,60.56 -14.1,16.57 -36.19,24.85 -66.27,24.85 l -85.11,0 0,-357.91 53.98,0 0,134.82 31.13,0 c 1.72,0 3.32,0 4.85,0 l 32.73,-134.82 58.38,0 -39.98,156.25 c 19.24,17.51 28.85,38.94 28.85,64.27"
         style="fill:#393536;fill-opacity:1;fill-rule:nonzero;stroke:none"
         id="path42"
         inkscape:connector-curvature="0" /><path
         d="m 4706.15,1819.51 -71.64,240.73 -60.6,0 0,-358.19 53.98,0 0,229.37 74.26,-229.37 57.99,0 0,358.19 -53.99,0 0,-240.73"
         style="fill:#393536;fill-opacity:1;fill-rule:nonzero;stroke:none"
         id="path44"
         inkscape:connector-curvature="0" /><path
         d="m 4963.05,1836.87 19.98,141.11 20,-141.11 -39.98,0 z m -16.86,223.09 -60.84,-357.91 56.21,0 13.11,82.27 56.37,0 12.63,-82.27 56.76,0 -59.98,357.91 -74.26,0"
         style="fill:#393536;fill-opacity:1;fill-rule:nonzero;stroke:none"
         id="path46"
         inkscape:connector-curvature="0" /><path
         d="m 5333.83,1802.94 -50.31,257.3 -77.47,0 0,-358.19 53.99,0 0,224.51 52.26,-224.51 43.42,0 46.84,225.09 0,-225.09 54,0 0,358.19 -74.43,0 -48.3,-257.3"
         style="fill:#393536;fill-opacity:1;fill-rule:nonzero;stroke:none"
         id="path48"
         inkscape:connector-curvature="0" /><path
         d="m 5584.98,1702.05 153.67,0 0,54.27 -99.69,0 0,97.69 72.84,0 0,54.27 -72.84,0 0,97.7 99.69,0 0,54.26 -153.67,0 0,-358.19"
         style="fill:#393536;fill-opacity:1;fill-rule:nonzero;stroke:none"
         id="path50"
         inkscape:connector-curvature="0" /><path
         d="m 5988.07,1819.51 -71.64,240.73 -60.61,0 0,-358.19 53.98,0 0,229.37 74.26,-229.37 57.99,0 0,358.19 -53.98,0 0,-240.73"
         style="fill:#393536;fill-opacity:1;fill-rule:nonzero;stroke:none"
         id="path52"
         inkscape:connector-curvature="0" /><path
         d="m 6165.66,2059.96 0,-54.28 57.41,0 0,-303.63 53.98,0 0,303.63 57.13,0 0,54.28 -168.52,0"
         style="fill:#393536;fill-opacity:1;fill-rule:nonzero;stroke:none"
         id="path54"
         inkscape:connector-curvature="0" /><path
         d="m 3245.97,1907.96 -914.42,0 c -11.05,0 -20,-8.95 -20,-20 0,-11.04 8.95,-20 20,-20 l 914.42,0 c 11.04,0 20,8.96 20,20 0,11.05 -8.96,20 -20,20"
         style="fill:#393536;fill-opacity:1;fill-rule:nonzero;stroke:none"
         id="path56"
         inkscape:connector-curvature="0" /><path
         d="m 7468.45,1907.96 -914.42,0 c -11.04,0 -20,-8.95 -20,-20 0,-11.04 8.96,-20 20,-20 l 914.42,0 c 11.05,0 20,8.96 20,20 0,11.05 -8.95,20 -20,20"
         style="fill:#393536;fill-opacity:1;fill-rule:nonzero;stroke:none"
         id="path58"
         inkscape:connector-curvature="0" /><path
         d="m 4717.51,6670.48 c -39.58,-58.87 -86.13,-125.77 -158.28,-146.43 -2.24,7.97 -4.49,15.95 -6.73,23.93 -9.85,-9.39 -15.63,-15.32 -18.67,-18.79 -40.81,-43.12 -74.42,-93.37 -98.52,-147.54 94.2,79.13 226.53,33.1 326.54,-5.74 -50.07,88.05 -66.27,195.67 -44.34,294.57"
         style="fill:#393536;fill-opacity:1;fill-rule:nonzero;stroke:none"
         id="path60"
         inkscape:connector-curvature="0" /><path
         d="m 5096.99,6841.9 c -85.49,-172.63 172.21,-158.1 249.99,-215.34 0.82,75.54 24.15,151.09 66.06,213.93 -33.91,-20.85 -347.87,-97.97 -316.05,1.41"
         style="fill:#393536;fill-opacity:1;fill-rule:nonzero;stroke:none"
         id="path62"
         inkscape:connector-curvature="0" /><path
         d="m 5692.29,7075.76 c -64.25,-22.73 -113.16,-83.91 -121.19,-151.6 53.29,38.12 95.75,91.22 121.19,151.6"
         style="fill:#393536;fill-opacity:1;fill-rule:nonzero;stroke:none"
         id="path64"
         inkscape:connector-curvature="0" /><path
         d="m 4843.1,4862.25 c 39.73,-12.18 78.95,-21.43 117.51,-27.72 -60.23,50.35 -105.61,120.39 -131.44,203.29 l -10.32,-5.84 c 3.21,-7.15 6.15,-14.47 8.82,-21.96 26.68,-45.07 31.92,-97.31 15.43,-147.77 z m 1060.93,-1498.4 c -75.18,0 -152.2,35.96 -214.09,64.86 l -1.49,0.69 c -10.51,4.91 -20.5,9.57 -29.76,13.67 -173.42,76.52 -300.08,168.45 -387.19,281.04 -42.34,54.72 -81.01,117.38 -118.4,177.99 -41.26,66.86 -81.37,131.86 -124.66,185.99 20.13,-81.09 23.07,-162.05 7.99,-232.26 -24.14,-112.16 -90.97,-196.04 -193.3,-242.59 -48.07,-21.87 -102.84,-32.97 -162.81,-32.97 -145.73,0 -300.5,66.88 -396.74,129.47 -58.75,38.18 -114.8,85.82 -165.54,140.38 -3.12,-7.72 -6.62,-15.3 -10.51,-22.74 -7.82,-14.9 -79.22,-145.09 -187.11,-145.53 -102.9,0 -162.79,109.48 -210.9,197.46 -7,12.79 -14.93,27.28 -18.59,32.82 -11.69,17.66 -22.21,35.84 -32.39,53.42 -18.35,31.7 -46.06,79.57 -64.44,85 -123.92,36.63 -249.84,85.67 -346.37,190.25 -2.06,-4.61 -4.12,-9.28 -6.2,-13.98 -22.81,-51.59 -48.61,-109.91 -93.87,-161.14 -72.03,-81.47 -182.56,-131.24 -328.53,-147.91 -4.97,-0.56 -10.11,-1.25 -15.34,-1.95 -19.2,-2.56 -42.08,-5.61 -65.63,-5.61 -99.48,0 -142.41,56.55 -159.15,90.25 -38.62,77.79 -27.24,193.82 -13.53,296.46 l 1.35,10.15 c 22.26,168.98 104.11,261.48 189.25,336.25 52.53,46.14 105.23,92.12 157.96,138.06 13.81,12.02 29.94,23.62 45.55,34.84 9.87,7.09 32.85,23.61 45.19,34.74 -1.3,10.5 -3.77,24.58 -4.78,30.35 -2.36,13.45 -4.79,27.29 -6.13,41.19 -7.84,81.3 -10.21,165.29 -7.03,249.65 5.68,150.46 29.22,295.73 69.99,431.8 162.07,541.05 680.43,1008.12 1386.6,1249.39 49.27,16.83 98.65,26.38 146.42,35.62 51.5,9.96 100.02,19.34 140.38,36.51 28.77,12.23 57.33,30.78 87.55,50.42 27.7,18.01 56.29,36.59 88.86,53.07 38.03,19.25 76.17,40.05 116.56,62.07 111.03,60.5 225.81,123.06 347.54,158.53 95.1,27.73 189.14,34.36 280.09,40.77 83.54,5.88 162.32,11.43 236.57,32.66 63.92,18.26 115.5,54.62 175.23,96.72 52.6,37.06 106.83,75.26 174.4,104.26 48.76,20.92 174.76,69.58 291.56,69.58 124.67,0 189.12,-54.56 221.25,-100.33 71.23,-101.5 49.53,-236.64 5.78,-366.43 14.03,1.28 27.36,1.91 40.07,1.91 131.94,0 188.4,-69.89 210.31,-111.55 69.16,-131.55 -12.83,-270.65 -61.81,-353.76 l -7.56,-12.86 c -147.36,-252.22 -318.81,-502.35 -572.95,-623.14 l -10.65,-5.06 c -56.7,-26.86 -97.65,-46.25 -129.98,-83.36 -9.96,-11.41 -19.7,-22.88 -29.42,-34.31 l -1.34,-1.57 c -27.94,-32.91 -56.86,-66.97 -90.34,-100.13 -112.97,-111.86 -220.85,-201.46 -329.81,-273.9 -46.31,-30.78 -95.12,-53.81 -142.32,-76.07 -62.34,-29.42 -121.01,-57.09 -161.89,-97.37 -42.19,-41.56 -53.61,-110.61 -66.84,-190.56 -9.84,-59.51 -20.01,-120.96 -44.59,-180.57 -2,-4.86 -7.77,-19.1 -7.77,-19.1 -9.87,-24.44 -21.26,-52.65 -35.95,-80.15 9.67,7.38 19.48,15.25 29.43,23.24 35.03,28.1 71.18,57.12 116.4,79.86 108.9,54.78 233.95,90.68 382.3,109.77 10.98,1.41 23.44,3.38 36.82,5.5 l 1.95,0.31 c 42.21,6.69 94.78,15.01 144.65,15.01 36.59,0 67.52,-4.43 94.53,-13.53 42.74,-14.38 74.84,-43.44 90.35,-81.83 28.16,-69.68 -7.36,-138.21 -33.31,-188.25 -6.58,-12.71 -13.83,-26.71 -16.33,-33.82 -23.28,-66.21 -35.61,-129.05 -36.67,-186.79 -0.33,-18.36 0.41,-37.84 1.12,-56.67 2.34,-61.67 4.97,-131.35 -25.16,-206.97 -24.98,-62.62 -65.27,-118.57 -119.73,-166.28 -15.23,-13.33 -30.22,-23.54 -42.26,-31.73 -5.65,-3.84 -15.5,-10.54 -19.25,-13.92 -3.57,-8.09 -6.53,-17.21 -8.86,-27.29 l 38.96,-22.05 -44.73,-63.76 c 4.07,-82.71 29.3,-175.61 48.02,-244.58 0.82,-2.68 5.9,-17.05 8.64,-24.76 65.26,-184.51 86.55,-277.88 40.21,-343.44 -22.2,-31.4 -57.13,-49.41 -95.83,-49.41"
         style="fill:#ffffff;fill-opacity:1;fill-rule:nonzero;stroke:none"
         id="path66"
         inkscape:connector-curvature="0" /><path
         d="m 5887.25,6049.72 c 3.07,1.95 6.15,3.87 9.21,5.83 l 0.21,-0.46 c -3.14,-1.8 -6.28,-3.58 -9.42,-5.37 z M 4337.47,4628.95 c -56.77,-24.93 -130.68,11.92 -148.04,70.36 53.14,-7.36 108.9,-33.62 148.04,-70.36 z m 86.42,106.51 c -16.9,-33.8 -76.41,19 -81.39,40.69 20.39,8.94 98.57,-6.33 81.39,-40.69 z m 2419.34,2079.75 c -61.62,-132.22 -153.13,-254.24 -241.58,-369.36 -109.51,-142.52 -213.69,-222.46 -371.6,-303.08 -122.65,-62.61 -199.66,-189.07 -300.31,-281.45 -96.02,-88.14 -199.21,-176.94 -314.42,-239.17 -10.32,-5.57 -20.79,-10.97 -31.35,-16.28 47.89,56.23 87.96,118.5 117.64,185.14 -202.82,-203.5 -414.11,-354.06 -672.94,-478.8 90.11,7.79 179.17,32.76 262.51,71.47 -54.25,-109.49 -41.22,-243.84 -88.19,-357.87 13.13,95 18.57,191.01 15.64,286.97 -10.18,-129.56 -35.46,-257.57 -74.79,-381.39 -7.63,-8.15 -13.16,-9.5 -25.04,-5.33 25.49,97.51 46.72,195.91 63.61,295.3 -30.12,-93.89 -64.27,-186.23 -102.32,-277.15 -9.17,5.72 -17.9,12.84 -25.98,20.54 31.81,84.34 56.25,171.44 71.39,260.35 -26.87,-78.49 -60.45,-154.57 -100.66,-227.1 -10.02,13.52 -18.43,27.98 -25.46,43.12 28.73,56.07 54.38,113.64 76.41,172.68 -29.12,-43.53 -60.47,-85.48 -93.71,-125.92 -2.52,8.85 -4.73,17.79 -6.65,26.79 1.14,-0.89 2.28,-1.77 3.35,-2.67 30.02,47.63 56.08,97.69 77.55,149.74 -26.1,-33.2 -54.43,-64.58 -84.65,-94.05 -0.01,52.55 1.09,113.56 -52.33,106.22 -53.46,-7.34 -129.97,-73.57 -176.02,-99.63 -89.53,-50.67 -179.05,-101.35 -268.57,-152.02 -25.48,-14.42 -64.74,-28.58 -85.42,-49.3 -74.01,-40.26 -146.76,-82.81 -218.53,-125.85 -135.76,-81.43 -325.43,-176.22 -357.04,-347.6 43.33,84.67 118.68,142.78 200.73,191.82 -78.29,-114.48 -146.65,-268.3 -15.45,-372.92 127.26,-101.49 297.71,-42.43 428.29,17.93 153.74,71.06 303.14,134.83 476.75,106.27 146.39,-24.08 283.36,-111.09 354.98,-242.97 37.11,100.55 69.61,257.49 48.7,381.58 -30.1,-20.89 -72.64,-19.86 -100.54,5.87 25.37,25.65 65.64,31.47 96.56,14.64 -5.39,23.98 -13.01,46.46 -23.27,66.72 -2.05,4.02 -3.84,7.44 -5.53,10.61 6.88,-0.85 13.73,-1.83 20.47,-3.12 37.1,-17.35 39.63,-136.18 43.24,-174.6 9.24,-98.47 -2.26,-195.73 -23.59,-291.85 5.89,8.5 11.63,17.85 17.22,27.78 37.15,-18.79 74.3,-37.58 111.45,-56.37 -30.57,31.92 -61.15,63.83 -91.72,95.75 2.34,5.25 4.62,10.62 6.86,16.09 66.71,-19.47 136.11,-28.8 205.62,-26.84 -66.63,12.63 -130.91,35.88 -190.32,68.55 2.9,8.88 5.59,17.94 8.15,27.1 86.75,22.29 173.49,44.57 260.24,66.86 -83.06,-6.98 -166.13,-13.97 -249.19,-20.95 1.92,9.53 3.63,19.12 5.11,28.75 88.36,51.99 184.38,90.23 284.33,113.07 -95.41,-7.56 -189.32,-28.92 -278.83,-62.6 0.93,14.64 1.28,29.18 0.91,43.5 91.74,76.45 194.45,139.08 304.68,185.17 -108.8,-30.84 -212.74,-77 -308.81,-136.45 -3.07,20.39 -7.93,39.85 -14.66,58.05 65.41,68.7 141.08,126.41 224.12,172.31 -87.28,-31.78 -169.26,-76.79 -243.38,-132.63 -6.34,10.2 -13.45,19.79 -21.59,28.48 -0.92,0.98 -1.92,1.83 -2.88,2.76 5.61,2.91 11.09,5.98 16.29,9.4 60.46,39.77 104.2,92.52 171.48,126.32 57.95,29.12 119.76,50.11 182.56,65.96 108.87,27.47 221.96,39.96 334.18,40.45 -6.98,-14.28 -13.53,-28.79 -19.75,-43.46 -196.8,-44.38 -382.58,-124.44 -549.47,-238.04 164.79,94.86 343.46,158.42 530.56,189.55 -12.58,-35.32 -22.95,-71.42 -30.68,-108.02 -1.61,-7.65 -2.9,-15.25 -4.05,-22.83 -120.38,-22.02 -237.55,-59.8 -347.74,-113.14 110.8,37.97 226.27,60.98 343.07,68.91 -2.39,-39.2 -0.82,-77.86 -0.31,-116.82 -91.31,0.03 -181.83,-13.95 -269.06,-41.12 89.34,13.28 179.87,11.81 268.89,-2.61 -0.33,-13.48 -0.97,-27.02 -2.19,-40.67 -2.88,-32 -10.42,-58 -21.4,-80.32 -93.55,14.61 -188.67,18.1 -282.94,8.47 87.59,-5.44 174.26,-21.08 258.01,-47.26 -29.55,-36.68 -69.73,-64.5 -111.42,-100.99 -86.63,19.67 -173.25,39.33 -259.88,58.99 77.08,-31.36 154.17,-62.73 231.25,-94.1 -21.13,-36.83 -29.59,-85.68 -32.03,-134.66 -81.08,46.73 -170.47,77.73 -263.66,90.3 96.61,-26.59 186.15,-73.47 262.93,-137.38 0.48,-30.79 2.55,-60.03 4.45,-84.51 0.73,-9.37 1.63,-18.74 2.67,-28.11 -99.76,39.11 -193.26,93.22 -276.89,160.4 82.34,-84.76 178.45,-155.22 283.59,-208.96 9.3,-57.08 23.42,-113.85 39.76,-169.93 -124.11,78.16 -243.59,165.01 -324.58,290 79.08,-149.04 210.76,-254.56 343.93,-353.39 10.13,-31.93 20.64,-63.57 31.06,-94.86 -183.71,80.64 -343.97,204.24 -469.11,362.01 81.56,-119.07 182.36,-221.79 297.92,-305.34 -148.19,75.01 -268.77,180.75 -358.37,334.81 -17.03,29.3 -34.32,58.43 -52.12,86.96 9.82,10.46 19.14,21.43 27.49,32.98 34.04,-47.88 73.08,-92.07 117.31,-130.94 -38.91,52.4 -70.61,109.83 -94.48,170.52 6.17,14.34 10.41,29.56 12.03,45.79 0.17,0.96 0.35,2.35 0.49,4.4 -28.88,-17.01 -55.4,-39.35 -81.43,-61.39 -26.22,38.9 -59.02,76.78 -98.36,100.2 -97.29,110.97 -218.47,189.14 -392.36,189.14 -78.89,0 -330.71,-91.52 -135.92,-125.11 45.27,-7.8 116.11,0.94 153.41,-23.46 3.37,-2.19 6.62,-4.88 9.78,-7.93 -47.87,-15.45 -99.5,-16.53 -148.38,-3.69 53,-30.07 115.12,-41.31 175.43,-33.87 8.91,-15.92 16.51,-32.62 22.76,-45.78 -57.55,-3.35 -115.51,5.94 -169.41,26.82 55.97,-37.11 120.4,-59.59 186.92,-67.22 9.62,-25.31 16.84,-51.22 21.56,-76.97 -84.83,10.6 -166,42.43 -235.62,92.39 66.72,-66.32 150.45,-113.25 241.25,-137.16 0.7,-10.78 0.95,-21.45 0.66,-31.94 -115.64,24.19 -226.28,67.89 -327.29,129.49 96.83,-75.97 206.21,-133.98 322.98,-172.32 -2.33,-13.19 -5.57,-25.92 -9.82,-38.05 -145.91,40.45 -280.78,111.22 -397.74,207.87 108.2,-108.07 237.19,-191.65 379.47,-246.66 -5.1,-8.27 -10.82,-16.08 -17.19,-23.35 -148.61,60.39 -285.87,144.59 -406.95,250.23 108.61,-112.83 234.02,-207.08 372.14,-280.12 -6.49,-4.17 -13.44,-7.89 -20.74,-11.27 -167.68,64.25 -317.97,164.38 -443.99,292.34 106.23,-127.67 234.96,-231.65 380.55,-309.62 l -0.3,-0.03 c -190.27,51.58 -357.38,166.07 -477.13,322.73 86.91,-133.2 206.37,-241.13 346.07,-313.87 -105.49,21.05 -202.87,70.98 -285.06,142.34 -51.22,44.46 -96.7,95.67 -135.3,151.42 -10.65,15.39 -21.11,40.91 -33.21,59.78 135.7,14.28 274.43,70.13 375.5,162.65 -95.11,-30.81 -299.37,-120.89 -452.27,-118.7 -27.13,7.53 -57.5,12.83 -81.5,12.66 -6.89,2.36 -13.55,5.05 -19.94,8.14 -52.16,101.73 -118.44,202.5 -123.94,289.95 -78.41,-187.81 123.06,-346.46 145.49,-528.41 -2.46,-21.98 -10.95,-42.61 -28.35,-63.06 -12.49,78.56 -31.94,155.99 -59.37,230.72 14.01,-74.69 21.2,-150.5 21.32,-226.44 -17.37,26.25 -34.74,52.5 -52.12,78.75 l 1.97,0.16 c -12.86,90.62 -34.93,179.93 -67.5,265.52 12.72,-65.93 20.15,-132.78 21.94,-199.84 -1.25,1.89 -2.5,3.77 -3.75,5.66 -15.33,23.17 -29.77,49.91 -45.52,75.63 -24.83,112.18 -57.88,219.34 -40.68,340.34 -63.1,-66.93 -71,-158.36 -49.45,-246.06 -2.8,1.29 -5.56,2.64 -8.48,3.72 -66.15,24.67 -132.21,24 -196.04,61.97 -44.3,26.35 -83.31,60.82 -115.16,101.31 -28.55,36.31 -55.73,139.71 -108.03,130.74 -76.2,-13.06 -143.12,-174.06 -167.19,-229.93 -33.26,-77.22 -80.77,-125.49 -143,-154.6 42.37,54.98 80.47,113.2 113.54,174.31 -54.71,-72.6 -117.06,-139.15 -185.8,-198.56 -20.27,-4.64 -41.69,-8.09 -64.28,-10.5 122.75,115.73 231.65,244.54 325.58,385.13 -112.73,-143.13 -242.1,-270.85 -386.12,-382.11 -3.34,1.88 -5.93,4.26 -7.93,7.18 84.02,156.41 186.4,301.32 306.13,432.64 -117.85,-109.8 -222.52,-231.8 -313.21,-364.46 -0.02,1.68 -0.05,3.37 -0.08,5.11 -0.19,8.99 -0.27,18.05 -0.26,27.13 53.31,161.5 159.08,301.25 299.3,398.86 -122.02,-71.25 -222.55,-172.89 -292.5,-293.73 3.1,21.72 7.33,43.21 13.34,64.12 36.83,128.38 172.27,209.21 268.69,293.24 44.38,38.67 143.15,94.5 160.55,155.56 1.37,-5.34 2.78,-10.67 4.2,-16 -13.33,-83.25 -2.01,-168.64 45.83,-242.32 -113.22,385.87 292.55,594.28 557.11,761.17 -185.66,-51.39 -382.97,-136.08 -503.55,-293.07 -27.85,-36.26 -51.68,-77.34 -69.55,-120.89 71.66,312.45 418.03,447.95 703.55,497.24 -73.1,24.75 -138.31,73.54 -182.69,136.68 88.95,12.38 161.01,69.52 235.96,113.97 71.93,42.66 147.76,77.53 227.52,102.91 170.32,54.17 354.28,66.36 529.93,32.64 -70.31,77.02 -157.72,134.49 -254.31,171.68 -37.33,-34.69 -91.51,-56.51 -141.71,-55.22 19.15,37.86 58.88,63.69 100.88,69.55 l -1.63,0.54 c -39.77,12.56 -83.74,21.39 -122.89,36.83 -29.24,-29.03 -68.28,-50.02 -108.48,-56.18 5.55,36.12 34.52,64.56 68.63,75.84 -29.42,18.35 -52.98,44.19 -65.02,84.02 -39.3,130.02 34.98,283.72 132.18,403.49 81.57,72.1 163.13,144.19 244.7,216.29 5.33,1.46 10.64,3.02 15.99,4.4 18.9,4.87 37.54,9.05 55.95,13.01 -2.08,-1.73 -4.23,-3.52 -6.39,-5.32 -99.13,-63.73 -186.36,-149.01 -251.6,-247.56 -15.77,-19.5 -30.17,-38.84 -42.54,-57.64 -83.29,-117.33 -143.04,-277.73 -35.53,-361.53 25.77,-20.09 56.1,-28.17 87.9,-31.35 15.22,-3.86 30.33,-7.62 44.44,-12.87 52.7,-19.6 94.84,-50.53 137.46,-86.61 33.26,-28.16 65.21,-54.31 96.77,-78.12 23.05,-33.38 60.68,-54.91 102.31,-68.31 59.74,-33.99 121.66,-57.75 191.74,-68.41 -170.99,-11.11 -344.15,41.46 -516.11,36.56 -240.25,-6.84 -449.92,-103.62 -636.18,-249.49 377.79,-326.27 779.93,-44.49 1186.72,31.46 -184.25,-10.7 -401.04,-94.27 -609.99,-127.22 67.18,32.17 136.56,59.67 207.72,81.99 -111.8,-18.91 -221.24,-50.04 -326.44,-92.32 l 0.54,-2.09 c -28.73,-1.29 -57.16,-1.13 -85.16,0.84 123.81,61.65 253.82,109.95 388.06,143.88 -158.52,-24.34 -313.32,-68.11 -461.19,-130.2 0.24,-1.37 0.63,-2.77 1.04,-4.17 -27.74,5.48 -54.94,13.15 -81.49,23.37 186.88,64.81 376.65,120.71 568.89,167.42 -211.39,-35.83 -420.63,-82.72 -627.2,-140.12 -7.99,4.46 -15.89,9.25 -23.74,14.28 214.24,88.69 439.06,146.79 669.75,172.98 -242.77,-12.05 -482.4,-60.31 -711.11,-142.32 170.94,126.73 377.61,200.02 590.97,205.66 169.28,4.47 339.99,-32.17 505.13,4.91 51.88,-3.99 108.37,-1.23 171.75,9.53 90.03,15.27 179.92,42.12 268.2,77.27 137.45,-8.02 276.13,27.03 396.39,94.65 -35.9,-55.99 -68.97,-113.34 -97.43,-169.67 98.31,46.96 181.51,147.78 221.04,256.44 62.53,54.12 115.82,118.6 155.56,191.26 178.62,76.98 342.74,182.58 449.05,351.43 -192.63,-203.41 -446.31,-296.71 -707.9,-381.33 -241.15,-78 -507.13,-163.63 -751.82,-47.52 49.38,-36.8 102.63,-61.58 158.18,-77.14 -43.62,-0.04 -87.55,8.22 -127.8,24.38 l -47.21,7 c -51.77,-121.63 -289.51,-104.09 -390.01,-85.55 141.6,-226.49 432.11,-66.43 592.41,47.31 184.79,-41.4 391.83,12.6 566.79,67.79 28.15,8.89 56.44,18.09 84.72,27.68 l -49.94,-31.12 c -213.16,-126.81 -444.52,-241.55 -682.46,-289.66 -72.85,-14.73 -149.01,-20.86 -223.44,-13.34 111.38,17.41 220.12,71.47 289.49,160.66 -101.51,-52.32 -297.06,-129.09 -452.98,-117.69 -105.61,49.96 -180.04,145.65 -275.17,209.69 74.9,-10.94 147.52,-35.53 222.98,-43.2 112.86,-11.47 270.04,19.23 296.59,151.61 -68.39,-147.91 -251.66,-114.96 -376.05,-82.01 -73.04,19.35 -142.49,36.41 -218.26,39.97 -21.56,1.01 -46.69,-1.24 -71.14,-0.33 -19.24,58.98 -6.8,123.15 28.46,171.46 18.77,10.36 36.98,21.62 54.16,28.16 86.04,32.79 148.75,-1.19 234.75,-3.17 38.15,-0.89 79.57,6.12 103.91,36.04 13.28,-7.51 26.81,-14.63 40.54,-21.37 l -29.52,-11.92 c -79.4,-61.81 -440.68,33.01 -397.7,-157.54 125.24,64.72 252.31,-57.21 371.96,-76.36 122.72,-19.64 206.2,66.89 253.92,169.45 30.36,-8.93 61.01,-15.49 91.83,-19.94 161.2,-185.86 441.68,-101.46 633.29,-17.05 123.08,54.21 243.17,100.76 371.58,140.64 104.43,32.43 217.99,78.17 273.05,179.85 -192.78,-70.11 -385.53,-140.32 -578.36,-210.32 -82.18,-29.84 -165.1,-63 -251.76,-77.61 -43.55,-7.33 -89.56,-3.26 -135.3,0.03 82.64,17.45 163.88,43.21 241.57,71.94 211.08,78.05 425.96,151.76 635.3,233.8 37.33,14.63 74.75,31.19 111.07,50.03 -1.51,-0.89 -3.02,-1.84 -4.53,-2.72 75.48,-14.43 149.65,37.17 164.25,111.31 50.24,45.72 92.12,99.78 119.93,164.21 -93.98,-157.67 -266.47,-237.55 -434.91,-291.03 -206.85,-65.67 -408.74,-132.85 -612.33,-208.47 -147.05,-54.62 -305.24,-101.94 -463.53,-100 -231.85,50.48 -468.93,119.76 -461.51,412.41 -40.88,-97.24 -20.86,-206.74 38.94,-289.16 -12.61,-22.23 -33.95,-31.88 -60.62,-34.97 -72.2,-8.38 -141.11,37.57 -219.58,23.8 -56.55,-9.92 -109.12,-57.2 -161.73,-63.46 -1.39,0.84 -3.32,1.76 -4.86,2.28 -40.22,21.03 164.46,274.06 274.21,404.18 17.76,13.96 36.04,27.25 54.81,39.84 6.06,1.31 12.1,2.66 18.13,4.03 -50.76,-55.03 -91.87,-118.63 -120.67,-188.15 52.9,88.84 127.33,163.34 216.25,216.09 5.87,2.25 11.73,4.66 17.58,7.19 -15.72,-27.79 -27.85,-57.62 -35.75,-88.74 29.78,58.9 76.26,108.51 133.23,141.8 -15.98,-24.14 -28.1,-49.75 -35.2,-76.68 -48.36,-63.7 -57.32,-156.12 -31.15,-232.25 49.14,-142.98 199.66,-227.94 346.85,-221.75 -140.51,55.23 -303.03,185.58 -312.77,333.14 9.09,-29.92 24.54,-60.91 47.57,-92.83 41.17,-57.11 93.99,-86.72 153.31,-102.26 62.32,-75.69 227.18,-95.29 308.34,-103.95 146.25,-15.6 278.2,40.97 407.74,101.65 -52.08,0.42 -94.86,60.6 -78.15,109.92 -77.61,-86.47 -211,-172.05 -332.03,-169.86 -30.38,0.55 -48.86,8.69 -74.39,23.04 -8.49,5.66 -14.82,13.04 -19.01,22.14 141.35,3.83 294.24,36.13 381.42,154.96 -60.73,-52.87 -176.79,-91.83 -299.55,-105.03 -6.65,29.57 -10.34,59.78 -10.81,90.09 -13.62,-29.97 -23.74,-61.4 -30.74,-93.56 -7.1,-0.42 -14.2,-0.75 -21.3,-0.99 -5.88,33.2 -6.96,66.93 -1.13,100.34 -20.02,-30.64 -33.67,-64.9 -41.31,-100.61 -13.58,0.27 -27.08,0.88 -40.42,1.88 3.51,46.05 12.88,91.56 27.92,135.25 -28.84,-40.32 -51.96,-84.43 -69.33,-130.82 -12.59,1.75 -24.96,3.86 -37.07,6.37 6.85,33.41 17.23,66.05 31.11,97.23 -25.92,-26.67 -48.61,-56.34 -67.87,-88.13 -13.29,3.85 -26.12,8.24 -38.41,13.18 13.98,43.21 35.52,83.81 63.55,119.63 -38.91,-28.13 -72.25,-63.23 -99.03,-102.96 -7.26,3.99 -14.28,8.19 -20.98,12.67 18.59,42.38 41.89,82.64 69.42,119.87 -36.77,-28.06 -70.22,-60.19 -100.1,-95.42 -5.18,4.92 -10.03,10.11 -14.61,15.49 26.59,38.91 53.19,77.82 79.78,116.73 -34.65,-26.87 -69.3,-53.74 -103.95,-80.61 -1.23,2.42 -2.39,4.88 -3.52,7.36 26.11,124.96 101.05,211.4 184.32,295.19 10.56,-59.67 60.59,-114.67 129.6,-89.12 -32.25,22.2 -59.1,53.72 -70.59,91.54 -4.8,15.41 -5.81,33.55 -4.15,52.03 12.05,11.96 24.08,24.04 36,36.32 4.08,2.25 8.18,4.46 12.26,6.73 27.36,15.2 55.37,27.77 83.84,38.43 -12.71,-13.73 -21.64,-29.77 -24.32,-46.81 15.99,15.22 45.42,20.89 56.22,0.23 13.34,-25.55 -22.63,-51.5 -47.24,-46.16 17.76,-30.79 52.04,-38.35 86.48,-31.13 -53.17,-40.36 -118.76,-64.25 -158.07,13.05 15.13,-182.32 231.64,-27.4 288.58,32.73 71.13,75.11 156.64,115.73 247.03,154.55 17.24,2.27 34.42,4.76 51.51,7.56 -5.01,-4.68 -9.92,-9.48 -14.68,-14.42 -57.31,-59.6 -87.45,-143.44 -157.89,-190.48 93.04,7.24 147.15,100.58 210.1,157.34 37.29,33.62 78.83,60.9 121.16,87.05 15.59,5.62 31.03,11.82 46.28,18.7 -36.19,-39.9 -70.7,-81.81 -103.96,-124.09 2.93,5.65 5.98,11.25 8.83,16.94 -100.13,-54.98 -168.71,-152.56 -262.69,-216.42 -48.19,-32.74 -98.04,-58.38 -128.71,-110.23 -10.11,-17.1 -44.69,-95.08 -27.52,-125.53 -9.25,-0.8 -18.66,-0.32 -28.32,2.28 -114.34,34.13 82.51,234.72 110.36,255.43 -85.38,-8.92 -228.41,-133.73 -203.14,-231.72 2.31,-21.54 12.46,-42.52 33.74,-61.5 45.13,-40.26 97.78,-33.72 149.29,-5.91 116.99,0.28 222.84,70.49 324.07,122.31 87.12,44.6 178.17,80.25 271.69,109.06 109.21,33.65 221.12,58.77 333.55,80.8 -5.43,-2.31 -10.65,-4.48 -15.47,-6.37 -249.16,-97.55 -536.94,-190.18 -730.38,-383.35 60.7,38.65 124.12,72.06 189.07,102.43 -30.66,-36.71 -34.44,-77.62 42.44,-85.43 92.78,-9.43 220.95,52.57 300.17,94.83 42.44,22.63 215.66,110.57 200.94,175.44 -2.75,12.1 -8.86,20.32 -17.34,25.61 95.22,42.98 211.68,115.41 310.53,122.42 9.99,0.71 18.86,0.46 26.93,-0.45 21.02,-4.02 39.79,-13.74 53.88,-32.95 1.92,-3.74 3.51,-7.69 4.75,-11.86 2.9,-33.17 -17.15,-73.1 -28.94,-98.41 z M 4668.75,4987.68 c -67.78,-17.46 -135.57,-34.92 -203.35,-52.38 -3.15,2.06 -6.33,4.09 -9.46,6.16 34.47,19.52 68.94,39.03 103.42,58.54 18.06,8.72 36.32,15.01 53.88,14.05 22.46,-1.24 41.11,-11.24 55.51,-26.37 z m -15.97,-323.43 c -41.73,-32.38 -107.16,-8.38 -122.08,40.68 44.1,3.92 89.32,-10.73 122.08,-40.68 z m 47.42,259.56 c -7.88,-21.82 -21.22,-41.43 -40.04,-55.11 -14.46,-9.38 -33.52,-14.74 -53.78,-16.07 -5.8,3.01 -11.59,6.04 -17.36,9.13 16.27,10.18 32.55,20.37 48.82,30.56 -25.7,-5 -51.41,-10 -77.11,-15.01 -3.71,2.09 -7.43,4.17 -11.12,6.29 33.06,16.05 66.13,32.09 99.19,48.14 -43.33,-10.01 -86.65,-20.01 -129.98,-30.02 -5.68,3.43 -11.35,6.86 -16.99,10.35 56.05,24.76 112.1,49.53 168.15,74.29 15.17,-16.53 25.41,-38.84 30.22,-62.55 z m 171.29,-269.74 c -7.7,-33.4 -59.56,-7.02 -66.12,15.26 15.59,17.06 73.94,18.61 66.12,-15.26 z m 208.55,-40.69 c -35.25,-23.61 -82.55,-14.19 -106.82,20.35 35.28,23.45 82.63,14.33 106.82,-20.35 z m -1795.51,574.77 c -36.52,8.59 0.21,76.9 20.34,86.47 13.67,-17.59 16.8,-95.21 -20.34,-86.47 z m 168.8,467.28 c -25.76,-95.4 -70.61,-196.05 -124.87,-278.65 -11.14,101.64 41.73,219.22 124.87,278.65 z m 34.65,-279.08 c -31.9,14.72 7.76,63.34 30.52,66.12 12.58,-19.05 1.86,-81.07 -30.52,-66.12 z m -11.06,346.54 c -28.63,21.31 22.85,62.53 45.57,61.19 7.73,-21.31 -16.5,-82.83 -45.57,-61.19 z m 357.29,344.93 c -4.72,43.69 39.26,78.04 80.57,62.38 -11.81,-36.27 -42.99,-58.92 -80.57,-62.38 z m -259.82,-192.97 c 29.84,113.21 126.29,223.97 234.14,269.43 -61.36,-97.46 -146.01,-195.26 -234.14,-269.43 z m 204.4,-21.39 c 2.71,36.1 58.21,103.44 95.79,72.22 -3.98,-4.43 -8.43,-8.37 -13.32,-11.78 5.44,-23.06 -44.47,-62.86 -82.47,-60.44 z M 4113,6063.89 c -11.65,-44.11 -55.56,-76.53 -101.55,-71.46 11.52,44.21 55.6,76.36 101.55,71.46 z m -34.99,192.41 c -0.47,-24.8 -17.5,-37.8 -40.69,-25.44 -21.61,11.53 15.73,51.57 40.69,25.44 z m -107.68,52.34 c 25.91,50.66 84.56,85.2 141.51,82.94 -26.03,-50.54 -84.52,-85.37 -141.51,-82.94 z m -772.7,-803.99 c 67.03,251.16 201.33,471.72 394.44,655.63 208.25,198.32 459.06,353.42 721.41,469.5 15.92,7.04 31.98,13.98 48.09,20.83 -42.06,-32 -79.35,-70.21 -109.9,-113.27 -553.09,-292.52 -1051.04,-804.54 -1070.5,-1442.48 -6.32,137.28 0.13,272.4 16.46,409.79 z m 1834.59,1403.96 2.08,1.13 c -0.88,-0.92 -1.77,-1.84 -2.63,-2.77 l 0.55,1.64 z m 582.79,210.1 c -42.57,-21.64 -82.1,-49.91 -119.23,-85.11 0.15,10.64 -2.21,21.53 -7.88,32.39 -7.54,14.43 -18.29,24.31 -30.88,30.35 52.05,10.18 104.95,16.69 157.99,22.37 z m 478.43,-291.75 c -29.7,-7.06 -59.39,-14.1 -89.08,-21.15 7.62,33.94 15.25,67.88 22.88,101.82 22.06,-26.89 44.13,-53.78 66.2,-80.67 z m 122.23,164.16 c 1.93,2.3 3.82,4.62 5.74,6.91 -0.51,-1.87 -0.97,-3.69 -1.41,-5.51 -1.45,-0.46 -2.89,-0.93 -4.33,-1.4 z m 47.67,-116.6 c -30.15,-4.74 -60.29,-9.49 -90.44,-14.23 7.21,52.33 14.42,104.67 21.63,157 22.94,-47.59 45.87,-95.18 68.81,-142.77 z m 71.56,385.46 -2.53,-0.96 1.01,2.06 0.93,0.68 0.59,-1.78 z m -78.1,84.3 c 74.03,45.54 151.35,79.89 253.16,83.27 65.01,2.15 97.11,-18.72 110.22,-51.72 -138.33,92.07 -375.12,-100.9 -457.62,-188.88 -178.48,-190.31 -296.94,-473.13 -553.46,-566.05 73.41,51.47 140.71,136.54 175.66,177.72 151.31,178.31 284.41,401.98 472.04,545.66 z m 183.79,-422.44 c -29.11,-9.18 -58.21,-18.36 -87.32,-27.54 0.87,47.98 1.73,95.95 2.6,143.93 28.24,-38.8 56.48,-77.6 84.72,-116.39 z m 186.7,396.57 c -2.71,-44.92 -18.98,-97.39 -32.68,-144.73 -10.13,-35.02 -64.01,-137.02 -77.05,-198.13 -25.52,-4.1 -51.01,-8.58 -76.41,-13.46 26.92,22.3 50.96,48.12 70.94,78.46 49.4,75.03 66.79,179.95 13.93,257.8 15.73,-78.6 0.51,-141.16 -33.34,-193.2 2.36,8.62 4.43,17.51 6.15,26.73 16.36,87.87 -20.19,162.07 -78.2,181.38 20.99,9.86 42.71,18.18 65.2,24.61 73.43,21.01 119.28,10.24 141.46,-19.46 z m 290.2,-347.81 c -54.58,103.81 -237.96,40.79 -321.65,21.2 41.83,106.41 150.19,332.77 72.14,443.98 -76.98,109.71 -297.25,36.76 -391.5,-3.7 -132.36,-56.82 -218.82,-164.44 -361.6,-205.25 -169.43,-48.43 -347.36,-24.08 -516.15,-73.27 -153.43,-44.72 -303.81,-141.36 -446.94,-213.81 -62.99,-31.89 -116.76,-78.39 -182.42,-106.31 -91.09,-38.73 -198.59,-42.26 -293.6,-74.72 C 3916.23,6567.54 3329.4,6165.4 3152.62,5575.25 c -39.54,-131.98 -60.66,-269.29 -65.85,-406.87 -2.97,-78.72 -0.93,-157.84 6.63,-236.26 3.55,-36.81 21.12,-92.74 5.67,-122.39 -19.9,-38.17 -86.69,-75.31 -119.35,-103.76 -52.63,-45.84 -105.21,-91.73 -157.65,-137.79 -91.03,-79.94 -139.94,-151.46 -156.11,-274.25 -8.23,-62.47 -27.19,-188.96 2.62,-249 24.4,-49.14 89.76,-33.45 139.2,-27.81 95.21,10.88 199.31,40.53 264.95,114.79 75.57,85.5 86.36,208.89 173.1,290.26 77.07,-164.73 212.22,-227.13 376.61,-275.73 73.54,-21.74 108.4,-113.43 151.89,-179.13 26.64,-40.24 90.14,-185.7 145.68,-185.47 37.62,0.16 84.43,64.2 98.9,91.87 37.81,72.34 7.96,151.99 -19.17,223.45 72.58,-10.75 72.2,-22.77 113.46,-82.05 60.17,-86.45 136.41,-164.02 224.89,-221.55 119.64,-77.79 323.26,-153.17 463.63,-89.3 159.12,72.39 166.82,254.17 117.65,400.98 -19.03,56.81 -48.59,122.25 -91.5,165.98 -41.51,42.31 -91.04,36.12 -149.7,42.96 376.31,94.88 496.84,-301.98 672.42,-528.87 88.48,-114.35 217.89,-193.13 348.49,-250.77 57.16,-25.22 140.33,-70.69 204.96,-70.69 63.66,0 -41.24,260.84 -49.53,291.38 -22.82,84.04 -53.79,198.82 -52.01,301.7 l 0.07,0.1 -0.07,0.04 c 0.81,45.87 8.11,89.37 25.57,126.73 16.72,35.75 53.34,48.34 85.17,76.22 40.19,35.21 72.87,78.29 92.72,128.09 30.46,76.37 15.52,149.01 16.96,228.43 1.35,74.15 17.77,148.34 42.3,218.11 19.83,56.37 97.52,150.46 21.73,175.98 -62.49,21.04 -170.46,-3.62 -233.28,-11.7 -120.41,-15.49 -241.24,-45.15 -350.12,-99.93 -86.46,-43.5 -148.29,-129.71 -241.16,-152.51 -197.95,-48.59 -394.02,-11.91 -574.37,67.04 27.4,12.04 43.98,34.19 51.68,60.75 16.15,29.3 18.75,62.54 -2.92,92.13 -12.05,40.05 -36.66,76.67 -68.76,95.1 78.92,44.68 157.84,89.35 236.76,134.02 2.45,-126.79 53.78,-260.26 173.21,-318.98 113.82,-55.98 147.33,52.07 186.07,146.05 53.68,130.26 28.77,300.89 133.69,404.26 87.92,86.62 217.57,118.04 319.02,185.49 113.21,75.26 218.34,166.13 314.82,261.66 41.94,41.53 77.52,86.43 116.07,130.67 48.67,55.84 107.36,81.78 173.1,113.02 236.5,112.42 400.51,362.45 529.58,583.36 42.73,73.15 113.03,182.27 67.15,269.54"
         style="fill:#393536;fill-opacity:1;fill-rule:nonzero;stroke:none"
         id="path68"
         inkscape:connector-curvature="0" /><path
         d="m 7076.22,7740.45 c 48.86,173.42 33.81,260.57 -7.51,289.71 7.5,-3.33 15.12,-7.76 22.27,-14.29 11.46,-10.4 20.51,-25.75 26.13,-44.07 5.38,-18.49 7.09,-39.75 6.95,-62.23 0.09,-22.54 -3.92,-46.44 -7.65,-71 -4.73,-24.56 -10.88,-49.7 -18.08,-75.13 -7.02,-25.27 -15.41,-51.51 -23.35,-77.49 -7.81,-26.06 -15.61,-52.13 -23.3,-77.79 -8,-25.52 -15.21,-50.81 -23.07,-74.96 -15.52,-48.28 -30.65,-93.28 -48.45,-128.81 -9.05,-17.35 -18.94,-33.32 -31.01,-40.74 -2.98,-1.84 -6.02,-2.72 -9.04,-3.26 -1.52,0.03 -3,0.05 -4.46,0.08 l -1.29,0.19 c 42.35,23.51 89.66,194.54 141.86,379.79 z m -19.93,319.28 c -0.29,-0.01 -2.46,1.16 -3.45,1.99 -1.19,1 -2.33,2.15 -3.26,3.5 -1.79,2.71 -3.04,6 -3.2,9.44 -0.09,1.6 0.11,3.67 0.37,4.9 -0.05,0.51 0.58,1.9 0.98,2.96 l 0.84,2.18 c 1.57,3.08 3.59,6.1 6.25,8.43 5.32,4.87 12.56,5.77 16.8,4.45 2.23,-0.55 3.66,-1.29 4.77,-1.97 1.08,-0.67 1.65,-1.03 1.65,-1.03 l -0.07,0.04 c -0.12,-0.09 2.35,-1.39 4.5,-5.27 1.07,-1.89 1.8,-4.57 1.7,-7.51 -0.11,-2.95 -1.13,-6.11 -2.8,-8.65 -1.5,-2.32 -4.05,-5.03 -5.07,-5.37 l -0.92,-1.2 -0.54,-0.71 -0.27,-0.36 0.36,0.64 -0.06,-0.05 -0.08,-0.07 -1.19,-1.07 -2.43,-1.91 c -1.61,-1.29 -3.48,-2.67 -5.97,-3.69 -1.24,-0.45 -2.6,-0.69 -4.03,-0.76 -1.79,0.16 -1.54,-0.34 -4.88,1.09 z m -286.25,-850.09 c 4.93,2.45 11.69,6.22 19.39,11.16 1.61,1.03 3.38,2.34 5.05,3.48 2.9,-2.56 5.92,-4.94 9.09,-7.13 5.86,-4.01 12.28,-7.28 19.16,-9.58 6.94,-2.15 14.44,-3.37 21.96,-2.3 7.48,0.9 14.42,4.42 18.96,8.76 4.65,4.33 7.15,9.13 8.73,13.26 1.58,4.13 2.25,7.77 2.51,10.76 0.4,2.93 0.26,5.29 0.21,6.86 -0.1,1.57 -0.14,2.41 -0.14,2.41 0,0 -2.18,-2.42 -5.99,-6.65 -1.85,-2.01 -4.25,-4.22 -6.82,-6.4 -2.75,-2.03 -5.83,-3.87 -8.92,-4.75 -6.11,-1.78 -11.97,-0.11 -19.89,4.12 -4.48,2.53 -9.3,6 -13.95,9.85 7.03,6 14.08,12.38 20.83,19.19 16.79,16.9 31.76,35.61 41.56,51.07 2.09,3.3 3.92,6.37 5.58,9.26 2.15,-1.06 4.42,-1.96 6.89,-2.43 14.91,-2.86 29.31,6.91 32.17,21.82 0.73,3.8 0.62,7.56 -0.17,11.12 l 1.79,-0.78 c 2.01,-0.81 3.62,-1.18 5.45,-1.77 2.29,-0.52 4.54,-0.7 6.92,-0.99 4.72,0.12 9.6,1.05 14,3.08 17.71,8.4 29.78,24.92 41.15,42.51 11.31,17.84 21.55,38.02 31.09,59.76 9.66,21.69 19.03,44.82 27.72,69.04 8.71,24.21 17.74,49.18 25.8,74.86 8.04,25.66 16.22,51.73 24.39,77.79 7.65,26.26 15.55,52.06 22.55,78.6 7.3,26.27 12.02,52.87 16.11,78.65 3.21,26.01 5.45,51.36 3.83,75.73 -1.21,24.27 -5.23,47.42 -13.28,67.68 -8.03,20.25 -20.8,37.03 -35.38,47.33 -3.29,3.01 -7.47,4.56 -10.94,6.74 -1.15,0.74 -2.41,1.25 -3.64,1.81 2.05,0.89 4.04,1.92 5.87,3.17 6.45,4.38 11.66,11.84 13.27,17.45 2.78,8.14 1.69,14.3 -0.17,20.06 -2.08,5.55 -5.29,9.64 -8.23,12.6 -2.9,3.04 -5.83,4.89 -7.97,6.42 -4.46,2.89 -7.01,4.02 -7.01,4.02 l -0.07,0.03 c 0,0 -2.36,1.28 -7.18,2.8 -4.68,1.32 -11.84,3.29 -21.36,1.24 -4.64,-1.15 -9.77,-3.58 -13.89,-7.84 -1.06,-1.18 -1.88,-1.95 -3.06,-3.67 -0.7,-1.05 -1.32,-1.72 -2.21,-3.52 -1.73,-3.21 -2.66,-6.04 -3.46,-9.44 -1.43,-6.6 -1.05,-14.02 1.7,-20.94 2.45,-5.85 5.86,-10.88 11.21,-15.34 -57.19,2.46 -115.87,-214.72 -118.25,-415.07 -1.82,-153.44 -27.43,-222.3 -20.71,-250.76 -14.05,1.48 -27.14,-7.89 -29.85,-22.02 -1.5,-7.82 0.53,-15.45 4.9,-21.4 -2.59,-1.52 -5.3,-3.16 -8.21,-5.03 -15.39,-9.89 -34.02,-24.97 -50.82,-41.85 -6.38,-6.4 -12.35,-13.06 -18.02,-19.72 -2.37,3.74 -4.27,7.53 -5.64,11.33 -3.05,8.21 -3.24,16.97 -1.82,25.1 1.35,8.14 4.27,15.23 6.48,20.21 2.25,4.99 3.91,7.9 3.91,7.9 0,0 -3.22,-0.96 -8.22,-4.05 -2.41,-1.61 -5.51,-3.58 -8.48,-6.49 -2.99,-2.88 -6.42,-6.35 -9.29,-10.91 -5.89,-8.83 -10.49,-22.4 -8.55,-37.07 0.86,-7.26 3.15,-14.48 6.37,-21.12 1.82,-3.55 3.74,-6.85 5.88,-10.04 -1.4,-2.06 -2.96,-4.21 -4.21,-6.17 -4.89,-7.74 -8.62,-14.52 -11.04,-19.46 -2.45,-4.92 -3.6,-7.98 -3.6,-7.98 0,0 3.06,1.16 7.96,3.64"
         style="fill:#393536;fill-opacity:1;fill-rule:nonzero;stroke:none"
         id="path70"
         inkscape:connector-curvature="0" /></g></g></svg>