<?xml version="1.0" encoding="UTF-8" standalone="no"?>
<!-- Created with Inkscape (http://www.inkscape.org/) -->

<svg
   xmlns:dc="http://purl.org/dc/elements/1.1/"
   xmlns:cc="http://creativecommons.org/ns#"
   xmlns:rdf="http://www.w3.org/1999/02/22-rdf-syntax-ns#"
   xmlns:svg="http://www.w3.org/2000/svg"
   xmlns="http://www.w3.org/2000/svg"
   xmlns:sodipodi="http://sodipodi.sourceforge.net/DTD/sodipodi-0.dtd"
   xmlns:inkscape="http://www.inkscape.org/namespaces/inkscape"
   id="svg2"
   version="1.1"
   inkscape:version="0.91 r13725"
   xml:space="preserve"
   width="1225"
   height="1225"
   viewBox="0 0 1225 1225"
   sodipodi:docname="logo_6.svg"><metadata
     id="metadata8"><rdf:RDF><cc:Work
         rdf:about=""><dc:format>image/svg+xml</dc:format><dc:type
           rdf:resource="http://purl.org/dc/dcmitype/StillImage" /><dc:title></dc:title></cc:Work></rdf:RDF></metadata><defs
     id="defs6" /><sodipodi:namedview
     pagecolor="#ffffff"
     bordercolor="#666666"
     borderopacity="1"
     objecttolerance="10"
     gridtolerance="10"
     guidetolerance="10"
     inkscape:pageopacity="0"
     inkscape:pageshadow="2"
     inkscape:window-width="1315"
     inkscape:window-height="744"
     id="namedview4"
     showgrid="false"
     inkscape:zoom="0.19265306"
     inkscape:cx="612.5"
     inkscape:cy="612.5"
     inkscape:window-x="51"
     inkscape:window-y="24"
     inkscape:window-maximized="1"
     inkscape:current-layer="g10" /><g
     id="g10"
     inkscape:groupmode="layer"
     inkscape:label="ink_ext_XXXXXX"
     transform="matrix(1.25,0,0,-1.25,0,1225)"><g
       id="g12"
       transform="scale(0.1,0.1)"><path
         d="m 6123.55,6123.56 c -313.21,313.17 -745.64,506.8 -1223.55,506.81 -477.91,-0.01 -910.34,-193.64 -1223.56,-506.81 -313.17,-313.22 -506.8,-745.65 -506.81,-1223.56 0.01,-477.91 193.64,-910.34 506.81,-1223.56 313.22,-313.17 745.65,-506.8 1223.56,-506.81 477.91,0.01 910.34,193.64 1223.55,506.81 313.18,313.22 506.81,745.65 506.82,1223.56 -0.01,477.91 -193.64,910.34 -506.82,1223.56"
         style="fill:#ffffff;fill-opacity:1;fill-rule:nonzero;stroke:none"
         id="path14"
         inkscape:connector-curvature="0" /><path
         d="M 6123.55,3676.44 C 5810.34,3363.27 5377.91,3169.64 4900,3169.63 c -477.91,0.01 -910.34,193.64 -1223.56,506.81 -313.17,313.22 -506.8,745.65 -506.81,1223.56 0.01,477.91 193.64,910.34 506.81,1223.56 313.22,313.17 745.65,506.8 1223.56,506.81 477.91,-0.01 910.34,-193.64 1223.55,-506.81 313.18,-313.22 506.81,-745.65 506.82,-1223.56 -0.01,-477.91 -193.64,-910.34 -506.82,-1223.56 z m 933.66,3380.77 c -551.92,552 -1314.92,893.57 -2157.21,893.54 -842.29,0.03 -1605.29,-341.54 -2157.21,-893.54 -552,-551.92 -893.57,-1314.92 -893.55,-2157.21 -0.02,-842.28 341.55,-1605.29 893.55,-2157.21 551.92,-552 1314.92,-893.57 2157.21,-893.54 842.29,-0.03 1605.29,341.54 2157.21,893.54 552,551.92 893.57,1314.92 893.54,2157.21 0.03,842.28 -341.54,1605.29 -893.54,2157.21"
         style="fill:#393536;fill-opacity:1;fill-rule:nonzero;stroke:none"
         id="path16"
         inkscape:connector-curvature="0" /><path
         d="m 5705.52,4689.59 37.66,-6.92 c 87.61,-16.31 170.72,-31.1 241.68,-43.68 120,-21.47 238.53,-41.91 362.49,-62.53 L 7315,4419.52 6360.87,4645.06 c -122.43,28.4 -239.77,54.86 -358.66,80.92 -70.46,15.54 -152.93,33.68 -239.98,52.13 l -39.38,8.42 c -73.67,15.79 -149.86,32.11 -228.78,48.33 -20.12,4.14 -40.4,8.36 -60.8,12.61 20.95,0.2 41.76,0.38 62.41,0.52 81.55,0.52 160.35,1.68 236.55,2.8 l 37.61,0.55 c 87.37,1.08 169.3,2.72 245.69,4.31 122.27,2.37 242.59,5.43 367.93,9.4 l 980.17,34.95 -980.3,34.96 c -125.6,3.96 -245.9,7.03 -367.75,9.39 -76.11,1.58 -157.78,3.22 -245.68,4.31 l -39.78,0.58 c -75.54,1.11 -153.65,2.26 -234.44,2.78 -20.65,0.13 -41.46,0.31 -62.4,0.5 20.4,4.26 40.67,8.47 60.79,12.62 78.92,16.22 155.11,32.54 228.78,48.32 l 39.32,8.42 c 86.47,18.32 169.25,36.52 240,52.13 119.13,26.11 236.46,52.58 358.82,80.96 l 952.9,225.24 -966.66,-156.69 c -123.64,-20.56 -242.17,-41.01 -362.32,-62.5 -70.97,-12.58 -154.04,-27.37 -241.67,-43.67 l -39.59,-7.28 c -74.11,-13.62 -150.75,-27.69 -229.87,-42.9 -20.18,-3.88 -40.52,-7.74 -60.98,-11.61 19.27,8.18 38.42,16.31 57.44,24.34 75.08,31.67 147.38,62.87 217.3,93.04 l 34.72,14.98 c 81.25,34.84 158.93,68.87 225.33,98 111.79,48.86 221.77,97.74 336.32,149.48 l 891.51,407.07 -918.38,-342.52 c -117.25,-44.29 -229.58,-87.49 -343.35,-132.06 -67.74,-26.43 -146.87,-57.35 -228.62,-90.03 l -36.34,-14.44 c -70.42,-27.96 -143.23,-56.88 -218.29,-87.4 -19.14,-7.78 -38.44,-15.59 -57.86,-23.42 17.21,11.74 34.32,23.39 51.34,34.91 66.94,45.36 131.29,89.74 193.53,132.66 l 32.44,22.37 c 73.28,50.29 142.6,98.66 201.79,140.01 99.79,69.51 198.07,138.87 300.53,212.11 l 794.37,572.76 -833.32,-514.7 c -106.01,-66.09 -207.69,-130.34 -310.83,-196.39 -60.86,-38.85 -132.03,-84.37 -206.55,-132.84 l -33.62,-21.77 c -63.32,-40.97 -128.79,-83.33 -196.12,-127.7 -17.18,-11.31 -34.48,-22.66 -51.92,-34.08 14.68,14.95 29.26,29.79 43.77,44.49 57.42,58.16 112.44,114.82 165.64,169.62 l 25.85,26.62 c 61.22,62.75 117.9,121.75 170.69,176.77 84.52,87.86 167.42,175.1 253.5,266.8 l 668.13,717.69 -717.65,-668.34 c -91.49,-85.89 -178.74,-168.8 -266.67,-253.4 -55.04,-52.79 -114.02,-109.45 -176.78,-170.66 l -27.9,-27.11 c -54.4,-52.82 -110.65,-107.44 -168.37,-164.42 -14.69,-14.51 -29.54,-29.09 -44.48,-43.77 11.42,17.43 22.76,34.74 34.06,51.9 44.43,67.4 86.83,132.94 127.84,196.31 l 21.61,33.39 c 48.72,74.9 94.13,145.92 132.84,206.57 65.95,102.94 130.19,204.63 196.47,310.96 l 514.97,833.78 -573.15,-795.04 c -72.68,-101.65 -142.03,-199.92 -212.01,-300.39 -41.07,-58.76 -89.14,-127.66 -140,-201.76 l -21.56,-31.26 c -43.19,-62.63 -87.85,-127.38 -133.5,-194.76 -11.53,-17.02 -23.18,-34.14 -34.92,-51.36 7.83,19.43 15.63,38.72 23.42,57.86 30.42,74.79 59.22,147.35 87.1,217.52 l 14.72,37.06 c 32.65,81.67 62.38,157.75 90.02,228.64 44.78,114.28 87.98,226.61 132.12,343.5 l 342.77,918.81 -407.41,-892.17 c -51.82,-114.75 -100.7,-224.73 -149.4,-336.16 -28.94,-65.93 -62.77,-143.16 -98,-225.32 l -15.44,-35.78 c -30.03,-69.6 -61.08,-141.57 -92.6,-216.28 -8.03,-19.03 -16.16,-38.19 -24.35,-57.46 3.87,20.47 7.74,40.8 11.62,60.98 15.32,79.74 29.5,156.93 43.21,231.58 l 6.95,37.83 c 16.29,87.55 31.09,170.68 43.68,241.68 21.45,119.91 41.9,238.44 62.53,362.49 L 5380.48,7315 5154.93,6360.86 c -28.28,-121.92 -54.74,-239.25 -80.91,-358.65 -15.55,-70.52 -33.7,-153.03 -52.13,-239.98 l -8.46,-39.55 c -15.77,-73.62 -32.08,-149.75 -48.29,-228.6 -4.16,-20.23 -8.4,-40.59 -12.67,-61.09 -0.19,21.04 -0.37,41.94 -0.52,62.68 -0.48,75.86 -1.55,149.45 -2.58,220.62 l -0.78,53.55 c -1.05,86.41 -2.76,169.91 -4.26,243.58 l -0.05,2.12 c -2.35,121.28 -5.49,245.02 -9.35,367.91 L 4900,7368.4 4865.07,6383.32 c -3.86,-122.76 -7.01,-246.5 -9.35,-367.75 -1.52,-74.09 -3.24,-158.07 -4.31,-245.68 l -0.8,-55.68 c -1.03,-70.51 -2.1,-143.41 -2.57,-218.52 -0.14,-20.83 -0.32,-41.81 -0.52,-62.93 -4.28,20.57 -8.53,41.01 -12.71,61.3 -15.19,73.89 -30.51,145.48 -45.34,214.71 l -11.42,53.38 c -18.16,85.78 -36.21,167.73 -52.13,240 -25.95,118.44 -53.17,239.12 -80.92,358.82 l -226.08,957.26 157.59,-971 c 20.17,-121.17 41.21,-243.08 62.54,-362.32 l 0.24,-1.35 c 12.93,-72.73 27.58,-155.17 43.43,-240.32 l 9.91,-53.85 c 12.79,-69.6 26.02,-141.56 40.26,-215.59 3.9,-20.36 7.8,-40.88 11.71,-61.52 -8.26,19.43 -16.45,38.75 -24.56,57.93 -29.41,69.78 -58.52,137.25 -86.67,202.49 l -21.35,49.52 c -34.32,80.09 -68.1,157.14 -98,225.35 -49.13,112.4 -98,222.38 -149.44,336.32 l -408.71,895.51 344.22,-922.35 c 43.37,-114.8 87.82,-230.33 132.28,-343.84 26.97,-69.07 57.54,-147.37 89.84,-228.13 l 20.1,-50.56 c 26.18,-65.91 53.25,-134.07 81.73,-204.05 7.84,-19.31 15.71,-38.77 23.61,-58.36 -11.83,17.37 -23.58,34.62 -35.21,51.77 -42.33,62.5 -83.91,122.8 -124.12,181.12 l -30.92,44.85 c -49.9,72.74 -97.78,141.32 -140.01,201.79 -70.05,100.56 -139.39,198.84 -212.07,300.55 l -575.87,799.03 517.86,-837.95 c 66.05,-105.92 130.31,-207.59 196.43,-310.81 39.83,-62.35 85,-133.03 132.83,-206.56 l 30.34,-46.85 c 38.27,-59.12 77.84,-120.26 119.12,-182.88 11.39,-17.31 22.85,-34.77 34.36,-52.35 -15.07,14.8 -30.03,29.5 -44.86,44.13 -53.72,53.05 -106.27,104.09 -157.1,153.45 l -39.14,38.03 c -62.31,60.81 -122.97,119.03 -176.78,170.69 -87.43,84.11 -177.16,169.39 -266.77,253.53 l -720.59,671.2 671.28,-720.68 c 84.06,-89.52 169.34,-179.25 253.74,-266.98 51.37,-53.51 109.59,-114.17 170.36,-176.44 l 38.07,-39.18 c 49.36,-50.83 100.4,-103.38 153.44,-157.09 14.63,-14.83 29.34,-29.8 44.14,-44.87 -17.58,11.51 -35.03,22.96 -52.34,34.35 -62.63,41.29 -123.77,80.86 -182.89,119.13 l -46.81,30.31 c -72.79,47.36 -143.46,92.52 -206.57,132.85 -103.25,66.13 -204.92,130.39 -310.94,196.5 l -837.85,517.8 799.14,-575.95 c 101.73,-72.7 200.01,-142.04 300.41,-211.98 60.5,-42.24 129.07,-90.12 201.77,-139.99 l 45.31,-31.23 c 58.18,-40.12 118.35,-81.61 180.69,-123.83 17.16,-11.63 34.42,-23.39 51.79,-35.22 -19.59,7.9 -39.05,15.77 -58.34,23.61 -69.89,28.43 -137.93,55.46 -203.73,81.6 l -50.85,20.21 c -80.81,32.32 -159.11,62.89 -228.64,90.04 -113.05,44.28 -228.58,88.73 -343.49,132.15 l -922.24,344.17 895.62,-408.76 c 113.83,-51.39 223.81,-100.26 336.43,-149.48 67.98,-29.81 145.04,-63.59 225.07,-97.89 l 49.58,-21.37 c 65.24,-28.15 132.7,-57.26 202.47,-86.67 19.19,-8.1 38.51,-16.3 57.95,-24.56 -20.64,3.91 -41.15,7.8 -61.5,11.7 -74.05,14.25 -146.01,27.48 -215.61,40.27 l -53.8,9.9 c -85.2,15.86 -167.64,30.51 -240.37,43.44 l -1.31,0.24 c -119.28,21.33 -241.19,42.37 -362.48,62.56 l -970.88,157.57 957.37,-226.11 c 119.59,-27.72 240.27,-54.94 358.67,-80.88 72.31,-15.93 154.26,-33.98 239.99,-52.13 l 53.43,-11.43 c 69.23,-14.83 140.82,-30.15 214.7,-45.34 20.3,-4.18 40.74,-8.43 61.31,-12.71 -21.12,-0.2 -42.1,-0.38 -62.91,-0.52 -75.13,-0.47 -148.03,-1.54 -218.54,-2.57 l -55.63,-0.8 c -87.66,-1.07 -171.64,-2.79 -245.7,-4.31 -121.28,-2.34 -245.02,-5.49 -367.91,-9.35 L 2431.6,4900 l 985.07,-34.93 c 122.77,-3.86 246.51,-7 367.76,-9.35 l 2.15,-0.05 c 73.67,-1.5 157.17,-3.21 243.53,-4.26 l 53.6,-0.78 c 71.17,-1.03 144.76,-2.1 220.6,-2.58 20.84,-0.15 41.83,-0.33 62.97,-0.52 -20.59,-4.29 -41.03,-8.54 -61.33,-12.73 -73.47,-15.08 -144.68,-30.34 -213.53,-45.07 l -54.57,-11.68 c -84.63,-17.91 -166.26,-35.89 -238.28,-51.75 l -1.72,-0.38 c -119.52,-26.19 -236.86,-52.65 -358.83,-80.91 l -956.27,-225.85 970.02,157.35 c 121.1,20.16 243.02,41.2 362.32,62.53 l 1.54,0.28 c 72.67,12.92 155.04,27.56 240.13,43.4 l 53.63,9.87 c 69.66,12.81 141.7,26.04 215.81,40.3 20.36,3.91 40.88,7.8 61.52,11.71 -19.44,-8.25 -38.75,-16.46 -57.93,-24.55 -69.79,-29.43 -137.25,-58.53 -202.49,-86.68 l -49.52,-21.35 c -79.59,-34.11 -156.21,-67.7 -223.82,-97.34 l -1.53,-0.67 c -112.35,-49.11 -222.33,-97.97 -336.32,-149.43 l -896.51,-409.16 923.35,344.66 c 115.11,43.49 230.64,87.95 343.84,132.29 69.08,26.98 147.37,57.55 228.13,89.85 l 50.73,20.15 c 65.86,26.17 133.96,53.22 203.88,81.67 19.31,7.84 38.77,15.71 58.37,23.62 -17.37,-11.84 -34.63,-23.6 -51.79,-35.23 -62.19,-42.12 -122.22,-83.5 -180.27,-123.53 l -45.69,-31.5 c -72.33,-49.62 -141.12,-97.65 -201.79,-140.01 -100.39,-69.92 -198.67,-139.27 -300.55,-212.07 l -798.93,-575.89 837.85,517.87 c 103.8,64.73 208.38,130.82 310.81,196.43 62.15,39.72 132.6,84.73 206.56,132.84 l 46.11,29.87 c 59.36,38.41 120.73,78.14 183.62,119.59 17.31,11.39 34.77,22.85 52.35,34.36 -14.79,-15.07 -29.51,-30.03 -44.13,-44.86 -52.9,-53.58 -103.81,-105.99 -153.05,-156.68 l -38.43,-39.56 c -60.81,-62.32 -119.03,-122.97 -170.69,-176.78 -85.11,-88.47 -168.01,-175.7 -253.53,-266.77 l -671.79,-721.05 721.27,671.75 c 89.52,84.06 179.25,169.33 266.98,253.73 53.51,51.36 114.17,109.6 176.44,170.37 l 39.27,38.14 c 50.8,49.34 103.33,100.35 157,153.36 14.83,14.63 29.79,29.34 44.86,44.13 -11.51,-17.58 -22.96,-35.03 -34.34,-52.32 -41.38,-62.79 -81.04,-124.06 -119.38,-183.3 l -30.06,-46.42 c -47.49,-72.99 -92.77,-143.84 -132.85,-206.56 -66.12,-103.23 -130.38,-204.9 -196.5,-310.95 l -517.44,-837.26 575.59,798.56 c 71.42,99.94 142.74,201.03 211.98,300.41 42.44,60.8 90.55,129.72 139.99,201.78 l 31.07,45.08 c 40.17,58.25 81.71,118.49 123.99,180.91 11.63,17.16 23.38,34.42 35.22,51.79 -7.9,-19.59 -15.77,-39.05 -23.61,-58.34 -28.48,-70.01 -55.55,-138.16 -81.74,-204.08 l -20.07,-50.5 c -32.46,-81.19 -63.06,-159.55 -90.04,-228.65 -44.21,-112.85 -88.65,-228.37 -132.15,-343.48 l -344.17,-922.24 408.76,895.62 c 50.59,112.05 100.85,225.18 149.37,336.18 29.67,67.67 63.29,144.37 98,225.33 l 21.52,49.92 c 28.1,65.12 57.16,132.48 86.52,202.12 8.1,19.19 16.3,38.51 24.56,57.95 -3.91,-20.64 -7.8,-41.15 -11.7,-61.5 -14.25,-74.03 -27.48,-145.99 -40.26,-215.58 l -9.91,-53.83 c -15.86,-85.21 -30.51,-167.64 -43.44,-240.37 l -0.24,-1.31 c -21.34,-119.33 -42.38,-241.24 -62.56,-362.47 l -157.57,-970.89 226.11,957.37 c 27.77,119.79 54.98,240.47 80.88,358.67 15.93,72.31 33.98,154.26 52.13,239.99 l 11.43,53.43 c 14.83,69.23 30.15,140.82 45.34,214.7 4.16,20.21 8.39,40.56 12.66,61.04 0.2,-21.02 0.38,-41.91 0.51,-62.65 0.52,-80.79 1.67,-158.9 2.78,-234.44 l 0.58,-39.72 c 1.09,-87.96 2.73,-169.63 4.31,-245.69 2.36,-121.9 5.43,-242.2 9.39,-367.93 l 34.96,-980.17 34.95,980.3 c 3.97,125.21 7.03,245.53 9.4,367.75 1.59,76.44 3.23,158.37 4.31,245.68 l 0.55,37.67 c 1.12,76.2 2.28,155 2.8,236.54 0.14,20.66 0.32,41.47 0.52,62.42 4.25,-20.4 8.47,-40.67 12.61,-60.8 16.22,-78.92 32.54,-155.11 48.33,-228.78 l 8.41,-39.32 c 18.46,-87.11 36.6,-169.58 52.13,-240 26.17,-119.38 52.63,-236.72 80.95,-358.83 l 225.52,-954 -156.96,967.77 c -20.63,124.03 -41.08,242.55 -62.5,362.32 -12.59,71.01 -27.38,154.12 -43.68,241.67 l -6.93,37.72 c -13.72,74.71 -27.9,151.96 -43.24,231.74 -3.88,20.19 -7.75,40.53 -11.62,61 8.19,-19.28 16.32,-38.43 24.35,-57.46 31.51,-74.7 62.55,-146.65 92.58,-216.23 l 15.44,-35.79 c 35.01,-81.65 68.96,-159.15 98,-225.33 48.66,-111.34 97.54,-221.32 149.48,-336.32 l 407.52,-892.5 -342.98,919.37 c -44.1,116.78 -87.3,229.1 -132.06,343.35 -27.7,71.05 -57.48,147.23 -90.02,228.62 l -14.83,37.34 c -27.84,70.1 -56.63,142.58 -87.01,217.29 -7.79,19.14 -15.59,38.45 -23.43,57.88 11.74,-17.23 23.4,-34.34 34.93,-51.36 45.67,-67.42 90.35,-132.19 133.55,-194.85 l 21.47,-31.12 c 50.73,-73.92 98.89,-142.93 140.01,-201.79 69.91,-100.38 139.28,-198.65 212.11,-300.53 l 572.68,-794.37 -514.63,833.32 c -66.27,106.32 -130.52,208.01 -196.39,310.83 -38.72,60.66 -84.12,131.66 -132.82,206.55 l -21.86,33.76 c -40.95,63.27 -83.28,128.7 -127.62,195.98 -11.31,17.17 -22.65,34.47 -34.07,51.9 14.94,-14.67 29.79,-29.25 44.48,-43.75 57.85,-57.11 114.21,-111.84 168.72,-164.78 l 27.51,-26.71 c 62.52,-60.99 121.63,-117.78 176.78,-170.69 88,-84.65 175.24,-167.55 266.81,-253.5 l 716.97,-667.55 -667.63,717.07 c -85.87,91.47 -168.77,178.71 -253.39,266.68 -50.34,52.47 -109.18,113.73 -170.68,176.77 l -26.75,27.55 c -52.94,54.51 -107.67,110.87 -164.77,168.72 -14.51,14.7 -29.1,29.54 -43.77,44.49 17.43,-11.42 34.73,-22.77 51.9,-34.07 67.29,-44.35 132.72,-86.68 195.99,-127.63 l 33.71,-21.82 c 74.42,-48.42 145.66,-93.96 206.56,-132.84 102.91,-65.92 204.6,-130.17 310.98,-196.49 l 833.21,-514.72 -794.47,572.92 c -100.07,71.54 -201.14,142.88 -300.39,212.01 -58.9,41.15 -127.91,89.31 -201.78,140 l -31.17,21.51 c -62.66,43.2 -127.43,87.88 -194.84,133.55 -17.03,11.53 -34.14,23.19 -51.37,34.93 19.43,-7.84 38.73,-15.64 57.88,-23.43 74.71,-30.38 147.19,-59.17 217.29,-87.01 l 37.29,-14.8 c 80.56,-32.22 157.14,-62.15 228.63,-90.04 113.84,-44.6 226.16,-87.8 343.5,-132.11 l 919.26,-342.94 -892.62,407.58 c -114.88,51.88 -224.86,100.76 -336.15,149.4 -66.23,29.06 -143.73,63.01 -225.34,98 l -35.83,15.46 c -69.58,30.03 -141.53,61.07 -216.23,92.58 -19.03,8.03 -38.18,16.16 -57.46,24.35 20.47,-3.87 40.81,-7.74 60.99,-11.62 79.79,-15.34 157.04,-29.52 231.75,-43.24"
         style="fill:#393536;fill-opacity:1;fill-rule:nonzero;stroke:none"
         id="path18"
         inkscape:connector-curvature="0" /><path
         d="m 3221.64,6571.15 -47.35,-47.69 -167.76,166.54 47.35,47.69 c 13.56,13.66 28.62,20.45 45.15,20.38 16.53,-0.08 31.64,-6.91 45.31,-20.47 l 76.55,-76 c 12.55,-12.46 18.93,-27.51 19.13,-45.16 0.21,-17.65 -5.92,-32.74 -18.38,-45.29 z m 76.15,-79.76 c 34.06,34.31 50.78,75.7 50.19,124.19 -0.59,48.48 -18.18,89.9 -52.76,124.23 l -76.14,75.59 c -35.97,35.72 -76.06,54.46 -120.25,56.25 -46.97,1.22 -89.56,-17.41 -127.77,-55.9 l -123.76,-124.66 524.18,-520.39 78.5,79.07 -197.46,196.03 45.27,45.59"
         style="fill:#ffffff;fill-opacity:1;fill-rule:nonzero;stroke:none"
         id="path20"
         inkscape:connector-curvature="0" /><path
         d="m 3317.49,7111.45 417.84,-609.08 91.87,63.03 -417.84,609.08 -91.87,-63.03"
         style="fill:#ffffff;fill-opacity:1;fill-rule:nonzero;stroke:none"
         id="path22"
         inkscape:connector-curvature="0" /><path
         d="m 4004.83,7473.87 -109.52,-45.97 -23.56,-295.67 -101.99,242.96 -102.73,-43.13 286.14,-681.59 102.72,43.12 -90.7,216.06 5.27,73.58 224.04,-231.45 120.75,50.7 -334.32,334.35 23.9,337.04"
         style="fill:#ffffff;fill-opacity:1;fill-rule:nonzero;stroke:none"
         id="path24"
         inkscape:connector-curvature="0" /><path
         d="m 4541.41,6961.91 -29.83,199.39 148.67,22.23 -16.57,110.78 -148.67,-22.24 -29.82,199.38 203.47,30.44 -16.58,110.77 -313.65,-46.92 109.36,-731.08 313.66,46.91 -16.58,110.77 -203.46,-30.43"
         style="fill:#ffffff;fill-opacity:1;fill-rule:nonzero;stroke:none"
         id="path26"
         inkscape:connector-curvature="0" /><path
         d="m 5035.82,6881.76 110.22,-16.34 45.96,310.23 148.69,-22.03 16.42,110.79 -148.69,22.03 29.54,199.43 203.51,-30.15 16.42,110.79 -313.72,46.48 -108.35,-731.23"
         style="fill:#ffffff;fill-opacity:1;fill-rule:nonzero;stroke:none"
         id="path28"
         inkscape:connector-curvature="0" /><path
         d="m 5711.08,7495.98 -234.61,-700.38 105.65,-35.39 234.61,700.39 -105.65,35.38"
         style="fill:#ffffff;fill-opacity:1;fill-rule:nonzero;stroke:none"
         id="path30"
         inkscape:connector-curvature="0" /><path
         d="m 6155.05,6797.07 c 0.27,30.61 -4.7,64.68 -14.93,102.22 -2.88,11.59 -10.23,33.21 -22.02,64.85 -10.15,26.61 -16.68,48.45 -19.6,65.51 -7.91,44.79 -3.48,81.86 13.29,111.21 10.71,18.76 23.43,32.32 38.16,40.66 18.18,10.43 36.13,10.58 53.89,0.44 16.71,-9.54 26.48,-22.15 29.32,-37.79 3.9,-21.69 -0.29,-46.46 -12.56,-74.29 l 102.29,-36.03 c 13.58,29.34 20.65,58.13 21.15,86.35 0.51,28.22 -5.38,53.76 -17.66,76.63 -15.8,29.39 -40.93,53.93 -75.39,73.61 -35.83,20.47 -71.04,28.57 -105.61,24.31 -56.41,-7.64 -101.3,-40.66 -134.66,-99.06 -18.53,-32.45 -28.53,-66.6 -30.01,-102.45 -0.74,-32.2 6.05,-73 20.37,-122.41 17.53,-58.03 30.69,-101.56 39.47,-130.57 9.2,-40.14 6.19,-73.53 -9.03,-100.17 -10.53,-18.45 -21.88,-30.76 -34.01,-36.97 -24.14,-12.93 -46.98,-13.71 -68.53,-2.3 -15.42,7.89 -25.29,21.5 -29.63,40.82 -6.11,25.77 -0.52,58.52 16.74,98.24 l -95.93,45.98 c -17.45,-35.29 -27.67,-69.62 -30.66,-102.99 -3.01,-33.36 1.53,-63.67 13.58,-90.92 14.18,-33 40.22,-60.31 78.09,-81.95 20.48,-11.69 39.76,-19.54 57.84,-23.54 33.73,-7.5 64.58,-4.98 92.57,7.55 42,18.09 75.44,49.68 100.3,94.77 9.99,18.28 16.91,41.48 20.76,69.61 1.5,11.36 2.31,24.25 2.41,38.68"
         style="fill:#ffffff;fill-opacity:1;fill-rule:nonzero;stroke:none"
         id="path32"
         inkscape:connector-curvature="0" /><path
         d="m 6840.89,6804.84 -218.35,-225.12 -96.48,93.58 218.34,225.11 -79.97,77.57 -514.25,-530.2 79.98,-77.57 217.93,224.69 96.47,-93.57 -217.93,-224.7 79.98,-77.57 514.25,530.21 -79.97,77.57"
         style="fill:#ffffff;fill-opacity:1;fill-rule:nonzero;stroke:none"
         id="path34"
         inkscape:connector-curvature="0" /><path
         d="m 2974.64,4049.97 105.85,36.61 -113.68,328.69 -105.85,-36.61 38.73,-111.97 -592.21,-204.82 36.41,-105.29 592.21,204.82 38.54,-111.43"
         style="fill:#ffffff;fill-opacity:1;fill-rule:nonzero;stroke:none"
         id="path36"
         inkscape:connector-curvature="0" /><path
         d="m 3171.93,3697.44 c -3.41,-17.17 -12.46,-30.67 -27.16,-40.5 l -336.2,-224.73 c -14.7,-9.84 -30.64,-13.04 -47.8,-9.63 -17.18,3.41 -30.68,12.47 -40.5,27.17 -9.83,14.7 -13.1,30.72 -9.79,48.05 3.29,17.35 12.3,30.92 27.01,40.74 l 336.18,224.75 c 14.7,9.83 30.69,12.96 47.98,9.38 17.28,-3.58 30.83,-12.72 40.66,-27.42 9.83,-14.7 13.04,-30.64 9.62,-47.81 z m 110.64,-26.01 c 9.63,47.8 0.81,92.12 -26.49,132.96 -26.86,40.19 -64.2,65.1 -112.01,74.74 -47.81,9.64 -92.13,0.81 -132.97,-26.49 l -335.2,-224.09 c -40.52,-27.08 -65.65,-64.45 -75.4,-112.09 -9.75,-47.64 -0.97,-91.87 26.33,-132.72 27.08,-40.51 64.52,-65.59 112.34,-75.22 47.8,-9.64 92.12,-0.83 132.96,26.48 l 335.21,224.09 c 40.51,27.08 65.58,64.52 75.23,112.34"
         style="fill:#ffffff;fill-opacity:1;fill-rule:nonzero;stroke:none"
         id="path38"
         inkscape:connector-curvature="0" /><path
         d="m 3640.86,3364.58 -374.95,-429.37 c -11.63,-13.32 -26.18,-20.56 -43.65,-21.74 -17.47,-1.19 -32.86,4.04 -46.18,15.67 -13.32,11.63 -20.65,26.25 -21.97,43.84 -1.34,17.61 3.82,33.05 15.45,46.37 l 374.95,429.37 -82.14,71.73 -375.73,-430.25 c -32.06,-36.7 -46.44,-79.18 -43.18,-127.42 3.26,-48.24 23.39,-88.51 60.39,-120.83 36.71,-32.05 79.2,-46.73 127.48,-44.02 48.27,2.71 88.7,22.71 121.28,60.01 l 375.72,430.25 -87.47,76.39"
         style="fill:#ffffff;fill-opacity:1;fill-rule:nonzero;stroke:none"
         id="path40"
         inkscape:connector-curvature="0" /><path
         d="m 4015.03,2925.1 -46.71,-97.24 c -7.66,-15.94 -19.79,-26.9 -36.39,-32.88 -16.61,-5.98 -32.88,-5.13 -48.82,2.53 l -60.58,29.09 102.35,213.08 60.58,-29.09 c 38.26,-18.38 48.11,-46.88 29.57,-85.49 z m 17.04,189.31 -158.35,76.07 -319.81,-665.81 100.43,-48.24 120.47,250.81 57.92,-27.83 c 3.18,-1.53 6.19,-2.97 9.03,-4.33 l -59.58,-280.06 108.61,-52.17 65.23,326.4 c 51.43,15.4 88.46,46.66 111.09,93.78 l 46.45,96.71 c 23.14,48.16 29.67,91.25 19.57,129.23 -11.41,43.41 -45.1,78.56 -101.06,105.44"
         style="fill:#ffffff;fill-opacity:1;fill-rule:nonzero;stroke:none"
         id="path42"
         inkscape:connector-curvature="0" /><path
         d="m 4556.63,2441.3 -61.68,514.65 -123.28,21.16 -125.05,-728.57 109.81,-18.84 80.07,466.53 70.98,-492.46 117.94,-20.25 125.06,728.57 -109.81,18.85 -84.04,-489.64"
         style="fill:#ffffff;fill-opacity:1;fill-rule:nonzero;stroke:none"
         id="path44"
         inkscape:connector-curvature="0" /><path
         d="m 5126.23,2464.88 9.63,293.96 72.41,-285.06 -82.04,-8.9 z m -84.2,453.96 -45.21,-747.86 115.33,12.51 8.61,171.69 115.65,12.54 44.21,-165.97 116.46,12.62 -202.69,720.99 -152.36,-16.52"
         style="fill:#ffffff;fill-opacity:1;fill-rule:nonzero;stroke:none"
         id="path46"
         inkscape:connector-curvature="0" /><path
         d="m 5803.09,3129.55 125.34,-525.56 -311.19,442.64 -146.01,-65.14 301.19,-675.07 101.75,45.39 -188.79,423.13 287.32,-379.18 81.82,36.51 -100.98,463.6 189.26,-424.21 101.75,45.39 -301.19,675.08 -140.27,-62.58"
         style="fill:#ffffff;fill-opacity:1;fill-rule:nonzero;stroke:none"
         id="path48"
         inkscape:connector-curvature="0" /><path
         d="m 6572.11,2893.59 -131.91,152.46 113.67,98.36 -73.28,84.7 -113.68,-98.36 -131.91,152.46 155.58,134.61 -73.29,84.7 -239.83,-207.51 483.68,-559.01 239.84,207.52 -73.29,84.69 -155.58,-134.62"
         style="fill:#ffffff;fill-opacity:1;fill-rule:nonzero;stroke:none"
         id="path50"
         inkscape:connector-curvature="0" /><path
         d="m 6580.81,3841.92 408.98,-282.03 -492.91,160.32 -71.02,-102.96 608.54,-419.67 63.26,91.72 -389.68,268.73 476.69,-142.56 67.94,98.51 -608.55,419.66 -63.25,-91.72"
         style="fill:#ffffff;fill-opacity:1;fill-rule:nonzero;stroke:none"
         id="path52"
         inkscape:connector-curvature="0" /><path
         d="m 6899.12,4262.86 38.78,111.34 -105.77,36.84 -114.41,-328.44 105.78,-36.85 38.97,111.9 591.76,-206.13 36.64,105.22 -591.75,206.12"
         style="fill:#ffffff;fill-opacity:1;fill-rule:nonzero;stroke:none"
         id="path54"
         inkscape:connector-curvature="0" /><path
         d="m 5200.43,4676.99 c 15.43,-3.84 29.74,-6.02 42.99,-6.02 19.66,0 47.27,4.02 86.64,35.36 5.11,4.06 10.64,8.37 16.45,12.89 24.14,18.79 63.46,49.4 78.31,71.76 -1.88,6.45 -8.97,22.4 -35.44,54.29 l -0.06,0.08 c -1.33,-0.52 -2.72,-1.08 -4.19,-1.67 -42.28,-17.05 -56.23,-38.89 -84.04,-82.39 -7.03,-10.98 -13.83,-21.61 -21.47,-32.83 -25.69,-37.79 -57.33,-48.82 -79.19,-51.47 z M 4565.04,3396.8 c -67.2,0 -126.14,18.01 -175.19,53.56 -115.78,83.92 -80.16,193.88 -56.58,266.64 8.63,26.62 17.55,54.15 18.27,75.72 0.36,11.22 -1.11,25.21 -2.68,40.01 -3.36,31.93 -8.53,80.93 11.67,123.69 -86.89,12.99 -168.56,19.37 -247.4,19.37 -53.19,0 -104.9,-2.79 -158.09,-8.53 -20.51,-2.21 -40.75,-4.66 -60.33,-7.03 -57.42,-6.95 -116.81,-14.14 -177.13,-14.14 -65.04,0 -124.74,8.48 -182.51,25.92 -76.36,23.06 -146.96,54.03 -209.84,92.07 -25.68,15.52 -38.65,45.68 -32.24,75.02 6.4,29.31 30.73,51.32 60.55,54.75 88.82,10.2 190.87,24.24 278,61.86 8.83,3.82 18.98,7.94 29.72,12.29 28.6,11.58 78.68,31.87 101.89,49.6 -8.91,39.56 -29.77,75.5 -53.81,116.93 -7.25,12.49 -14.28,24.64 -21.02,36.87 -32.71,59.37 -51.63,124.33 -65.81,180.04 -19.95,78.37 -34.97,162 -44.64,248.53 -2.57,22.9 6.28,45.61 23.67,60.74 12.75,11.11 29.12,17.23 46.08,17.23 5.81,0 11.62,-0.72 17.26,-2.15 149.25,-38.09 276.92,-93.74 379.55,-165.43 76.6,-53.5 145,-116.13 211.15,-176.71 43.35,-39.68 87.81,-80.38 132.84,-116.82 43.28,-35.04 99.17,-75.25 147.53,-75.25 23.53,0 45.87,9.64 68.29,29.46 16.97,15.02 30.77,35.91 46.75,60.11 16.8,25.42 35.77,54.13 61.81,79.65 47.41,46.43 101.8,85.7 148.76,118 3.44,2.37 6.63,4.69 9.66,6.87 19.3,13.98 45.6,33.01 85.23,33.01 3.26,0 6.63,-0.13 10.08,-0.41 37.82,-2.99 74.09,-23.01 106.08,-40.67 12.14,-6.71 24.54,-13.57 32.53,-16.81 1.61,-0.65 3.2,-1.3 4.79,-1.94 -76.26,65.83 -119.7,210.69 -123.48,233.22 -13.59,80.91 0.31,174.1 42.47,283.86 -33.02,24.49 -55.57,55.29 -76.13,83.38 -7.59,10.38 -15.42,21.08 -23.43,30.88 -27.81,33.97 -72.54,62.65 -115.8,90.38 -6.4,4.11 -12.71,8.15 -18.91,12.17 -84.22,54.66 -174.33,104.28 -261.48,152.26 -42.09,23.18 -85.16,46.9 -127.43,71.07 -135.67,77.57 -222.7,241.49 -276.36,358.05 -1.79,3.91 -3.89,8.06 -6.04,12.34 -15.47,30.85 -38.7,77.16 -17.43,124.05 12.14,26.75 36.14,45.98 67.59,54.15 12.26,3.19 25.66,4.81 39.79,4.81 8.69,0 17.52,-0.62 26.37,-1.71 -6.41,31.85 -6.39,65.36 6.83,97.16 13.72,32.97 51.68,88.28 151.83,88.28 66.7,0 136.07,-23.93 169.41,-35.44 65.67,-22.65 135.83,-44.75 227.5,-71.65 12.13,-3.56 24.56,-7.65 36.57,-11.62 30.56,-10.11 62,-20.5 87.31,-20.5 3.49,0 6.83,0.2 9.94,0.59 11.23,1.42 21.82,2.95 31.97,4.41 28.85,4.17 55.93,8.08 84.56,8.08 42.54,0 81.29,-8.92 121.95,-28.09 52.67,-24.81 110.16,-45.74 165.74,-65.99 l 24.2,-8.83 c 93.72,-34.32 170.74,-66.95 242.43,-102.72 175.19,-87.44 337.39,-203.75 495.86,-355.58 114.48,-109.68 241.61,-247.63 316.56,-439.13 94.32,-241.01 120.42,-501.16 73.52,-732.56 -35.38,-174.51 -126.89,-345.56 -279.77,-522.94 -42.74,-49.59 -86.53,-95.21 -130.13,-135.6 -11.98,-11.08 -18.02,-24.78 -28.52,-50.03 -7.36,-17.7 -15.69,-37.74 -28.5,-59.03 -60.93,-101.25 -166.17,-192.23 -288.71,-249.64 -9.23,-4.32 -19.54,-6.62 -29.77,-6.62 -13.75,0 -27.08,3.99 -38.56,11.54 -20.55,13.56 -32.34,36.27 -31.59,60.8 0.32,9.86 -8.48,19.39 -30.16,40.4 -8.64,8.36 -18.33,17.75 -27.59,28.23 -20.95,23.7 -36.8,51.87 -46.67,82.39 -88.55,-21.34 -175.32,-24.17 -236.82,-24.17 -6.2,0 -12.31,0.03 -18.3,0.08 -35.79,0.33 -72.19,1.97 -108.24,4.88 -3.31,-0.03 -6.63,-0.04 -9.94,-0.04 -4.52,0 -9.03,0.02 -13.52,0.08 -3.85,-5.11 -7.5,-10.15 -9.74,-13.26 -8.83,-12.18 -16.37,-22.6 -24.83,-31.43 -56.22,-58.64 -115.38,-109.47 -175.84,-151.05 -76.55,-52.66 -165.7,-94.72 -244.59,-115.41 -41.93,-10.99 -81.97,-16.55 -119.01,-16.55"
         style="fill:#ffffff;fill-opacity:1;fill-rule:nonzero;stroke:none"
         id="path56"
         inkscape:connector-curvature="0" /><path
         d="m 5042.88,5727.19 c 26.96,-52.82 71.63,-92.38 132.12,-96.85 86.01,-6.36 165.85,68.3 149.97,157.07 -10.9,-155.39 -197.2,-155.12 -251.22,-31.46 -26.61,60.92 -26.32,129.5 -45.43,192.54 -25.13,82.89 -84.7,155.9 -166.62,187.66 67.28,-48.04 114.49,-115.66 133.2,-196.34 16.48,-71.05 14.09,-146.24 47.98,-212.62"
         style="fill:#393536;fill-opacity:1;fill-rule:nonzero;stroke:none"
         id="path58"
         inkscape:connector-curvature="0" /><path
         d="m 5893.41,5110.12 c -150.44,44.14 -342.59,58.71 -436.47,201.52 68.98,0.33 137.8,32.78 179.53,88.09 -59.08,-59.85 -135.8,-75.11 -216.43,-64.2 36.4,-77.21 95.64,-130.27 166.17,-167.93 74.08,-68.61 163.51,-117.49 261.5,-142.31 -68.43,24.6 -131.05,61.5 -185.46,108.67 11.26,-4.11 22.67,-7.97 34.21,-11.58 1.21,-0.37 2.46,-0.74 3.67,-1.11 81.72,-61.32 209.14,-68.98 259.36,-167.38 -29.65,75.21 -104.27,105.68 -171.65,143.31 21.27,-5.49 42.89,-11.06 64.51,-17.04 66.99,-28.93 127.97,-70.27 179.74,-121.99 -27.79,35.31 -59.5,67.11 -94.34,95.03 74.68,-27.59 142.41,-66.46 185.44,-132.33 -146.47,44.06 -361.03,-33.32 -447.2,121.11 35.7,-91.3 140.21,-116.33 227.22,-123.89 113.92,-9.9 200.1,-16.45 296.87,-80.77 -8.17,21.76 -17.34,42.02 -27.46,60.96 l 0.63,0.51 -1.31,0.77 c -58.96,109.42 -151.02,173.14 -278.53,210.56"
         style="fill:#393536;fill-opacity:1;fill-rule:nonzero;stroke:none"
         id="path60"
         inkscape:connector-curvature="0" /><path
         d="m 5490.28,3965.47 c 9.71,8.33 19.61,16.43 29.88,24.05 -31.34,-11.09 -61.59,-25.1 -90.41,-41.66 -6.59,-1.41 -13.21,-2.66 -19.85,-3.78 35.41,33.54 77.01,60.17 122.54,78.26 -61.82,-13.91 -119.35,-42.85 -167.91,-83.41 -9.14,-0.58 -18.3,-0.93 -27.49,-0.93 97.26,90.11 259.63,104.33 319.08,234.27 -72.71,-134.17 -255.12,-131.46 -357.99,-232.51 -6.05,0.55 -12.1,1.24 -18.14,2.05 24.63,34.2 55.51,63.56 90.96,86.52 -46.12,-18.04 -88.41,-45.53 -123.16,-80.88 -4.96,1.05 -9.92,2.19 -14.86,3.43 57.18,116.3 232.05,103.98 324.26,181.09 -106.14,-76.3 -283.86,-45.69 -352.98,-172.87 -5.69,1.86 -11.36,3.87 -17.01,5.97 69.54,91.14 161.31,137.46 269.78,171.75 85.99,27.19 223.21,86.13 200.99,202.88 -0.26,1.71 -0.69,4.04 -1.42,7.04 8.22,-125.1 -133.14,-161.06 -225.03,-185.01 -130.64,-34.06 -230.85,-99.8 -305.94,-215.02 216.75,-89.42 476.88,-35.81 586.22,189.83 -55.76,-80.09 -134.06,-139.02 -221.52,-171.07"
         style="fill:#393536;fill-opacity:1;fill-rule:nonzero;stroke:none"
         id="path62"
         inkscape:connector-curvature="0" /><path
         d="m 5585.73,5610.1 c -40.51,13.64 -122.82,-21.68 -145.83,30.27 -26.97,-30.02 -17.04,-78.57 17.78,-96.97 33.54,-17.73 71.69,-0.71 106.28,-19.65 33.72,-18.47 57.86,-45.62 97.62,-19.72 19.85,12.93 41.68,48.94 47.38,71.05 -40.13,-35.1 -87.69,23.06 -123.23,35.02"
         style="fill:#393536;fill-opacity:1;fill-rule:nonzero;stroke:none"
         id="path64"
         inkscape:connector-curvature="0" /><path
         d="m 5762.95,4712.17 c -28.3,67.34 -67.48,130.28 -116.28,185.92 -113.8,129.75 -280.06,201.87 -378.52,346.51 53.2,-130.65 173.35,-209.78 276.11,-301.41 23.21,-57.8 27.3,-126.51 55.45,-180.84 22.45,-43.32 49.16,-78.36 60.52,-126.86 11.76,-50.21 10.73,-102.36 9.55,-153.57 44.63,114.04 35.22,241.33 -18.74,347.23 49.92,-65.77 88.11,-138.15 116.08,-214.81 -13.46,-92.6 -44.97,-197.04 6.3,-280.79 -7.87,-56.96 -19.86,-114.64 -36,-173.63 131.6,215.99 124.38,507.34 -18.07,716.42 18.51,-55.53 32.99,-110.09 43.6,-164.17"
         style="fill:#393536;fill-opacity:1;fill-rule:nonzero;stroke:none"
         id="path66"
         inkscape:connector-curvature="0" /><path
         d="m 6397.28,4562.12 c -13.42,-66.2 -36.03,-132.18 -68.09,-198.57 13.62,57.89 20.22,117.91 20.52,178.04 -3.23,-9.13 -7.56,-17.75 -13.01,-25.51 -13.59,44.4 -16.06,99.12 -6.94,144.63 14.35,-16.39 22.95,-37.77 25.85,-60.09 6.15,22.78 11.28,45.84 15.58,68.92 -16.47,55.21 -22.46,119.2 -16.32,175.26 14.71,-21.12 24.9,-46.69 30.36,-73.55 0.69,7.41 1.35,14.8 1.91,22.12 11.29,148.29 -7.66,298.67 -54.85,439.64 84.66,-221.95 107.79,-459.73 64.99,-670.89 z m -88.67,499.49 c -21.82,-2.57 -17.86,32.29 -4.81,40.86 14.63,-5.28 26.9,-38.26 4.81,-40.86 z m -11.63,-201.84 c -24.63,-4.64 -20.6,48.44 -11.25,59.78 12.81,-7.24 36.3,-55.07 11.25,-59.78 z m -19.62,-346.23 c -19.63,25.36 -20.26,63.66 0,88.95 19.52,-25.39 20.36,-63.69 0,-88.95 z m -13.67,-215.92 c -14.18,24.16 -6.07,54.93 17.68,69.5 14.07,-24.17 6.16,-54.99 -17.68,-69.5 z m -459.97,987.32 c -34.79,-7.82 -73.58,12.99 -86.04,46.49 33.47,0.55 68.6,-17.58 86.04,-46.49 z m -252.15,-817.37 c 0.13,-10.57 0.05,-21.14 -0.21,-31.7 -10.14,-19.88 -23.98,-37.96 -40.63,-52.87 2.96,18.31 5.38,36.71 7.14,55.18 13.48,7.2 25.47,16.7 33.7,29.39 z m -31.41,100.65 c 7.1,18.39 12.32,37.49 15.51,56.99 5.24,-27.79 9.22,-55.79 11.9,-83.87 -8.08,-16.63 -16.84,-32.92 -26.35,-48.77 0.77,25.22 0.43,50.46 -1.06,75.65 z m 720.74,179.46 c -37.62,49.44 -91.35,86.9 -150.77,105.04 55.44,-87.76 91.73,-187.29 107.26,-289.92 -0.32,-81.99 -12.8,-162.56 -31.6,-242.56 2.46,59.78 -0.21,119.88 -4.75,177.99 -8.72,111.56 -31.79,223.45 -95.38,317.37 47.22,-100.27 61.68,-208.88 64.17,-318.9 3.06,-135.72 1.84,-281.32 -52.2,-408.14 -74.84,-175.63 -262.09,-267.72 -447.05,-209.22 115.58,40.43 224.64,100.12 292.52,199.93 -135.2,-136.89 -339.55,-180.68 -520.92,-219.73 -186.35,-40.13 -383.34,-51.84 -558.93,34.21 26.68,-19.68 54.82,-35.93 84.02,-49.23 -26.8,8.31 -53.3,18.22 -79.4,30.11 -105.16,47.9 -198.02,117.78 -305.92,160.58 -93.46,37.06 -193.24,59.63 -293.82,63.58 83.03,-17.06 164.33,-40.91 242.3,-73.66 -41.85,8.49 -82.44,15.64 -122.01,21.47 -61.04,29.73 -128.77,41.39 -186.18,81.23 1.07,-6.37 2.74,-12.37 4.84,-18.08 -17.11,0.83 -35.64,-0.15 -45.04,0.1 -69.08,1.85 -138.14,-9.33 -203.11,-32.91 89.26,21.86 182.6,20.76 271.27,-3.22 4.05,-4.09 8.46,-7.86 13.13,-11.36 -37.25,2.53 -73.87,3.8 -110.1,3.8 -56.53,0 -112.16,-3.05 -167.88,-9.06 -20.99,-2.26 -41.58,-4.76 -61.49,-7.17 -112.71,-13.64 -210.06,-25.42 -322.67,8.58 -47.94,14.47 -93.24,32.32 -135.33,53.29 28.19,3.87 57.1,8.49 86.15,14.32 9.37,-2.95 20.76,-4.34 26.91,-5.96 47.33,-12.42 95.78,-19.84 144.65,-22.29 97.99,-4.91 195.45,10.93 287.2,45.35 -130.05,-40.21 -270.06,-41.29 -400.31,-3.54 16.75,4.46 33.41,9.43 49.89,15.04 6.96,-2.05 14.21,-3.24 18.1,-4.48 35.44,-11.26 75.89,-11.65 112.53,-6.44 -32.56,2.64 -64.5,10.99 -94.1,24.6 3.51,1.44 7.02,2.86 10.49,4.37 8.1,3.49 17.67,7.37 27.81,11.48 l 1.7,0.69 c 5.8,-0.76 11.37,-1.09 14.56,-1.79 38.95,-8.54 80.78,-10.54 120.53,-11.7 78.22,-2.29 156,6.12 232.17,23.88 -106.98,-16.05 -214.67,-12.68 -319.92,9.48 13.53,6.03 26.96,12.47 39.62,19.41 8.34,-1.52 18.43,-1.89 23.17,-2.52 38.11,-5.04 76.67,-2.18 113.77,7.77 -35.92,-2.2 -72.04,2.65 -106.01,14.17 9.87,7.21 18.62,14.87 25.61,23.09 l 1.13,1.37 c 42.24,-12.62 132.74,1.63 157.84,6.05 -48.25,-0.02 -96.63,7.15 -142.79,21.29 1.46,8.67 -0.21,17.98 -3.13,31.98 l -1.05,5.02 c -6.38,30.95 -17.72,59.26 -31.08,86.15 41.31,-8.28 82.11,-18.93 122.17,-31.99 -44.76,24.26 -91.14,45.43 -138.8,63.3 -5.66,10.12 -11.44,20.11 -17.19,30.01 -6.66,11.47 -13.54,23.34 -20.02,35.09 -5.35,9.71 -10.17,19.75 -14.76,29.91 12.88,-3.19 26.65,-5.69 33.64,-8.22 53.33,-19.35 104.29,-44.73 152.07,-75.3 -60.49,50.84 -128.59,92.03 -201.47,122.51 -11.05,30.6 -19.64,61.47 -26.86,89.82 -0.45,1.76 -0.86,3.55 -1.3,5.31 7.89,-2.76 15.01,-4.76 17.05,-5.62 36.56,-15.39 71.97,-33.17 106.21,-53.21 73.09,-42.8 139.21,-95.87 197.95,-156.79 -89.37,107.42 -200.76,192.75 -327.36,251.8 -0.93,0.44 -1.83,0.79 -2.7,1.07 -5.05,22.41 -9.68,45.23 -13.9,68.4 10.5,-3.42 20.21,-5.86 22.13,-6.6 48.66,-18.81 96.04,-40.73 141.92,-65.59 87.14,-47.22 168.15,-105 241.67,-171.42 -117.29,119.55 -257.56,214.4 -411.86,279.38 -0.83,5.15 -1.63,10.3 -2.42,15.47 11.01,-0.92 21.97,-1.48 27.64,-2.82 51.37,-12.14 99.68,-34.25 142.9,-64.47 -49.73,46.34 -109.86,79.65 -174.98,98.24 -0.61,4.58 -1.26,9.15 -1.85,13.75 126.27,-34.94 234.31,-83.43 321.51,-144.33 71.61,-50.02 137.83,-110.65 201.87,-169.28 39.54,-36.2 80.29,-73.49 122.38,-108.4 -19.41,1.97 -38.02,0.13 -55.47,-4.83 -8.39,10.31 -26.45,20.62 -31.98,25 -39.66,31.46 -81.24,60.39 -124.55,86.58 44.94,-38.2 87.09,-79.61 125.94,-123.98 -11.99,-6.42 -23.18,-14.35 -33.42,-23.48 -14.81,18.17 -47.81,35.52 -64.46,48.06 -54.08,40.72 -110.49,78.25 -168.86,112.54 75.4,-55.29 146.23,-116.61 211.91,-183.13 -6.93,-8.58 -13.17,-17.76 -18.63,-27.4 -8.38,4.35 -17.35,7.75 -21.31,9.87 -40.87,21.86 -82.78,41.71 -125.62,59.41 46.52,-29.6 91.25,-61.91 133.97,-96.77 -2.82,-7.35 -5.2,-14.85 -7.12,-22.44 -1.47,0.21 -2.89,0.53 -4.21,1.06 -37.48,14.94 -89.64,11.37 -130.33,21.24 41.99,-19.65 85.33,-36.06 129.72,-49.35 -0.56,-5.4 -0.88,-10.82 -0.95,-16.22 -3.57,-0.86 -7.32,-2.3 -11.54,-2.17 -29.85,0.95 -63.79,-13.47 -95.03,-14.64 35.55,-8.92 72.16,-12.93 108.78,-12.37 0.9,-5.38 2.11,-10.72 3.58,-15.99 -12.68,-4.08 -29.25,-15.55 -38.64,-19.75 16.37,-2.45 32.74,-4.9 49.1,-7.35 8.94,-17.71 21.72,-34.18 38.91,-48.44 -43.26,102 -12.26,205.67 68.22,262.32 24.52,4.7 51.71,2.63 78.52,-3.05 -27.56,-1.49 -54.02,-7.99 -76.33,-20.97 9.33,-6.67 17.38,-17.88 17.86,-25.45 -9.15,-4.9 -31.81,-1.49 -41.15,7.95 -14.96,-14.52 -26.52,-33.59 -32.98,-58.13 -10.27,-39.02 -6.08,-129.04 29.55,-156.25 35.36,-27.02 114.13,-14.89 158.53,-19.89 0.42,-7.99 2.42,-15.68 6.02,-20.95 17.27,-25.31 69.5,-27.43 95.49,-35.18 79.89,-23.83 152.06,-66.57 223.18,-109.06 34.33,-20.5 131.53,-79.46 164.36,-35.94 54.02,-22.72 110.52,-31.03 167.38,-0.15 93.79,50.95 134.93,163.02 229.88,216.87 50.29,28.52 99.33,33.69 153.68,47.34 20.03,5.03 23.71,-1.91 36.81,12.79 6.24,7.01 9.61,25.84 12.59,34.73 10.41,31.11 18.98,62.94 25.65,95.06 0.2,0.98 0.38,1.97 0.58,2.96 17.37,7.13 32.38,19.59 43.94,35.14 -4.46,-51.55 -13.71,-102.72 -28.24,-152.85 62.4,135.22 70.45,291.45 43.14,436.39 -13.05,69.3 -31.67,145.7 -69.66,206.08 -41.89,66.59 -101.57,103.5 -161.76,150.07 -70.69,54.7 -64.67,152.91 -124.41,215.43 -2.02,2.12 -4.17,4.13 -6.39,6.09 -0.41,0.95 -0.76,1.91 -1.19,2.86 l -1.63,-0.51 c -10,8.24 -21.65,15.03 -34.24,20.98 -0.66,0.99 -1.28,1.99 -1.96,2.97 l -1.92,-0.95 c -5.03,2.5 -10.43,4.69 -16.15,6.6 -21.21,8.37 -43.82,15.5 -64.89,23.96 -20.41,16.19 -36.25,37.79 -53.51,61.38 -3.55,4.85 -7.17,9.77 -10.88,14.72 168.51,-106.22 409.07,-84.27 551.54,57.03 19.63,-7.81 41.23,-11.02 69.2,-3.63 56.36,14.87 100.07,71.11 91.75,130.69 -7.35,-44.15 -38.87,-84.79 -82.47,-97.64 -64.96,-19.16 -90.45,25.97 -141.9,49.31 -14.76,6.7 -31.03,8.9 -47.37,9.84 -24.51,12.11 -57.68,27.79 -61.51,32.36 -10.5,12.57 -14.86,29.76 -14.68,47.3 1.66,18.05 7.21,37.14 16,52.58 7.6,5.17 15.01,10.55 22.22,16.12 3.11,-7.59 10.49,-15.51 23.86,-23.91 46.02,-28.89 99.37,-0.4 148.05,-12.93 39.89,-9.83 74.67,-53.18 121.52,-40.76 36.29,9.62 55.01,45.75 62.12,80.08 12.58,60.73 -8.04,128.19 -50.23,174.34 3.06,-1.03 6.12,-2.05 9.17,-3.07 4.78,-5.55 8.96,-10.59 12.23,-14.23 62.73,-69.82 94.63,-138.4 58.42,-229.67 -11.29,-28.5 -17.74,-56.55 -24.82,-85 34.9,-13.25 65.19,-43.11 76.07,-77.51 -29.18,10.41 -58.71,28.89 -82.91,51.39 -1.06,-3.82 -2.11,-7.63 -3.27,-11.48 -5.84,-19.44 -13,-38.68 -29.05,-52.32 -11.67,-9.91 -31.82,-9.04 -40.79,-15.66 -18.02,-13.31 -27.51,-58.08 -50.7,-80.7 -26.46,-25.8 -63.32,-42.35 -100.59,-41.5 142.4,-81.1 311.91,-92.33 456.75,-167.54 139.68,-72.54 235.24,-213.95 238.24,-373.15 l -0.77,-0.08 z m -88.95,-589.55 c 3.17,34.26 29.21,65.92 62.94,74.15 -3.27,-34.21 -29.15,-66.01 -62.94,-74.15 z m -187.97,-287.86 c -6.45,-15.51 -13.12,-31.54 -22.48,-47.11 -47.79,-79.4 -128.65,-151.91 -224.42,-201.93 -8.86,32.92 -32.6,55.91 -54.12,76.76 -8.11,7.84 -15.75,15.25 -22.72,23.13 -26.3,29.77 -39.1,70.81 -35.09,112.63 0.68,7 -2.35,13.84 -7.97,18.06 -5.62,4.22 -13.02,5.22 -19.57,2.61 -67.62,-26.87 -140.12,-37.93 -206.96,-42.16 18.02,3.29 35.86,6.93 53.43,10.86 65.32,14.62 135.54,31.63 203.62,55.23 12.09,-5.98 24.3,-11.19 36.62,-15.6 -12.28,-6.16 -28.73,-21.2 -38.36,-24.92 19.21,-3.07 39.13,-3.11 58.39,-0.39 13.76,1.7 15.54,9.05 11.43,15.79 8.58,-2.15 17.17,-4.06 25.78,-5.51 -3.49,-2.89 -6.69,-5.64 -8.85,-7.01 -26.21,-16.61 -51.42,-35.01 -77.08,-52.48 38.64,14.19 77.28,28.39 115.92,42.58 8.84,3.31 11.39,8.1 10.27,12.72 7.16,-0.32 14.3,-0.4 21.44,-0.26 l -0.03,-0.02 c -33.34,-23.84 -65.57,-46.86 -102.75,-64.66 50.91,13.25 99.44,33.74 144.62,60.67 3.83,2.28 6.01,5.27 6.94,8.44 12.03,1.97 23.93,4.58 35.68,7.79 -1.95,-2.45 -3.77,-4.59 -5.36,-6.17 -38.19,-37.98 -81.92,-69.96 -129.47,-95.24 64.66,23.72 124.29,59.58 175.99,104.94 -3.43,-8.03 -6.59,-15.21 -9.39,-19.78 -35.8,-58.66 -81.37,-111.03 -134.07,-155.1 80.43,54.01 147.48,125.53 196.89,208.8 1.13,1.88 1.85,3.54 2.4,5.11 5.86,3.65 11.63,7.46 17.3,11.45 -7.09,-12.96 -12.61,-26.2 -18.03,-39.23 z m -907.9,-106.08 c -6.51,-9 -12.67,-17.5 -16.84,-21.85 -51.97,-54.22 -106.41,-101.03 -161.81,-139.14 -128.86,-88.64 -319.99,-162.7 -434.56,-79.67 -59.57,43.18 -47.8,91.07 -23.64,165.62 10.56,32.59 21.47,66.28 22.61,100.58 0.58,17.43 -1.3,35.25 -3.11,52.49 -4.98,47.16 -6.43,76.24 20.57,92.76 45.2,14.81 93.69,15.87 141.43,12.83 19.45,-1.24 37.94,-6.5 56.51,-10.35 1.31,-0.8 2.62,-1.61 3.94,-2.42 -6.69,-1 -12.47,-1.92 -16.29,-2.33 -62.8,-6.81 -123.46,-26.68 -178.47,-57.63 76.43,32.08 160.16,42.71 242.1,30.74 1.86,-1.15 3.73,-2.28 5.6,-3.42 -10.28,-3.51 -19.95,-7.17 -26.18,-8.78 -72.77,-18.9 -144.68,-41.01 -215.58,-66.01 92.49,22.31 186.19,39.51 280.56,51.63 2.07,-1.2 4.16,-2.39 6.24,-3.58 -26.25,-6.69 -53.86,-18.25 -75.46,-25.89 -66.09,-23.37 -128.77,-55.34 -186.82,-94.61 94.57,52.21 197.91,85.22 305.15,97.16 4.59,-2.35 9.21,-4.64 13.84,-6.9 l -0.05,-0.02 c -37.69,-12.14 -74.76,-25.98 -111.19,-41.49 -76.6,-32.59 -149.55,-72.74 -218.63,-119.14 116.25,65.99 241.02,113.47 371.6,141.97 3.87,-1.57 7.71,-3.2 11.62,-4.69 2.62,-1 5.24,-1.91 7.86,-2.87 -44.32,-17.4 -86.94,-38.71 -129.23,-60.52 -90.54,-46.68 -180.15,-95.78 -280.64,-117.15 161.82,23.14 299.33,120.2 455.34,162.79 5.36,-1.54 10.74,-2.99 16.12,-4.4 -50.25,-23.23 -97.77,-51.93 -144.76,-81.08 -101.14,-62.74 -202.34,-128.56 -321.07,-151.17 190.02,25.24 337.17,161.01 514.79,221.3 4.57,-0.87 9.14,-1.71 13.73,-2.49 -25.08,-16.23 -50.22,-40.23 -73.17,-55.65 -67.93,-45.63 -138.92,-86.19 -212.33,-122.28 116.08,45.97 226.74,103.36 331.31,171.53 6.38,-0.71 12.77,-1.35 19.16,-1.92 -3.3,-4.39 -6.7,-9.05 -10.25,-13.95 z m -588.2,175.29 c 11.44,4.93 23.68,8.62 36.31,11.58 -14.36,-4.22 -27.89,-8.8 -39.98,-13.37 1.21,0.6 2.36,1.23 3.67,1.79 z m -115.3,352.47 c -25.09,-12.18 -55.14,-1.94 -67.68,22.92 25.09,12.3 55.08,1.86 67.68,-22.92 z m -5.35,142.24 c 1.07,-0.82 2.13,-1.65 3.19,-2.47 -3.64,0.6 -7.29,1.14 -10.96,1.61 2.88,0.19 5.5,0.47 7.77,0.86 z m 172.71,-164.77 c -39.06,-15.62 -88.64,13.66 -95.47,54.61 34.64,-9.49 69.63,-29.68 95.47,-54.61 z m 98.33,102.01 c 3.39,-5.52 7.64,-10.17 12.51,-14.13 -13.13,0.15 -26.11,1.13 -39.07,2.86 8.84,2.96 17.69,6.66 26.56,11.27 z m 31.9,20.52 c 16.52,-13.03 35.69,-21.81 55.86,-26.3 -11.16,-2.57 -22.06,-4.5 -32.78,-5.87 -18.92,-0.5 -37.47,1.6 -50.97,13.83 9.29,5.12 18.59,11.21 27.89,18.34 z m 13.93,11.41 c 25.92,22.93 44.41,50.92 62.29,77.98 15.65,23.71 30.44,46.09 49.65,64.9 42.36,41.51 90.75,76.49 136.73,108.11 4.06,2.8 7.83,5.53 11.41,8.12 16.42,11.87 23.55,16.68 35.16,15.73 18.46,-1.46 45.68,-16.5 69.7,-29.77 15.01,-8.29 29.19,-16.12 42.14,-21.37 48.73,-19.79 96.2,-39.05 144.62,-44.52 -94.63,-7.26 -188.95,12.66 -272.35,58.72 58.23,-40.13 123.33,-66.58 191.67,-79.2 -5.52,-2.07 -11.27,-4.5 -16.99,-6.97 -20.23,1.95 -47.5,-4.73 -66.04,-4.2 -58.59,1.65 -118.8,13.34 -164.76,52.06 48.7,-52.19 118.52,-68.47 187.64,-75.46 -3.94,-1.56 -7.87,-3.13 -11.78,-4.73 -1,0.61 -2.01,1.16 -3,1.57 -12.51,5.19 -50.64,-6.31 -65.39,-6.8 -58.99,-1.95 -117.67,7.77 -173.19,27.6 44.94,-22.75 93.03,-37.97 142.4,-45.65 -10.43,-3.17 -20.19,-6.22 -26.17,-7.01 -62.15,-8.21 -125.22,-2.33 -185.1,15.98 48.66,-21.46 100.54,-33.71 153.09,-36.89 -11.19,-4.59 -22.8,-10.11 -29.15,-11.68 -49.96,-12.35 -102.25,-13.72 -152.82,-4.24 41.04,-13.84 83.98,-20.06 126.85,-19.07 l -2.36,-0.89 c -39.8,-12.6 -82.85,-13.88 -123.45,-4.29 21.28,-9.07 43.64,-14.88 66.35,-17.54 -30.13,-5.82 -60,-13.5 -89.94,-20.21 21.75,-0.49 43.5,-0.98 65.25,-1.47 -2.75,-1.81 -5.34,-3.44 -7.31,-4.09 -36.71,-12.07 -73.5,-12.96 -108.39,4.4 4.42,3.41 8.83,6.99 13.24,10.88 z m 572.75,177.74 c -2.36,-0.83 -4.72,-1.66 -7.08,-2.48 -0.11,0.96 -0.19,1.89 -0.26,2.8 2.44,-0.14 4.88,-0.26 7.34,-0.32 z m -103.13,-30.72 c 8.89,2.64 16.94,5.58 22.57,8.26 2.6,-0.37 5.2,-0.66 7.81,-0.99 -6.82,-2.06 -13.64,-4.1 -20.41,-6.12 -2.69,-0.81 -5.32,-1.71 -7.99,-2.54 l -1.98,1.39 z m -188.82,-79.56 c 1.97,0.05 3.92,0.15 5.88,0.22 -1.31,-0.65 -2.63,-1.31 -3.94,-1.96 l -1.94,1.74 z m -256.46,-209.87 c -22.51,-18.09 -56.92,-16.58 -76.93,4.73 22.53,17.99 56.96,16.68 76.93,-4.73 z m 201.93,-14.23 c -37.78,-23.86 -93.84,-27.2 -134.61,-9.61 37.81,23.75 93.84,27.32 134.61,9.61 z m 96.15,24.04 c 1.62,15.48 30.66,35.24 38.46,14.42 7.71,-20.55 -27.01,-25.05 -38.46,-14.42 z m 240.38,129.81 c -21.22,-28.76 -61.59,-42.99 -96.15,-33.66 21.28,28.67 61.58,43.1 96.15,33.66 z m 94.21,195.96 c 14.08,5.75 28.33,13.25 42.84,22.83 -4.26,-5.75 -8.56,-11.38 -12.99,-16.74 -24.01,-29.09 -51.89,-54.84 -82.75,-76.37 -181.93,-23.77 -332.87,-161.07 -504.86,-215.89 -53.79,-3.39 -108,0.34 -160.71,11.44 -1.01,0.44 -2.02,0.91 -3.04,1.36 62.07,-7.8 124.83,0.64 195.82,30.29 129.17,53.96 244.85,127.66 377.4,175.84 49.98,18.17 101.96,38.9 148.29,67.24 z m -55.75,-253.65 c 5.44,13.67 49.64,43.4 57.69,19.23 7.93,-23.78 -45.18,-26.96 -57.69,-19.23 z m 125,149.03 c -11.01,-26.18 -40.81,-38.65 -67.31,-28.84 11.09,26.1 40.8,38.75 67.31,28.84 z m -39.02,435.58 c -1.53,-0.62 -2.93,-1.28 -4.42,-1.91 -15.52,18.68 -27,40.82 -33.06,64.36 4.27,-3.25 8.6,-6.46 12.96,-9.65 19.13,-13.97 36.54,-28.23 52.45,-42.93 -8.22,-2.29 -17.35,-5.61 -27.93,-9.87 z m -126.38,-117.53 c -6.32,-9.88 -12.85,-20.1 -20.05,-30.68 -9.78,-14.39 -16.25,-12.97 -19,-12.37 -40.02,8.76 -102.9,145.78 -110.35,190.14 -10.03,59.7 -0.17,130.68 29.93,215.34 -16.04,-81.04 -13.83,-164.48 7.09,-245.69 -15.53,94.3 -5.88,189.23 27.5,277.8 6.33,-40.19 -9.47,-85.53 -11.83,-125.48 -5.03,-85.3 8.5,-171.48 39.95,-250.96 -23.52,73.7 -32.02,151.94 -24.99,228.97 3.33,36.57 19.42,82.88 22.98,126.22 5.82,-41.56 -0.21,-86.68 0.04,-126.5 0.49,-78.87 15.87,-156.34 46.67,-229 -25.44,73.52 -35.61,150.77 -30.84,228.38 2.82,46.04 12.12,95.19 6.75,141.46 33.92,-107.63 -16.53,-238.4 62.9,-331.41 -58.78,80.5 -30.94,180.89 -31.63,275.98 21.61,-80.52 22.84,-182.82 63.43,-229.01 -31.21,41.14 -34.99,108.22 -41.54,174.21 2.54,-7.34 5.29,-14.58 8.42,-21.64 3.67,-48.14 20.19,-94.78 48.59,-133.94 -12.52,28.46 -19.54,59.09 -20.73,90.02 1.04,-1.17 2.06,-2.38 3.14,-3.52 l -2.06,-0.45 c 11.76,-37.18 35.13,-69.93 66.94,-92.53 -65.23,-27.83 -91.34,-68.45 -121.31,-115.34 z m -225.69,587.47 c -19.43,23.74 -43.39,44.41 -68.55,63.07 22.26,-2.49 44.3,-5.14 62.57,-14.05 38.84,-18.95 68.61,-53.51 105.59,-78.18 -32.63,6.85 -65.47,16.11 -98.52,27.79 l -1.09,1.37 z m 212.31,-43.26 -0.84,0.02 c -19.08,6.91 -37.79,14.9 -55.95,24.36 -52.1,27.14 -91.45,79.41 -144.71,101.5 l -2.13,0.81 c 12.48,1.04 24.93,2.33 37.31,3.89 2.02,0.26 4.08,0.51 6.14,0.76 -0.05,-1.53 -0.01,-3.02 0.2,-4.39 2.31,-14.56 36.15,-40.05 46.74,-49.84 33.79,-31.25 72,-57.09 113.24,-77.11 z m -128.59,134.11 c 4.56,-0.08 9.25,-0.13 13.93,-0.12 2.7,-14.57 33.8,-40.09 43.68,-50.07 33.22,-33.55 71.26,-61.72 112.64,-84.12 -10.61,-0.29 -21.24,-0.29 -31.9,-0.05 -55.09,34.41 -102.29,80.17 -138.35,134.36 z m -679.1,451.17 -0.69,0.67 0.65,-0.28 0.04,-0.39 z m 920.48,-327.46 -0.7,2.29 c 2.12,0.58 4.21,1.23 6.29,1.92 -1.12,-2.66 -1.96,-5.44 -2.42,-8.35 l -0.61,0.78 c 0.28,1.49 -0.28,2.6 -2.56,3.36 z m 54.39,32.48 -0.61,-0.93 0.07,0.6 0.54,0.33 z m 70.71,52.75 -1.09,0.32 0.66,0.67 0.43,-0.99 z m -824.7,415.42 c 4.31,-3.86 8.62,-7.72 12.91,-11.6 l -1.64,0.54 c -2.98,2.85 -6.34,6.09 -10.01,9.64 l -1.26,1.42 z m 189.04,-570.47 c -153.16,60.87 -199.23,258.43 -359.35,305.86 86.13,-47.02 132.96,-133.99 189.5,-211.01 -22.51,12.53 -44.95,24.89 -67.2,37.14 -41.49,22.84 -84.39,46.47 -126.17,70.36 -113.15,64.68 -190.66,212.12 -239.13,317.39 -2.22,4.84 -4.79,9.98 -7.45,15.28 -6.73,13.42 -19.26,38.39 -15.81,45.99 0.49,1.1 3.16,2.77 8.02,4.03 15.95,4.13 37.68,1.19 60.59,-4.69 18.14,-8.92 35.41,-18.8 50.07,-24.62 57.49,-22.85 117.42,-39.41 178.37,-49.92 80.07,-13.8 184.57,-8.41 257.99,-51.71 42.2,-67.03 86.18,-142.23 162.49,-167.44 99.64,-32.9 93.57,44.8 65.73,113.08 -23.8,58.37 -69.42,103.59 -127.97,126.65 73.97,-43.98 121.91,-128.8 114.54,-215.17 -111.13,-2.66 -176.97,166.56 -229.05,233.58 -69.96,90.03 -174.45,199.49 -294.24,222.8 28.88,-4.46 63.39,-13.58 103.52,-27.43 14.04,-4.84 28.3,-9.66 42.89,-14.5 64.82,-44.81 123.41,-98.82 173.14,-159.87 58.34,-71.62 93.41,-171.79 165.63,-230.56 31.25,88.66 -87.04,146.11 -110.77,219.39 12.97,4.36 25.94,8.72 38.9,13.08 -7.09,12.17 -15.29,23.68 -24.36,34.48 21.33,3.62 43.42,6.6 50.54,19.61 2.73,5.01 4.16,9.5 4.55,13.58 8.41,-1.55 16.86,-2.7 25.37,-3.35 74.06,-62.84 150.36,-194.62 250.8,-93.48 -15.9,-3.53 -32.51,-4.69 -48.88,-3.6 11.79,7.65 19.87,19.67 19.87,36.15 0,33.19 -32.72,48.35 -62.93,45.86 2.24,-2.61 3.64,-5.95 3.64,-10.07 0,-20.85 -35.14,-22.31 -40.21,-4.48 -7.91,-7.19 -13.08,-16.96 -13.39,-29.36 -5.09,4.38 -10.1,9.02 -15.08,13.8 -15.08,93.41 123.61,34.71 163.39,-2.85 -1.66,11.04 -5.3,21.46 -10.44,31.07 17.4,-7.73 35.02,-15.03 52.72,-22.06 6.25,-16.52 9.14,-34.38 8.6,-52.11 -11.08,-19.43 -36.89,-40.05 -45.28,-45.78 -33.65,-22.97 -73.19,-29.47 -112.6,-17.65 58.45,-87.51 -8.9,-243.98 97.2,-303.79 44.75,-25.23 90.28,-5.21 119.47,32.34 19.16,24.63 42.69,127.12 84.05,60.37 19.01,-30.68 24.19,-70.76 13.55,-105.29 43.45,17.71 72.84,61.99 88.69,111.51 7.05,-5.52 14.85,-8.57 23.14,-7.59 -51.6,-98.37 -159.56,-165.03 -266.83,-213.64 6.58,6.61 12.79,13.84 18.48,21.83 -133.73,-105.16 -267.94,-29.8 -397.73,56.59 -71.65,92.14 -156.69,177.38 -257.18,236.43 -100.14,58.84 -247.04,60.92 -324.56,150.5 26.87,-55.92 81.94,-88.7 142.3,-115.19 16.34,-37.21 50.02,-66.23 85.48,-84.26 22.54,-11.46 89.39,-38.46 111.74,-9.2 l 0.5,0.78 c 54.76,-36.45 105.23,-78.43 155.11,-121.18 -53.89,35 -106.8,65.19 -158.36,77.77 69.67,-40.06 129.9,-94.74 193.06,-144.71 24.04,-41.08 51.38,-81.04 94.54,-103.52 6.17,-3.21 24.66,-8.52 46.74,-12.97 9.39,-2.65 18.78,-4.47 27.12,-4.67 26.7,-3.78 53.65,-4.97 68.23,0.72 60.99,-9.36 125.05,-1.86 173.71,33.32 31.64,4.31 64.89,12.94 97.72,25.3 0.22,-38.87 42.62,-89.02 68.47,-101.88 38.19,-19 82.96,-5.23 121.77,-20.03 29.55,-11.28 51.94,-29.02 76.45,-40.72 -26.54,-14.31 -53.21,-26.84 -80.02,-37.52 9.14,11.73 18.47,23.14 29.98,31.38 -20.86,42.88 -83.46,22.88 -120.3,31.04 -38.18,8.46 -72.92,33.09 -92.18,67.35 -32.42,-35.04 -14.73,-83.72 24.25,-102.54 34.52,-16.67 87.09,-8.38 100.95,-47.24 -52.69,-15.81 -105.94,-24.68 -159.73,-26.72 -49.92,34.96 -92.53,79.3 -125.51,130.57 9.44,-11.83 28.38,-23.86 36.45,-30.71 36.12,-30.65 75.77,-56.61 117.94,-78.14 -49.23,35.34 -92.23,78.2 -128.61,126.54 45.07,10.9 87.43,29.22 114.22,64.34 -56.39,-47.91 -142.85,-44.97 -212.71,-49.24 -82.94,-5.06 -169.5,-6.65 -248.14,24.6 z m -309.49,565.22 c -1.23,0.03 -2.42,0.04 -3.57,0.03 -0.11,0.95 -0.25,2.01 -0.41,3.15 1.14,-1.12 2.5,-2.18 3.98,-3.18 z m -174.4,172.82 c 4.94,11.88 13.89,20.51 26.78,25.93 92.01,-2.42 171.19,-54.58 237.8,-120.82 -18.63,15.06 -38.08,28.91 -58.36,41.17 -33.24,20.09 -86.34,52.23 -124.26,26.84 -15.44,-10.34 -21.24,-25.29 -21.31,-41.14 -10,21.54 -13.47,43.52 -6.43,64.68 -42.34,-30.11 -16.18,-97.54 8.78,-134.39 -14.02,7.73 -27.84,15.2 -32.49,19.81 -2.78,2.74 -5.58,5.77 -8.33,8.98 -18.44,37.57 -33.93,80.71 -22.18,108.94 z m 643.98,-100.65 -0.23,-0.57 -0.25,0.5 0.48,0.07 z m 560.4,-176.63 c 6.73,-8.67 12.93,-17.76 18.56,-27.2 l -0.94,-0.49 c 29.75,-81.9 -3,-135.19 -22.97,-210.98 -6.62,-25.12 -16.25,-25.16 14.18,-42.54 10.19,-5.83 23.29,-9.65 34.96,-10.61 11.37,-0.94 45.87,14.69 52.24,13.2 10.39,-2.42 21.52,-27.34 33.47,-32.84 67.76,-31.19 67.03,38.95 53.63,93.91 1.91,9.12 2.86,18.43 2.92,27.72 32.05,-68.06 46.83,-155.48 -18.09,-180.41 -29.3,-7.55 -71.24,31.57 -102.85,39.27 -9.5,2.31 -21.83,1.91 -35.52,0.46 -10.11,4.41 -28.36,2.54 -35.53,4.94 -22.86,7.67 -39.37,22.98 -46.23,46.38 -0.14,0.5 -0.36,4.49 -0.73,9.69 56.11,70.37 77.46,158.82 25.8,255.05 2.69,-16.12 4.11,-31.67 4.44,-46.71 -2.75,6.13 -5.86,11.61 -9.38,15.95 -15.9,19.61 -38.23,29.64 -61.23,31.82 -3.29,2.68 -6.76,5.18 -10.43,7.54 -4.36,23.72 -14.13,46.8 -26.32,62.52 47,-18.71 89.65,-37.31 130.02,-56.67 z m 178.22,-98.64 c -26.09,10.35 -50.92,17.38 -72.85,19.26 -1.65,2.27 -3.31,4.54 -4.94,6.82 -4.04,5.63 -10.59,18.28 -17.85,30.2 32.27,-17.65 64.14,-36.37 95.64,-56.28 z m 197.62,-443.2 c -31.94,8.36 -57.08,38.7 -57.79,72.04 31.88,-8.45 57.2,-38.66 57.79,-72.04 z m 93.62,-182.71 c -29.94,2.77 -55.43,28.06 -56.92,58.43 29.88,-2.86 55.53,-28 56.92,-58.43 z m 83.32,107.57 c -30.06,19.03 -54.95,53.09 -63.6,87.73 39.3,-6.21 69.33,-48.82 63.6,-87.73 z m 58.07,-206.55 c -29.18,0.35 -55.26,23.44 -57.69,52.88 29.14,-0.45 55.36,-23.39 57.69,-52.88 z m 1.28,226.65 c -79.15,92.91 -157.49,188.2 -234.44,282.96 106.8,-57.26 198.79,-166.85 234.44,-282.96 z m 37.22,-60.77 c 14.97,-0.56 46.92,-30.76 26.43,-43.27 -20.18,-12.33 -32.81,29.66 -26.43,43.27 z m 79.38,-374.99 c -28.49,30.85 -48.96,77.02 -52.22,119.07 40.14,-21.38 63.09,-75.29 52.22,-119.07 z m 5.97,249.59 c 15.66,-1.05 30.19,-24.47 10.22,-31.05 -19.81,-6.52 -22.15,20.87 -10.22,31.05 z m 96.76,38.62 c -71.42,182.48 -194.05,315.35 -304.59,421.26 -154.79,148.3 -312.98,261.78 -483.6,346.94 -69.93,34.89 -145.31,66.83 -237.24,100.49 l -24.13,8.81 c -56.66,20.63 -115.24,41.97 -169.97,67.75 -67.36,31.74 -116.13,24.7 -177.88,15.79 -10.49,-1.52 -21.44,-3.1 -33.02,-4.56 -38.03,-4.81 -79.25,8.82 -119.11,22 -11.52,3.8 -23.44,7.74 -35.06,11.15 -92.46,27.13 -163.31,49.45 -229.73,72.36 -53.74,18.55 -217.28,74.96 -258.77,-24.78 -18.9,-45.42 3.3,-103.74 27.55,-151.01 -44.78,16.2 -95.45,31.62 -134.14,21.57 -21.22,-5.52 -30.54,-17.41 -34.63,-26.42 -11.41,-25.14 3.41,-54.69 16.49,-80.75 2.45,-4.88 4.82,-9.62 6.87,-14.07 50.79,-110.31 132.55,-265.12 255.76,-335.55 42.06,-24.05 85.1,-47.75 126.73,-70.68 87.98,-48.44 178.95,-98.54 264.57,-154.11 6.12,-3.97 12.36,-7.97 18.67,-12.01 46.55,-29.85 94.68,-60.7 127.51,-100.81 8.79,-10.74 17.07,-22.06 25.09,-33.01 25.88,-35.37 52.54,-71.79 98.39,-91.8 -51.1,-118.61 -69.35,-215.84 -55.76,-296.7 6.39,-38.04 69.47,-207.11 141.52,-222.87 13.39,-2.94 39.14,-3.05 61.01,29.09 7.51,11.06 14.21,21.52 20.67,31.64 29.25,45.75 50.37,78.8 107.48,101.83 15.47,6.24 29.89,11.73 36.36,10.41 5.74,-1.18 14.17,-10.15 25.05,-23.26 15.03,-18.1 60.75,-73.19 43.99,-104.9 -16.95,-32.06 -61.85,-67.02 -94.63,-92.55 -5.67,-4.41 -11.06,-8.6 -16.01,-12.55 -90.68,-72.19 -160.04,-49.35 -274.84,-2.75 -10.72,4.35 -23.87,11.62 -37.8,19.31 -28.95,15.99 -58.88,32.53 -86.04,34.68 -26.92,2.17 -43.94,-10.21 -61.99,-23.27 -3.34,-2.42 -6.85,-4.96 -10.64,-7.56 -45.19,-31.09 -97.42,-68.77 -142.1,-112.54 -22.27,-21.81 -38.95,-47.06 -55.08,-71.48 -17.19,-26.02 -33.42,-50.6 -55.35,-70 -94.73,-83.79 -190.75,-28.19 -280.4,44.37 -46.34,37.51 -91.49,78.84 -135.15,118.82 -65.01,59.52 -132.23,121.06 -206.01,172.59 -97.69,68.24 -219.89,121.38 -363.21,157.95 -6.41,1.63 -13.23,0.02 -18.23,-4.33 -5,-4.35 -7.54,-10.88 -6.81,-17.46 9.43,-84.25 24.03,-165.59 43.42,-241.76 13.4,-52.65 31.14,-113.8 61.14,-168.25 6.69,-12.14 13.7,-24.2 20.46,-35.87 25.82,-44.49 50.21,-86.52 60.29,-135.36 l 1.06,-5.13 c 1.54,-7.37 3.13,-14.98 2.85,-16.85 -0.42,-1.18 -2.82,-4.36 -7.14,-9.44 -24.24,-28.52 -85.14,-53.2 -129.61,-71.22 -10.35,-4.19 -20.14,-8.15 -28.65,-11.83 -93.38,-40.34 -199.75,-55.03 -292.12,-65.64 -8.57,-0.99 -15.57,-7.31 -17.41,-15.75 -1.84,-8.43 1.89,-17.1 9.27,-21.57 59.31,-35.88 126.07,-65.14 198.41,-86.99 120.72,-36.44 226.85,-23.6 339.19,-10 19.79,2.4 40.24,4.87 60.97,7.11 167.3,18.04 334.02,8.64 529.38,-30.69 -9.25,-2.73 -18.33,-5.94 -27.16,-9.75 -64.97,-28.02 -58.51,-89.31 -53.31,-138.56 1.75,-16.59 3.4,-32.27 2.92,-46.91 -0.95,-28.61 -10.98,-59.55 -20.68,-89.48 -22.5,-69.44 -48,-148.16 38.35,-210.74 40.5,-29.35 89.32,-44.05 145.86,-44.05 32.87,0 68.35,4.97 106.33,14.92 73.52,19.28 156.97,58.72 228.93,108.23 57.66,39.66 114.21,88.26 168.08,144.46 6.1,6.36 12.72,15.52 20.39,26.12 7.06,9.75 18.67,25.77 27.46,34.51 15.99,-0.56 32.03,-0.73 48.08,-0.56 35.18,-2.89 71.1,-4.57 106.89,-4.9 84.19,-0.75 191.57,3.02 293.24,37.07 2.57,-41.89 18.48,-81.63 45.56,-112.26 8,-9.05 16.58,-17.36 24.88,-25.4 24.91,-24.12 46.42,-44.96 45.4,-77.87 -0.22,-7.01 3.22,-13.63 9.08,-17.49 5.85,-3.86 13.3,-4.39 19.65,-1.42 113.77,53.3 211.11,137.18 267.07,230.14 10.91,18.12 18.15,35.57 25.17,52.43 10.82,26.04 20.17,48.53 40.71,67.55 42.23,39.11 84.71,83.36 126.24,131.55 147.13,170.7 235,334.33 268.64,500.22 45.02,222.09 19.78,472.25 -71.08,704.4"
         style="fill:#393536;fill-opacity:1;fill-rule:nonzero;stroke:none"
         id="path68"
         inkscape:connector-curvature="0" /><path
         d="m 7306.2,4889.66 c -0.65,8.44 -0.41,17.7 -0.7,26.69 -0.32,18.22 -0.66,37.2 -1,56.85 -0.12,19.65 -1.85,39.92 -2.75,60.78 -1.06,20.86 -2.1,42.29 -4.32,64.11 -2.06,21.84 -3.64,44.2 -6.21,66.84 -2.8,22.61 -5.66,45.6 -8.54,68.88 -3.21,23.23 -7.31,46.62 -10.99,70.26 -3.39,23.7 -8.75,47.24 -13.2,71.04 -2.4,11.87 -4.51,23.82 -7.17,35.67 l -8.25,35.51 -8.27,35.5 c -2.79,11.82 -6.21,23.47 -9.27,35.18 -6.5,23.33 -12.09,46.82 -19.49,69.59 -7.14,22.83 -13.71,45.66 -21.17,67.9 -7.66,22.17 -15.22,44.07 -22.66,65.62 -16.14,42.62 -31.61,83.9 -48.45,122.15 -15.74,38.72 -33.4,74.1 -48.52,107.28 -4.02,8.17 -8.43,15.95 -11.57,24.13 -3.06,8.23 -6.62,15.99 -12.25,22.45 -10.85,13.08 -21.02,25.5 -31.46,36.81 -20.71,22.5 -38.3,42.29 -54.06,56.99 -15.49,15.02 -28.36,26.41 -36.85,34.34 -8.61,7.86 -13.42,11.92 -13.42,11.92 0,0 1.26,-6.17 4.06,-17.49 2.91,-11.25 6.77,-27.99 12.57,-48.77 2.92,-10.46 5.92,-21.92 8.9,-34.39 3.17,-12.3 6.59,-25.6 10.26,-39.81 3.9,-13.92 7.61,-29.08 11.39,-45.06 1.73,-8.06 5.71,-15.18 10.37,-22.2 4.58,-7.05 8.07,-14.87 12.12,-22.62 14.45,-31.81 31.42,-65.68 46.48,-102.8 16.14,-36.64 30.94,-76.2 46.43,-117.03 7.12,-20.65 14.37,-41.63 21.7,-62.88 7.16,-21.3 13.42,-43.18 20.29,-65.05 7.1,-21.81 12.42,-44.33 18.66,-66.68 2.94,-11.22 6.23,-22.37 8.9,-33.7 l 7.9,-34.02 7.92,-34.02 c 2.56,-11.35 4.56,-22.81 6.86,-34.18 4.26,-22.8 9.43,-45.36 12.66,-68.07 3.51,-22.66 7.46,-45.07 10.53,-67.34 2.77,-22.3 5.5,-44.34 8.19,-66.01 2.47,-21.7 3.96,-43.14 5.93,-64.07 2.16,-20.92 3.14,-41.47 4.15,-61.47 0.85,-20.01 2.55,-39.43 2.64,-58.29 0.34,-18.84 0.66,-37.04 0.96,-54.52 0.05,-8.86 0.66,-17.07 -0.19,-25.72 -0.36,-4.33 -1,-8.3 -0.81,-12.36 0.16,-4.02 0.92,-8.06 1.86,-12.06 3.43,-16.06 6.68,-31.29 9.73,-45.61 6.01,-29 11.26,-54.29 15.58,-75.11 3.94,-20.97 7.8,-37.65 9.95,-49.01 2.42,-11.4 3.71,-17.49 3.71,-17.49 0,0 2.51,5.73 6.75,16.59 4.09,10.87 10.6,26.81 17.33,47.4 6.94,20.57 15.2,45.72 23.2,74.95 4.08,14.6 7.95,30.23 12.04,46.78 2.47,8.17 2.68,17.06 1.55,25.62"
         style="fill:#ffffff;fill-opacity:1;fill-rule:nonzero;stroke:none"
         id="path70"
         inkscape:connector-curvature="0" /><path
         d="m 2844.1,6089.89 c -15.76,-14.7 -33.35,-34.49 -54.06,-56.99 -10.44,-11.31 -20.61,-23.73 -31.46,-36.81 -5.63,-6.46 -9.19,-14.22 -12.25,-22.45 -3.14,-8.18 -7.55,-15.96 -11.58,-24.13 -15.11,-33.18 -32.78,-68.56 -48.51,-107.28 -16.84,-38.25 -32.31,-79.53 -48.45,-122.15 -7.44,-21.55 -15,-43.45 -22.66,-65.62 -7.46,-22.24 -14.03,-45.07 -21.17,-67.9 -7.4,-22.77 -12.99,-46.26 -19.49,-69.59 -3.06,-11.71 -6.48,-23.36 -9.27,-35.18 l -8.27,-35.5 -8.25,-35.51 c -2.66,-11.85 -4.77,-23.8 -7.17,-35.67 -4.45,-23.8 -9.81,-47.34 -13.2,-71.04 -3.68,-23.64 -7.78,-47.03 -10.99,-70.26 -2.88,-23.28 -5.74,-46.27 -8.54,-68.88 -2.57,-22.64 -4.15,-45 -6.21,-66.84 -2.22,-21.82 -3.26,-43.25 -4.32,-64.11 -0.9,-20.86 -2.63,-41.13 -2.75,-60.78 -0.34,-19.65 -0.68,-38.63 -1,-56.85 -0.29,-8.99 -0.05,-18.25 -0.7,-26.69 -1.14,-8.56 -0.92,-17.45 1.54,-25.62 4.1,-16.55 7.97,-32.18 12.05,-46.78 8,-29.23 16.26,-54.38 23.2,-74.95 6.72,-20.59 13.24,-36.53 17.33,-47.4 4.24,-10.86 6.75,-16.59 6.75,-16.59 0,0 1.29,6.09 3.71,17.49 2.15,11.36 6.01,28.04 9.95,49.01 4.32,20.82 9.57,46.11 15.58,75.11 3.05,14.32 6.3,29.55 9.73,45.61 0.94,4 1.7,8.04 1.86,12.06 0.19,4.06 -0.45,8.03 -0.81,12.36 -0.85,8.65 -0.25,16.86 -0.19,25.72 0.3,17.48 0.62,35.68 0.95,54.52 0.1,18.86 1.8,38.28 2.65,58.29 1.01,20 1.99,40.55 4.14,61.47 1.98,20.93 3.47,42.37 5.94,64.07 2.69,21.67 5.42,43.71 8.19,66.01 3.07,22.27 7.02,44.68 10.53,67.34 3.23,22.71 8.4,45.27 12.66,68.07 2.3,11.37 4.3,22.83 6.86,34.18 l 7.92,34.02 7.9,34.02 c 2.67,11.33 5.96,22.48 8.9,33.7 6.24,22.35 11.56,44.87 18.66,66.68 6.87,21.87 13.13,43.75 20.29,65.05 7.33,21.25 14.58,42.23 21.7,62.88 15.49,40.83 30.29,80.39 46.43,117.03 15.06,37.12 32.03,70.99 46.48,102.8 4.05,7.75 7.54,15.57 12.12,22.62 4.66,7.02 8.64,14.14 10.37,22.2 3.78,15.98 7.49,31.14 11.39,45.06 3.67,14.21 7.09,27.51 10.26,39.81 2.98,12.47 5.98,23.93 8.9,34.39 5.8,20.78 9.66,37.52 12.57,48.77 2.8,11.32 4.07,17.49 4.07,17.49 0,0 -4.82,-4.06 -13.43,-11.92 -8.5,-7.93 -21.37,-19.32 -36.85,-34.34"
         style="fill:#ffffff;fill-opacity:1;fill-rule:nonzero;stroke:none"
         id="path72"
         inkscape:connector-curvature="0" /></g></g></svg>